SplineFontDB: 3.0
FontName: GenJyuuGothicL-Monospace-Regular
FullName: Gen Jyuu Gothic L Monospace Regular
FamilyName: Gen Jyuu Gothic L Monospace Regular
Weight: Book
Copyright: [Source Han Sans]\nCopyright (c) 2014, 2015 Adobe Systems Incorporated (http://www.adobe.com/), with Reserved Font Name 'Source'.\n\n[M+ OUTLINE FONTS]\nCopyright(c) 2015 M+ FONTS PROJECT
Version: 1.002.20150607
ItalicAngle: 0
UnderlinePosition: -153
UnderlineWidth: 51
Ascent: 881
Descent: 143
InvalidEm: 0
sfntRevision: 0x00010083
LayerCount: 2
Layer: 0 1 "+gMyXYgAA" 1
Layer: 1 1 "+Uk2XYgAA" 0
HasVMetrics: 1
XUID: [1021 40 1406584144 8556147]
StyleMap: 0x0040
FSType: 8
OS2Version: 1
OS2_WeightWidthSlopeOnly: 0
OS2_UseTypoMetrics: 0
CreationTime: 1420876368
ModificationTime: 1622115791
PfmFamily: 17
TTFWeight: 400
TTFWidth: 5
LineGap: 92
VLineGap: 92
Panose: 2 11 3 9 2 2 3 2 2 7
OS2TypoAscent: 881
OS2TypoAOffset: 0
OS2TypoDescent: -143
OS2TypoDOffset: 0
OS2TypoLinegap: 92
OS2WinAscent: 1101
OS2WinAOffset: 0
OS2WinDescent: 328
OS2WinDOffset: 0
HheadAscent: 1101
HheadAOffset: 0
HheadDescent: -328
HheadDOffset: 0
OS2SubXSize: 666
OS2SubYSize: 716
OS2SubXOff: 0
OS2SubYOff: 143
OS2SupXSize: 666
OS2SupYSize: 716
OS2SupXOff: 0
OS2SupYOff: 490
OS2StrikeYSize: 50
OS2StrikeYPos: 264
OS2FamilyClass: 2057
OS2Vendor: 'MM  '
OS2CodePages: 601201bf.dff70000
OS2UnicodeRanges: e1000aff.6a47fdfb.02000012.00000000
Lookup: 1 0 0 "'vert' Vertical Alternates (obs) lookup 0" { "'vert' Vertical Alternates (obs) lookup 0 subtable"  } ['vert' ('DFLT' <'dflt' > 'cyrl' <'dflt' > 'grek' <'dflt' > 'hani' <'dflt' > 'kana' <'JAN ' 'dflt' > 'latn' <'dflt' > ) ]
Lookup: 1 0 0 "'jp90' JIS90 Forms lookup 1" { "'jp90' JIS90 Forms lookup 1 subtable"  } ['jp90' ('DFLT' <'dflt' > 'cyrl' <'dflt' > 'grek' <'dflt' > 'hani' <'dflt' > 'kana' <'JAN ' 'dflt' > 'latn' <'dflt' > ) ]

StartChar: cid01464
Encoding: 12364 12364 0
Width: 1024
GlyphClass: 3
Flags: W
LayerCount: 2
Fore
SplineSet
749.759765625 727.98828125 m 4,0,1
 724 781 724 781 696.1640625 810.939453125 c 4,2,3
 689 819 689 819 695.166015625 836.561523438 c 4,4,5
 701 851 701 851 716.166992188 859.151367188 c 4,6,7
 732 868 732 868 746.97265625 868.435546875 c 4,8,9
 763 868 763 868 770.5625 857.495117188 c 4,10,11
 815 794 815 794 825.408203125 774.538085938 c 4,12,13
 832 763 832 763 824.506835938 748.009765625 c 4,14,15
 818 733 818 733 801.533203125 723.805664062 c 4,16,17
 785 714 785 714 770.111328125 715.591796875 c 4,18,19
 755 718 755 718 749.759765625 727.98828125 c 4,0,1
882.413085938 818.46484375 m 4,20,21
 877 828 877 828 882 841.5 c 132,-1,22
 887 855 887 855 899.5 863 c 4,23,24
 919 875 919 875 935.317382812 874.623046875 c 4,25,26
 951 874 951 874 957.736328125 863.708984375 c 4,27,28
 992 814 992 814 1012.31640625 780.611328125 c 4,29,30
 1020 768 1020 768 1009.82421875 752.739257812 c 4,31,32
 1001 738 1001 738 986.5 729.5 c 132,-1,33
 972 721 972 721 958 721 c 4,34,35
 946 721 946 721 936.874023438 734.639648438 c 4,36,37
 904 780 904 780 882.413085938 818.46484375 c 4,20,21
339 766 m 0,38,39
 340 781 340 781 351 790 c 0,40,41
 360 799 360 799 372 799 c 0,42,43
 374 799 374 799 375 798 c 2,44,-1
 401 796 l 2,45,46
 415 795 415 795 423.5 783.5 c 128,-1,47
 432 772 432 772 429 758 c 0,48,49
 426 743 426 743 424 732 c 0,50,51
 421 720 421 720 412.5 671 c 128,-1,52
 404 622 404 622 398 593 c 0,53,54
 398 592 398 592 399 590.5 c 128,-1,55
 400 589 400 589 402 589 c 0,56,57
 480 596 480 596 511 596 c 0,58,59
 588 596 588 596 632 557.5 c 128,-1,60
 676 519 676 519 676 423 c 0,61,62
 676 321 676 321 661.5 219 c 128,-1,63
 647 117 647 117 617 57 c 0,64,65
 594 10 594 10 558.5 -8.5 c 128,-1,66
 523 -27 523 -27 469 -27 c 0,67,68
 432 -27 432 -27 384 -19 c 0,69,70
 368 -16 368 -16 357 -4.5 c 128,-1,71
 346 7 346 7 344 23 c 2,72,-1
 341 40 l 2,73,74
 339 52 339 52 348.5 60 c 128,-1,75
 358 68 358 68 370 65 c 0,76,77
 423 52 423 52 461 52 c 0,78,79
 492 52 492 52 513 63 c 128,-1,80
 534 74 534 74 549 104 c 0,81,82
 572 152 572 152 584.5 238.5 c 128,-1,83
 597 325 597 325 597 414 c 0,84,85
 597 478 597 478 570.5 500 c 128,-1,86
 544 522 544 522 489 522 c 0,87,88
 459 522 459 522 385 515 c 0,89,90
 381 515 381 515 380 511 c 0,91,92
 300 198 300 198 186 2 c 0,93,94
 179 -11 179 -11 164 -16 c 128,-1,95
 149 -21 149 -21 135 -15 c 2,96,-1
 118 -8 l 2,97,98
 105 -3 105 -3 101.5 10 c 128,-1,99
 98 23 98 23 105 34 c 0,100,101
 167 127 167 127 216.5 255.5 c 128,-1,102
 266 384 266 384 297 503 c 0,103,104
 297 504 297 504 296 505.5 c 128,-1,105
 295 507 295 507 293 506 c 0,106,107
 220 499 220 499 170 494 c 0,108,109
 165 493 165 493 145 490.5 c 128,-1,110
 125 488 125 488 114 487 c 0,111,112
 100 485 100 485 88.5 493.5 c 128,-1,113
 77 502 77 502 76 517 c 2,114,-1
 74 535 l 2,115,116
 73 549 73 549 82.5 559.5 c 128,-1,117
 92 570 92 570 106 570 c 0,118,119
 110 570 110 570 115 570 c 0,120,121
 136 570 136 570 161 570 c 0,122,123
 190 571 190 571 310 581 c 0,124,125
 314 582 314 582 315 586 c 0,126,127
 336 693 336 693 339 766 c 0,38,39
731 614 m 0,128,129
 726 622 726 622 726 631 c 0,130,131
 726 634 726 634 727 638 c 0,132,133
 730 651 730 651 742 657 c 2,134,-1
 752 662 l 2,135,136
 761 666 761 666 770 666 c 0,137,138
 776 666 776 666 781 665 c 0,139,140
 796 661 796 661 805 648 c 0,141,142
 843 591 843 591 886 506 c 128,-1,143
 929 421 929 421 957 350 c 0,144,145
 960 343 960 343 960 336 c 128,-1,146
 960 329 960 329 957 322 c 0,147,148
 952 307 952 307 938 301 c 2,149,-1
 923 293 l 2,150,151
 916 290 916 290 909 290 c 0,152,153
 903 290 903 290 897 293 c 0,154,155
 885 298 885 298 880 311 c 0,156,157
 854 387 854 387 813 472 c 128,-1,158
 772 557 772 557 731 614 c 0,128,129
EndSplineSet
Ligature2: "'ccmp' Glyph Composition/Decomposition lookup 5 subtable" cid01463 cid01539
EndChar

StartChar: cid01466
Encoding: 12366 12366 1
Width: 1024
GlyphClass: 3
Flags: W
LayerCount: 2
Fore
SplineSet
757.759765625 710.98828125 m 0,0,1
 715 797 715 797 701.1640625 810.939453125 c 0,2,3
 694 819 694 819 700.166015625 836.561523438 c 0,4,5
 706 851 706 851 721.166992188 859.151367188 c 0,6,7
 737 868 737 868 751.97265625 868.435546875 c 0,8,9
 768 868 768 868 775.5625 857.495117188 c 0,10,11
 778 854 778 854 833.408203125 757.538085938 c 0,12,13
 840 746 840 746 832.506835938 731.009765625 c 0,14,15
 826 716 826 716 809.533203125 706.805664062 c 0,16,17
 793 697 793 697 778.111328125 698.591796875 c 0,18,19
 764 701 764 701 757.759765625 710.98828125 c 0,0,1
885.413085938 821.46484375 m 4,20,21
 880 831 880 831 885 844.5 c 132,-1,22
 890 858 890 858 902.5 866 c 4,23,24
 922 878 922 878 938.317382812 877.623046875 c 4,25,26
 955 877 955 877 960.736328125 866.708984375 c 4,27,28
 979 831 979 831 1018.31640625 766.611328125 c 4,29,30
 1026 754 1026 754 1015.82421875 738.739257812 c 4,31,32
 1007 724 1007 724 992.5 715.5 c 132,-1,33
 978 707 978 707 964 707 c 132,-1,34
 950 707 950 707 942.874023438 720.639648438 c 4,35,36
 906 785 906 785 885.413085938 821.46484375 c 4,20,21
163 234 m 0,37,38
 167 249 167 249 180 258 c 128,-1,39
 193 267 193 267 208 265 c 2,40,-1
 215 265 l 2,41,42
 229 264 229 264 236.5 252.5 c 128,-1,43
 244 241 244 241 240 228 c 0,44,45
 227 185 227 185 227 159 c 0,46,47
 227 32 227 32 434 32 c 0,48,49
 551 32 551 32 648 48 c 0,50,51
 662 50 662 50 672 41 c 128,-1,52
 682 32 682 32 682 19 c 2,53,-1
 682 8 l 2,54,55
 681 -8 681 -8 671 -19.5 c 128,-1,56
 661 -31 661 -31 646 -33 c 0,57,58
 544 -47 544 -47 436 -47 c 0,59,60
 299 -47 299 -47 224.5 0.5 c 128,-1,61
 150 48 150 48 150 141 c 0,62,63
 150 181 150 181 163 234 c 0,37,38
786 534 m 0,64,65
 799 538 799 538 811.5 531.5 c 128,-1,66
 824 525 824 525 827 511 c 2,67,-1
 827 508 l 2,68,69
 830 493 830 493 822.5 480 c 128,-1,70
 815 467 815 467 801 462 c 0,71,72
 741 444 741 444 667 430 c 0,73,74
 663 429 663 429 664 425 c 0,75,76
 712 323 712 323 738 271 c 0,77,78
 744 259 744 259 744 248 c 0,79,80
 744 232 744 232 733 218 c 0,81,82
 717 198 717 198 692 198 c 0,83,84
 688 198 688 198 683 198 c 0,85,86
 622 207 622 207 547 217 c 0,87,88
 534 219 534 219 525.5 229.5 c 128,-1,89
 517 240 517 240 518.5 253 c 128,-1,90
 520 266 520 266 530.5 274 c 128,-1,91
 541 282 541 282 554 281 c 0,92,93
 606 275 606 275 647 271 c 0,94,95
 648 271 648 271 649 272 c 128,-1,96
 650 273 650 273 649 274 c 0,97,98
 636 302 636 302 587 412 c 0,99,100
 585 416 585 416 580 415 c 0,101,102
 468 401 468 401 326 401 c 0,103,104
 250 401 250 401 167 405 c 0,105,106
 152 405 152 405 141 416 c 128,-1,107
 130 427 130 427 130 442 c 2,108,-1
 129 447 l 2,109,110
 129 461 129 461 139 470.5 c 128,-1,111
 149 480 149 480 163 479 c 0,112,113
 258 472 258 472 344 472 c 0,114,115
 453 472 453 472 550 484 c 0,116,117
 554 484 554 484 552 488 c 2,118,-1
 518 567 l 1,119,-1
 497 615 l 2,120,121
 496 620 496 620 491 619 c 0,122,123
 413 612 413 612 332 612 c 0,124,125
 254 612 254 612 175 618 c 0,126,127
 159 620 159 620 148.5 631 c 128,-1,128
 138 642 138 642 137 657 c 2,129,-1
 137 661 l 2,130,131
 136 675 136 675 146 684.5 c 128,-1,132
 156 694 156 694 169 693 c 0,133,134
 264 684 264 684 350 684 c 0,135,136
 408 684 408 684 461 688 c 0,137,138
 466 688 466 688 464 692 c 0,139,140
 462 698 462 698 458 706.5 c 128,-1,141
 454 715 454 715 453 718 c 0,142,143
 441 744 441 744 433 760 c 0,144,145
 426 771 426 771 431.5 783 c 128,-1,146
 437 795 437 795 450 797 c 2,147,-1
 472 802 l 2,148,149
 487 805 487 805 500 797 c 128,-1,150
 513 789 513 789 518 775 c 0,151,152
 530 738 530 738 544 702 c 0,153,154
 546 697 546 697 550 698 c 0,155,156
 624 707 624 707 688 727 c 0,157,158
 702 731 702 731 714 724 c 128,-1,159
 726 717 726 717 729 703 c 2,160,-1
 729 699 l 2,161,162
 732 685 732 685 724.5 672 c 128,-1,163
 717 659 717 659 702 655 c 0,164,165
 645 639 645 639 578 629 c 0,166,167
 573 629 573 629 575 625 c 2,168,-1
 591 587 l 2,169,170
 594 581 594 581 601 565 c 128,-1,171
 608 549 608 549 615.5 532.5 c 128,-1,172
 623 516 623 516 630 500 c 0,173,174
 632 496 632 496 636 496 c 0,175,176
 716 511 716 511 786 534 c 0,64,65
EndSplineSet
Ligature2: "'ccmp' Glyph Composition/Decomposition lookup 5 subtable" cid01465 cid01539
EndChar

StartChar: cid01468
Encoding: 12368 12368 2
Width: 1024
GlyphClass: 3
Flags: W
LayerCount: 2
Fore
SplineSet
693.2265625 469.182617188 m 0,0,1
 650.466796875 555.194335938 650.466796875 555.194335938 636.630859375 569.133789062 c 0,2,3
 629.466796875 577.194335938 629.466796875 577.194335938 635.6328125 594.755859375 c 0,4,5
 641.466796875 609.194335938 641.466796875 609.194335938 656.6328125 617.346679688 c 0,6,7
 672.466796875 626.194335938 672.466796875 626.194335938 687.439453125 626.630859375 c 0,8,9
 703.466796875 626.194335938 703.466796875 626.194335938 711.029296875 615.689453125 c 0,10,11
 713.466796875 612.194335938 713.466796875 612.194335938 768.875 515.732421875 c 0,12,13
 775.466796875 504.194335938 775.466796875 504.194335938 767.973632812 489.204101562 c 0,14,15
 761.466796875 474.194335938 761.466796875 474.194335938 745 465 c 0,16,17
 728.466796875 455.194335938 728.466796875 455.194335938 713.578125 456.786132812 c 0,18,19
 699.466796875 459.194335938 699.466796875 459.194335938 693.2265625 469.182617188 c 0,0,1
827.879882812 579.659179688 m 4,20,21
 822 589 822 589 827.466796875 602.694335938 c 4,22,23
 832 616 832 616 844.966796875 624.194335938 c 4,24,25
 864 636 864 636 880.784179688 635.817382812 c 4,26,27
 897 635 897 635 903.203125 624.903320312 c 4,28,29
 924 591 924 591 960.783203125 524.805664062 c 4,30,31
 968 512 968 512 958.291015625 496.93359375 c 4,32,33
 949 482 949 482 934.966796875 473.694335938 c 4,34,35
 920 465 920 465 906.466796875 465.194335938 c 4,36,37
 892 465 892 465 885.340820312 478.833984375 c 4,38,39
 850 544 850 544 827.879882812 579.659179688 c 4,20,21
608 792 m 0,40,41
 617 803 617 803 631 805 c 0,42,43
 633 805 633 805 635 805 c 0,44,45
 647 805 647 805 656 797 c 2,46,-1
 679 776 l 2,47,48
 689 767 689 767 689 753 c 128,-1,49
 689 739 689 739 678 730 c 0,50,51
 670 724 670 724 655.5 712 c 128,-1,52
 641 700 641 700 636 695 c 0,53,54
 605 668 605 668 552.5 625 c 128,-1,55
 500 582 500 582 433.5 528 c 128,-1,56
 367 474 367 474 346 457 c 0,57,58
 300 417 300 417 300 396 c 128,-1,59
 300 375 300 375 349 334 c 0,60,61
 573 155 573 155 703 31 c 0,62,63
 713 21 713 21 713 7 c 0,64,65
 713 -8 713 -8 702 -18 c 2,66,-1
 682 -36 l 2,67,68
 671 -46 671 -46 658 -46 c 0,69,70
 657 -46 657 -46 656 -45 c 0,71,72
 642 -45 642 -45 632 -34 c 0,73,74
 627 -30 627 -30 610.5 -13 c 128,-1,75
 594 4 594 4 586 13 c 0,76,77
 514 90 514 90 266 295 c 0,78,79
 218 335 218 335 205 367 c 0,80,81
 199 381 199 381 199 394 c 0,82,83
 199 412 199 412 208 428 c 0,84,85
 225 457 225 457 272 498 c 0,86,87
 289 511 289 511 362 570.5 c 128,-1,88
 435 630 435 630 488 675.5 c 128,-1,89
 541 721 541 721 571 753 c 0,90,91
 591 772 591 772 608 792 c 0,40,41
EndSplineSet
Ligature2: "'ccmp' Glyph Composition/Decomposition lookup 5 subtable" cid01467 cid01539
EndChar

StartChar: cid01470
Encoding: 12370 12370 3
Width: 1024
GlyphClass: 3
Flags: W
LayerCount: 2
Fore
SplineSet
796 814 m 4,0,1
 802 807 802 807 796 789 c 4,2,3
 791 775 791 775 779 762.5 c 132,-1,4
 767 750 767 750 752 748 c 4,5,6
 735 745 735 745 729.5 753 c 4,7,8
 721 765 721 765 670 816 c 4,9,10
 663 823 663 823 668 839 c 4,11,12
 671 848 671 848 691 869 c 4,13,14
 706 885 706 885 716 883 c 4,15,16
 727 881 727 881 730 878 c 4,17,18
 752 865 752 865 796 814 c 4,0,1
887 819 m 4,19,20
 880 824 880 824 881 828 c 4,21,22
 882 834 882 834 884 840 c 4,23,24
 891 859 891 859 904 869 c 4,25,26
 909 873 909 873 916 877 c 4,27,28
 923 882 923 882 932 884 c 4,29,30
 948 887 948 887 957 880 c 4,31,-1
 1014 818 l 4,32,33
 1018 814 1018 814 1019 808 c 260,34,35
 1019 798 1019 798 1017 794 c 4,36,37
 1009 769 1009 769 1001 763.5 c 132,-1,38
 993 758 993 758 988 754 c 4,39,40
 986 752 986 752 969 749 c 4,41,42
 954 746 954 746 946 756 c 4,43,44
 899 810 899 810 887 819 c 4,19,20
156 727 m 0,45,46
 157 742 157 742 168 751.5 c 128,-1,47
 179 761 179 761 193 759 c 2,48,-1
 218 757 l 2,49,50
 231 756 231 756 239 744.5 c 128,-1,51
 247 733 247 733 243 720 c 0,52,53
 238 700 238 700 236 688 c 0,54,55
 190 486 190 486 190 332 c 0,56,57
 190 242 190 242 206 168 c 0,58,59
 206 167 206 167 207 167 c 128,-1,60
 208 167 208 167 208 168 c 0,61,62
 242 267 242 267 251 293 c 0,63,64
 255 302 255 302 264.5 305.5 c 128,-1,65
 274 309 274 309 283 304 c 0,66,67
 292 298 292 298 296 287 c 128,-1,68
 300 276 300 276 297 265 c 0,69,70
 254 138 254 138 240 66 c 0,71,72
 234 41 234 41 234 26 c 0,73,74
 234 6 234 6 226 -4 c 0,75,76
 217 -16 217 -16 202 -18 c 256,77,78
 187 -20 187 -20 174 -11.5 c 128,-1,79
 161 -3 161 -3 157 12 c 0,80,81
 114 168 114 168 114 299 c 0,82,83
 114 346 114 346 116.5 392.5 c 128,-1,84
 119 439 119 439 124.5 488 c 128,-1,85
 130 537 130 537 133.5 564 c 128,-1,86
 137 591 137 591 144.5 641 c 128,-1,87
 152 691 152 691 153 696 c 0,88,89
 155 710 155 710 156 727 c 0,45,46
664 672 m 0,90,91
 662 686 662 686 670.5 696.5 c 128,-1,92
 679 707 679 707 693 707 c 2,93,-1
 718 707 l 2,94,95
 732 707 732 707 741.5 696.5 c 128,-1,96
 751 686 751 686 750 672 c 0,97,98
 750 661 750 661 750 648 c 0,99,100
 750 646 750 646 750 642 c 0,101,102
 752 620 752 620 752 564 c 0,103,104
 752 559 752 559 756 559 c 0,105,106
 854 568 854 568 894 577 c 0,107,108
 907 580 907 580 918 571.5 c 128,-1,109
 929 563 929 563 929 549 c 2,110,-1
 929 535 l 2,111,112
 929 520 929 520 919 508 c 0,113,114
 907 493 907 493 894 494 c 0,115,116
 822 498 822 498 757 482 c 0,117,118
 753 481 753 481 753 477 c 2,119,-1
 753 453 l 2,120,121
 753 405 753 405 752.5 380 c 128,-1,122
 752 355 752 355 750.5 314 c 128,-1,123
 749 273 749 273 745.5 249.5 c 128,-1,124
 742 226 742 226 736 191 c 128,-1,125
 730 156 730 156 720.5 134 c 128,-1,126
 711 112 711 112 697 83.5 c 128,-1,127
 683 55 683 55 665 33.5 c 128,-1,128
 647 12 647 12 622.5 -11 c 0,129,130
 590 -41 590 -41 568 -55 c 0,131,132
 555 -63 555 -63 541 -63 c 0,133,134
 540 -63 540 -63 538 -63 c 0,135,136
 522.542372881 -62.0338983051 522.542372881 -62.0338983051 510 -52 c 2,137,-1
 490 -36 l 2,138,139
 480 -28 480 -28 481.5 -17 c 0,140,141
 483 -5 483 -5 494 1 c 0,142,143
 528 20 528 20 561 49 c 0,144,145
 593 77 593 77 614.5 110 c 128,-1,146
 636 143 636 143 648 174.5 c 128,-1,147
 660 206 660 206 666 255 c 128,-1,148
 672 304 672 304 673.5 344 c 128,-1,149
 675 384 675 384 675 453 c 2,150,-1
 675 473 l 2,151,152
 675 477 675 477 670 477 c 0,153,154
 597 475 597 475 559 475 c 0,155,156
 506 475 506 475 431 479 c 0,157,158
 416 480 416 480 405.5 491 c 128,-1,159
 395 502 395 502 395 517 c 2,160,-1
 395 528 l 2,161,162
 395 542 395 542 405.5 551 c 128,-1,163
 416 560 416 560 430 559 c 0,164,165
 508 551 508 551 558 552 c 0,166,167
 654 554 654 554 669 554 c 0,168,169
 674 554 674 554 674 558 c 0,170,171
 669 644 669 644 668 648 c 0,172,173
 666 660 666 660 664 672 c 0,90,91
EndSplineSet
Ligature2: "'ccmp' Glyph Composition/Decomposition lookup 5 subtable" cid01469 cid01539
EndChar

StartChar: cid01472
Encoding: 12372 12372 4
Width: 1024
GlyphClass: 3
Flags: W
LayerCount: 2
Fore
SplineSet
748.759765625 728.98828125 m 4,0,1
 724 781 724 781 696.1640625 811.939453125 c 4,2,3
 689 820 689 820 695.166015625 837.561523438 c 4,4,5
 701 852 701 852 716.166992188 860.151367188 c 4,6,7
 732 869 732 869 746.97265625 869.435546875 c 4,8,9
 763 869 763 869 770.5625 858.495117188 c 4,10,11
 791 834 791 834 824.408203125 775.538085938 c 4,12,13
 831 764 831 764 823.506835938 749.009765625 c 4,14,15
 817 734 817 734 800.533203125 724.805664062 c 4,16,17
 784 715 784 715 769.111328125 716.591796875 c 4,18,19
 754 719 754 719 748.759765625 728.98828125 c 4,0,1
887.413085938 822.46484375 m 0,20,21
 882 832 882 832 887 845.5 c 128,-1,22
 892 859 892 859 904.5 867 c 0,23,24
 924 879 924 879 940.317382812 878.623046875 c 0,25,26
 955 878 955 878 962.736328125 867.708984375 c 0,27,28
 984 838 984 838 1016.31640625 784.611328125 c 0,29,30
 1024 772 1024 772 1013.82421875 756.739257812 c 0,31,32
 1005 742 1005 742 990.5 733.5 c 128,-1,33
 976 725 976 725 962 725 c 0,34,35
 950 725 950 725 940.874023438 738.639648438 c 0,36,37
 910 783 910 783 887.413085938 822.46484375 c 0,20,21
260 620 m 0,38,39
 245 621 245 621 234.5 632 c 128,-1,40
 224 643 224 643 224 658 c 2,41,-1
 224 671 l 2,42,43
 224 685 224 685 234.5 694.5 c 128,-1,44
 245 704 245 704 259 703 c 0,45,46
 357 693 357 693 493 693 c 0,47,48
 602 693 602 693 731 704 c 0,49,50
 732 704 732 704 734 704 c 0,51,52
 746 704 746 704 755 696 c 0,53,54
 766 686 766 686 766 672 c 2,55,-1
 766 659 l 2,56,57
 766 644 766 644 755.5 633 c 128,-1,58
 745 622 745 622 730 621 c 0,59,60
 589 611 589 611 493 611 c 0,61,62
 370 611 370 611 260 620 c 0,38,39
175 271 m 0,63,64
 178 286 178 286 191 294 c 0,65,66
 202 302 202 302 214 302 c 0,67,68
 216 302 216 302 219 302 c 2,69,-1
 231 300 l 2,70,71
 245 299 245 299 252.5 287.5 c 128,-1,72
 260 276 260 276 257 263 c 0,73,74
 246 219 246 219 246 182 c 0,75,76
 246 123 246 123 307 87.5 c 128,-1,77
 368 52 368 52 485 52 c 0,78,79
 671 52 671 52 798 82 c 0,80,81
 811 85 811 85 822 77 c 128,-1,82
 833 69 833 69 833 56 c 2,83,-1
 833 40 l 2,84,85
 833 24 833 24 823.5 11.5 c 128,-1,86
 814 -1 814 -1 799 -4 c 0,87,88
 671 -32 671 -32 487 -32 c 0,89,90
 332 -32 332 -32 247 18.5 c 128,-1,91
 162 69 162 69 162 164 c 0,92,93
 162 211 162 211 175 271 c 0,63,64
EndSplineSet
Ligature2: "'ccmp' Glyph Composition/Decomposition lookup 5 subtable" cid01471 cid01539
EndChar

StartChar: cid01474
Encoding: 12374 12374 5
Width: 1024
GlyphClass: 3
Flags: W
LayerCount: 2
Fore
SplineSet
758.759765625 721.98828125 m 0,0,1
 727 787 727 787 703.1640625 812.939453125 c 0,2,3
 696 821 696 821 702.166015625 838.561523438 c 0,4,5
 708 853 708 853 723.166992188 861.151367188 c 0,6,7
 739 870 739 870 753.97265625 870.435546875 c 0,8,9
 770 870 770 870 777.5625 859.495117188 c 0,10,11
 804 822 804 822 834.408203125 768.538085938 c 0,12,13
 841 757 841 757 833.506835938 742.009765625 c 0,14,15
 827 727 827 727 810.533203125 717.805664062 c 0,16,17
 794 708 794 708 779.111328125 709.591796875 c 0,18,19
 764 712 764 712 758.759765625 721.98828125 c 0,0,1
886.413085938 822.46484375 m 0,20,21
 881 832 881 832 886 845.5 c 128,-1,22
 891 859 891 859 903.5 867 c 0,23,24
 923 879 923 879 939.317382812 878.623046875 c 0,25,26
 956 878 956 878 961.736328125 867.708984375 c 0,27,28
 990 822 990 822 1018.31640625 776.611328125 c 0,29,30
 1026 764 1026 764 1015.82421875 748.739257812 c 0,31,32
 1007 734 1007 734 992.5 725.5 c 128,-1,33
 978 717 978 717 964 717 c 0,34,35
 952 717 952 717 942.874023438 730.639648438 c 0,36,37
 900 797 900 797 886.413085938 822.46484375 c 0,20,21
202 285 m 0,38,39
 205 300 205 300 218 309 c 128,-1,40
 231 318 231 318 246 316 c 2,41,-1
 259 315 l 2,42,43
 272 314 272 314 279 303 c 128,-1,44
 286 292 286 292 282 279 c 0,45,46
 265 222 265 222 265 184 c 0,47,48
 265 42 265 42 477 42 c 0,49,50
 607 42 607 42 709 62 c 0,51,52
 722 65 722 65 732.5 56.5 c 128,-1,53
 743 48 743 48 743 34 c 2,54,-1
 743 20 l 2,55,56
 743 5 743 5 733 -7 c 128,-1,57
 723 -19 723 -19 707 -21 c 0,58,59
 602 -39 602 -39 476 -39 c 0,60,61
 336 -39 336 -39 259.5 14.5 c 128,-1,62
 183 68 183 68 183 164 c 0,63,64
 183 214 183 214 202 285 c 0,38,39
817 687 m 0,65,66
 831 691 831 691 843 683.5 c 128,-1,67
 855 676 855 676 858 662 c 2,68,-1
 860 651 l 2,69,70
 860 648 860 648 860 644 c 0,71,72
 860 633 860 633 854 624 c 0,73,74
 846 611 846 611 832 608 c 0,75,76
 748 587 748 587 679 575 c 0,77,78
 675 574 675 574 677 570 c 0,79,80
 742 426 742 426 796 321 c 0,81,82
 802 308 802 308 800 292.5 c 128,-1,83
 798 277 798 277 787 266 c 0,84,85
 769 247 769 247 743 247 c 0,86,87
 737 247 737 247 730 248 c 0,88,89
 663 259 663 259 587 268 c 0,90,91
 574 269 574 269 565 280 c 128,-1,92
 556 291 556 291 558 305 c 256,93,94
 560 319 560 319 571 327.5 c 128,-1,95
 582 336 582 336 596 335 c 0,96,97
 613 333 613 333 650.5 329 c 128,-1,98
 688 325 688 325 701 324 c 0,99,100
 703 324 703 324 703.5 325 c 128,-1,101
 704 326 704 326 704 328 c 0,102,103
 700 336 700 336 657.5 426.5 c 128,-1,104
 615 517 615 517 597 558 c 0,105,106
 595 562 595 562 591 562 c 0,107,108
 492 550 492 550 381 550 c 0,109,110
 294 550 294 550 199 557 c 0,111,112
 184 558 184 558 173.5 569 c 128,-1,113
 163 580 163 580 163 596 c 2,114,-1
 162 607 l 2,115,116
 162 620 162 620 172 629.5 c 128,-1,117
 182 639 182 639 196 638 c 0,118,119
 294 627 294 627 390 627 c 0,120,121
 475 627 475 627 559 635 c 0,122,123
 563 636 563 636 561 640 c 2,124,-1
 529 711 l 2,125,126
 512 748 512 748 504 765 c 0,127,128
 498 776 498 776 503.5 788 c 128,-1,129
 509 800 509 800 521 802 c 2,130,-1
 543 806 l 2,131,132
 547 807 547 807 551 807 c 0,133,134
 561 807 561 807 571 802 c 0,135,136
 584 794 584 794 590 780 c 0,137,138
 610 726 610 726 641 650 c 0,139,140
 643 646 643 646 648 647 c 0,141,142
 736 663 736 663 817 687 c 0,65,66
EndSplineSet
Ligature2: "'ccmp' Glyph Composition/Decomposition lookup 5 subtable" cid01473 cid01539
EndChar

StartChar: cid01476
Encoding: 12376 12376 6
Width: 1024
GlyphClass: 3
Flags: W
LayerCount: 2
Fore
SplineSet
587.2265625 544.182617188 m 4,0,1
 544.466796875 630.194335938 544.466796875 630.194335938 530.630859375 644.133789062 c 4,2,3
 523.466796875 652.194335938 523.466796875 652.194335938 529.6328125 669.755859375 c 4,4,5
 535.466796875 684.194335938 535.466796875 684.194335938 550.6328125 692.346679688 c 4,6,7
 566.466796875 701.194335938 566.466796875 701.194335938 581.439453125 701.630859375 c 4,8,9
 597.466796875 701.194335938 597.466796875 701.194335938 605.029296875 690.689453125 c 4,10,11
 607.466796875 687.194335938 607.466796875 687.194335938 662.875 590.732421875 c 4,12,13
 669.466796875 579.194335938 669.466796875 579.194335938 661.973632812 564.204101562 c 4,14,15
 655.466796875 549.194335938 655.466796875 549.194335938 639 540 c 4,16,17
 622.466796875 530.194335938 622.466796875 530.194335938 607.578125 531.786132812 c 4,18,19
 593.466796875 534.194335938 593.466796875 534.194335938 587.2265625 544.182617188 c 4,0,1
734.879882812 654.659179688 m 4,20,21
 729 664 729 664 734.466796875 677.694335938 c 4,22,23
 739 691 739 691 751.966796875 699.194335938 c 4,24,25
 771 711 771 711 787.784179688 710.817382812 c 4,26,27
 804 710 804 710 810.203125 699.903320312 c 4,28,29
 831 666 831 666 867.783203125 599.805664062 c 4,30,31
 875 587 875 587 865.291015625 571.93359375 c 4,32,33
 856 557 856 557 841.966796875 548.694335938 c 4,34,35
 827 540 827 540 813.466796875 540.194335938 c 4,36,37
 799 540 799 540 792.340820312 553.833984375 c 4,38,39
 757 619 757 619 734.879882812 654.659179688 c 4,20,21
238 754 m 0,40,41
 236 768 236 768 245 778.5 c 128,-1,42
 254 789 254 789 268 789 c 2,43,-1
 300 789 l 2,44,45
 314 789 314 789 323.5 778 c 128,-1,46
 333 767 333 767 331 753 c 0,47,48
 328 723 328 723 326 687 c 0,49,50
 313 343 313 343 313 180 c 0,51,52
 313 102 313 102 358.5 66.5 c 128,-1,53
 404 31 404 31 480 31 c 0,54,55
 596 31 596 31 678.5 80 c 128,-1,56
 761 129 761 129 823 212 c 0,57,58
 831 223 831 223 844.5 223 c 128,-1,59
 858 223 858 223 866 213 c 2,60,-1
 878 198 l 2,61,62
 888 185 888 185 888 169 c 0,63,64
 888 154 888 154 879 142 c 0,65,66
 722 -53 722 -53 477 -53 c 0,67,68
 231 -53 231 -53 231 173 c 0,69,70
 231 254 231 254 236.5 446.5 c 128,-1,71
 242 639 242 639 242 687 c 0,72,73
 242 723 242 723 238 754 c 0,40,41
EndSplineSet
Ligature2: "'ccmp' Glyph Composition/Decomposition lookup 5 subtable" cid01475 cid01539
EndChar

StartChar: cid01478
Encoding: 12378 12378 7
Width: 1024
GlyphClass: 3
Flags: W
LayerCount: 2
Fore
SplineSet
744.759765625 710.98828125 m 0,0,1
 702 797 702 797 688.1640625 810.939453125 c 0,2,3
 681 819 681 819 687.166015625 836.561523438 c 0,4,5
 693 851 693 851 708.166992188 859.151367188 c 0,6,7
 724 868 724 868 738.97265625 868.435546875 c 0,8,9
 755 868 755 868 762.5625 857.495117188 c 0,10,11
 765 854 765 854 820.408203125 757.538085938 c 0,12,13
 827 746 827 746 819.506835938 731.009765625 c 0,14,15
 813 716 813 716 796.533203125 706.805664062 c 0,16,17
 780 697 780 697 765.111328125 698.591796875 c 0,18,19
 751 701 751 701 744.759765625 710.98828125 c 0,0,1
882.413085938 821.46484375 m 4,20,21
 877 831 877 831 882 844.5 c 132,-1,22
 887 858 887 858 899.5 866 c 4,23,24
 919 878 919 878 935.317382812 877.623046875 c 4,25,26
 952 877 952 877 957.736328125 866.708984375 c 4,27,28
 976 831 976 831 1015.31640625 766.611328125 c 4,29,30
 1023 754 1023 754 1012.82421875 738.739257812 c 4,31,32
 1004 724 1004 724 989.5 715.5 c 132,-1,33
 975 707 975 707 961 707 c 132,-1,34
 947 707 947 707 939.874023438 720.639648438 c 4,35,36
 903 785 903 785 882.413085938 821.46484375 c 4,20,21
462 228 m 0,37,38
 508 228 508 228 533 264 c 0,39,40
 553 293 553 293 553 342 c 0,41,42
 553 355 553 355 551 368 c 0,43,44
 551 373 551 373 549 377 c 0,45,46
 525 435 525 435 462 435 c 0,47,48
 420 435 420 435 389.5 405.5 c 128,-1,49
 359 376 359 376 359 329 c 0,50,51
 359 283 359 283 389 255.5 c 128,-1,52
 419 228 419 228 462 228 c 0,37,38
606 672 m 0,53,54
 606 668 606 668 611 668 c 2,55,-1
 621 668 l 2,56,-1
 876 667 l 0,57,58
 891 667 891 667 901 656.5 c 128,-1,59
 911 646 911 646 911 631 c 2,60,-1
 911 625 l 2,61,62
 911 611 911 611 900.5 601 c 128,-1,63
 890 591 890 591 875 591 c 0,64,65
 781 595 781 595 620 595 c 2,66,-1
 611 595 l 2,67,68
 606 595 606 595 606 590 c 0,69,70
 608 521 608 521 608 433 c 0,71,72
 608 428 608 428 610 424 c 0,73,74
 640 371 640 371 640 299 c 0,75,76
 640 247 640 247 627 199.5 c 128,-1,77
 614 152 614 152 585 104.5 c 128,-1,78
 556 57 556 57 501.5 17 c 128,-1,79
 447 -23 447 -23 372 -50 c 0,80,81
 361 -54 361 -54 352 -54 c 0,82,83
 330 -54 330 -54 313 -37 c 2,84,-1
 294 -18 l 2,85,86
 285 -9 285 -9 288.5 1.5 c 0,87,88
 292 13 292 13 303 16 c 0,89,90
 534 81 534 81 534 178 c 0,91,92
 534 179 534 179 533.5 179.5 c 128,-1,93
 533 180 533 180 532 180 c 0,94,95
 498 157 498 157 450 157 c 0,96,97
 382 157 382 157 332.5 203 c 128,-1,98
 283 249 283 249 283 328 c 0,99,100
 283 402 283 402 336 453.5 c 128,-1,101
 389 505 389 505 462 505 c 0,102,103
 485 505 485 505 525 495 c 0,104,105
 529.044077135 493.988980716 529.044077135 493.988980716 529 498 c 2,106,-1
 528 589 l 2,107,108
 528 594 528 594 524 594 c 0,109,110
 290 592 290 592 111 579 c 0,111,112
 97 578 97 578 86 587.5 c 0,113,114
 74 598 74 598 74 612 c 2,115,-1
 74 621 l 2,116,117
 74 636 74 636 84 646.5 c 128,-1,118
 94 657 94 657 108.5 657 c 128,-1,119
 123 657 123 657 282.5 661 c 0,120,121
 522 667 522 667 523 667 c 0,122,123
 527 667 527 667 527 671 c 0,124,125
 527 681 527 681 526.5 695 c 128,-1,126
 526 709 526 709 526 718 c 128,-1,127
 526 727 526 727 525 733 c 0,128,129
 525 746 525 746 523 762 c 0,130,131
 522 776 522 776 531 786.5 c 128,-1,132
 540 797 540 797 554 797 c 2,133,-1
 577 797 l 2,134,135
 591 797 591 797 600.5 786.5 c 128,-1,136
 610 776 610 776 609 761 c 0,137,138
 607 742 607 742 607 733 c 0,139,140
 607 727 607 727 606.5 706 c 128,-1,141
 606 685 606 685 606 672 c 0,53,54
EndSplineSet
Ligature2: "'ccmp' Glyph Composition/Decomposition lookup 5 subtable" cid01477 cid01539
EndChar

StartChar: cid01480
Encoding: 12380 12380 8
Width: 1024
GlyphClass: 3
Flags: W
LayerCount: 2
Fore
SplineSet
759 806 m 0,0,1
 765 799 765 799 759 781 c 0,2,3
 754 767 754 767 742 754.5 c 128,-1,4
 730 742 730 742 715 740 c 0,5,6
 698 737 698 737 692.5 745 c 0,7,8
 684 757 684 757 633 808 c 0,9,10
 626 815 626 815 631 831 c 0,11,12
 634 840 634 840 654 861 c 0,13,14
 669 877 669 877 679 875 c 0,15,16
 690 873 690 873 693 870 c 0,17,18
 715 857 715 857 759 806 c 0,0,1
850 811 m 0,19,20
 843 816 843 816 844 820 c 0,21,22
 845 826 845 826 847 832 c 0,23,24
 854 851 854 851 867 861 c 0,25,26
 872 865 872 865 879 869 c 0,27,28
 886 874 886 874 895 876 c 0,29,30
 911 879 911 879 920 872 c 0,31,-1
 977 810 l 0,32,33
 981 806 981 806 982 800 c 256,34,35
 982 790 982 790 980 786 c 0,36,37
 972 761 972 761 964 755.5 c 128,-1,38
 956 750 956 750 951 746 c 0,39,40
 949 744 949 744 932 741 c 0,41,42
 917 738 917 738 909 748 c 0,43,44
 862 802 862 802 850 811 c 0,19,20
653 677 m 4,45,46
 652 691 652 691 661.5 701.5 c 132,-1,47
 671 712 671 712 685 712 c 6,48,-1
 701 712 l 6,49,50
 715 712 715 712 724.5 701.5 c 132,-1,51
 734 691 734 691 733 677 c 4,52,53
 732 658 732 658 731 638 c 4,54,55
 731 623 731 623 730.5 599.5 c 4,56,-1
 730 557 l 0,57,-1
 735 557 l 0,58,59
 750 557 750 557 841 564 c 0,60,61
 867 566 867 566 885 567 c 0,62,63
 900 568 900 568 910.5 558 c 128,-1,64
 921 548 921 548 921 534 c 2,65,-1
 921 524 l 2,66,67
 921 509 921 509 910.5 499 c 128,-1,68
 900 489 900 489 885 489 c 0,69,70
 883 489 883 489 865.5 488.5 c 128,-1,71
 848 488 848 488 841 488 c 0,72,73
 739 485 739 485 733 484 c 0,74,75
 728 483 728 483 728 479 c 0,76,77
 724 326 724 326 713 270 c 0,78,79
 706 237 706 237 688 224.5 c 128,-1,80
 670 212 670 212 635 212 c 0,81,82
 604 212 604 212 536 221 c 0,83,84
 521 223 521 223 511 235 c 0,85,86
 502 246 502 246 502 262 c 2,87,-1
 502 264 l 2,88,89
 502 277 502 277 513 285.5 c 128,-1,90
 524 294 524 294 538 292 c 0,91,92
 578 286 578 286 604 286 c 0,93,94
 624 286 624 286 632 291 c 128,-1,95
 640 296 640 296 642 312 c 0,96,97
 653 389 653 389 653 473 c 0,98,99
 653 477 653 477 649 477 c 0,100,101
 356 453 356 453 334 448 c 0,102,103
 330 447 330 447 330 443 c 0,104,105
 329 341 329 341 329 281 c 0,106,107
 329 218 329 218 330 199 c 0,108,109
 330 177 330 177 330.5 167.5 c 128,-1,110
 331 158 331 158 332.5 141.5 c 128,-1,111
 334 125 334 125 336.5 118 c 128,-1,112
 339 111 339 111 343.5 99.5 c 128,-1,113
 348 88 348 88 354.5 83.5 c 128,-1,114
 361 79 361 79 371 72 c 128,-1,115
 381 65 381 65 394 62.5 c 128,-1,116
 407 60 407 60 424 56.5 c 128,-1,117
 441 53 441 53 462 52 c 128,-1,118
 483 51 483 51 510 51 c 0,119,120
 650 51 650 51 776 69 c 0,121,122
 790 71 790 71 800 62 c 0,123,124
 810.874285714 52.1142857143 810.874285714 52.1142857143 810 39 c 2,125,-1
 809 24 l 2,126,127
 808 8 808 8 798.5 -2.5 c 0,128,129
 788 -14 788 -14 773 -15 c 0,130,131
 636 -29 636 -29 514 -29 c 0,132,133
 455 -29 455 -29 413.5 -24.5 c 128,-1,134
 372 -20 372 -20 343 -8 c 128,-1,135
 314 4 314 4 297 18.5 c 128,-1,136
 280 33 280 33 270 60 c 128,-1,137
 260 87 260 87 256.5 114.5 c 128,-1,138
 253 142 253 142 252 187 c 0,139,140
 251 230 251 230 251 435 c 0,141,142
 251 439.533980583 251 439.533980583 246 439 c 2,143,-1
 143 428 l 2,144,145
 114 424 114 424 75 419 c 0,146,147
 61 417 61 417 49.5 426 c 0,148,149
 37 436 37 436 36 449 c 2,150,-1
 35 462 l 2,151,152
 34 477 34 477 43.5 487.5 c 128,-1,153
 53 498 53 498 67 498 c 0,154,155
 100 500 100 500 137 503 c 0,156,157
 150 504 150 504 186.5 507.5 c 0,158,159
 244 513 244 513 246 513 c 0,160,161
 250.963235294 513 250.963235294 513 251 518 c 2,162,-1
 252 654 l 2,163,164
 252 664 252 664 250 704 c 0,165,166
 249 718 249 718 258 728.5 c 128,-1,167
 267 739 267 739 281 739 c 2,168,-1
 299 739 l 2,169,170
 314 739 314 739 323.5 728.5 c 0,171,172
 339 710 339 710 333 704 c 0,173,174
 332.353846154 703.353846154 332.353846154 703.353846154 332 657 c 2,175,-1
 331 526 l 2,176,177
 331 521 331 521 335 522 c 0,178,179
 643 551 643 551 650 551 c 0,180,181
 654 551 654 551 654 555 c 2,182,-1
 654 636 l 6,183,184
 654 655 654 655 653 677 c 4,45,46
EndSplineSet
Ligature2: "'ccmp' Glyph Composition/Decomposition lookup 5 subtable" cid01479 cid01539
EndChar

StartChar: cid01482
Encoding: 12382 12382 9
Width: 1024
GlyphClass: 3
Flags: W
LayerCount: 2
Fore
SplineSet
747.592773438 513.836914062 m 4,0,1
 717 576 717 576 694.997070312 599.788085938 c 4,2,3
 687 609 687 609 693.999023438 625.41015625 c 4,4,5
 700 640 700 640 715 648 c 4,6,7
 731 657 731 657 745.805664062 657.284179688 c 4,8,9
 767 657 767 657 769.395507812 654.34375 c 0,10,11
 814 585 814 585 823.241210938 568.38671875 c 0,12,13
 831 554 831 554 822.33984375 533.858398438 c 4,14,15
 816 519 816 519 799.366210938 509.654296875 c 4,16,17
 782 499 782 499 767.944335938 501.440429688 c 4,18,19
 752 504 752 504 747.592773438 513.836914062 c 4,0,1
880.24609375 610.313476562 m 4,20,21
 875 620 875 620 879.833007812 633.348632812 c 4,22,23
 885 647 885 647 897.333007812 654.848632812 c 4,24,25
 917 667 917 667 933.150390625 666.471679688 c 4,26,27
 950 666 950 666 955.5 656 c 132,-1,28
 961 646 961 646 1009.14941406 569.459960938 c 4,29,30
 1017 557 1017 557 1006.65722656 541.587890625 c 4,31,32
 998 527 998 527 983.333007812 518.348632812 c 4,33,34
 969 510 969 510 954.833007812 509.848632812 c 4,35,36
 942 510 942 510 933.70703125 523.48828125 c 4,37,38
 890 592 890 592 880.24609375 610.313476562 c 4,20,21
279 682 m 0,39,40
 265 681 265 681 254 690.5 c 128,-1,41
 243 700 243 700 242 714 c 2,42,-1
 241 727 l 2,43,44
 241 741 241 741 251 751 c 128,-1,45
 261 761 261 761 275 760 c 0,46,47
 286 759 286 759 298 759 c 0,48,49
 309 759 309 759 321 760 c 0,50,51
 361 760 361 760 476.5 765 c 128,-1,52
 592 770 592 770 632 775 c 0,53,54
 642 776 642 776 653 778 c 0,55,56
 659 779 659 779 666 779 c 0,57,58
 693 779 693 779 711 759 c 2,59,-1
 716 753 l 2,60,61
 725 742 725 742 723 728.5 c 128,-1,62
 721 715 721 715 710 707 c 0,63,64
 694 696 694 696 685 688 c 0,65,66
 423 472 423 472 385 442 c 0,67,68
 385 441 385 441 385 440.5 c 128,-1,69
 385 440 385 440 386 440 c 0,70,71
 644 467 644 467 827 470 c 0,72,73
 841 470 841 470 851.5 459.5 c 128,-1,74
 862 449 862 449 863 435 c 2,75,-1
 863 429 l 2,76,77
 863 414 863 414 852.5 404 c 128,-1,78
 842 394 842 394 828 395 c 0,79,80
 784 396 784 396 746 396 c 0,81,82
 661 396 661 396 606 388 c 0,83,84
 530 378 530 378 471 321.5 c 128,-1,85
 412 265 412 265 412 197 c 0,86,87
 412 71 412 71 586 48 c 0,88,89
 631 42 631 42 677 42 c 0,90,91
 686 42 686 42 696 42 c 0,92,93
 709 42 709 42 718 32 c 128,-1,94
 727 22 727 22 724 9 c 2,95,-1
 722 -4 l 2,96,97
 719 -19 719 -19 707 -29.5 c 128,-1,98
 695 -40 695 -40 679 -40 c 0,99,100
 676 -40 676 -40 672 -40 c 0,101,102
 508 -40 508 -40 420 16 c 0,103,104
 331 74 331 74 331 184 c 0,105,106
 331 242 331 242 366 293.5 c 128,-1,107
 401 345 401 345 446 372 c 0,108,109
 446 373 446 373 446 373.5 c 128,-1,110
 446 374 446 374 445 374 c 0,111,112
 288 361 288 361 120 335 c 0,113,114
 106 333 106 333 94.5 342 c 128,-1,115
 83 351 83 351 82 365 c 2,116,-1
 81 372 l 2,117,118
 80 387 80 387 89 398.5 c 128,-1,119
 98 410 98 410 113 411 c 0,120,121
 133 413 133 413 156.5 416 c 128,-1,122
 180 419 180 419 207 422.5 c 128,-1,123
 234 426 234 426 247 427 c 0,124,125
 252 428 252 428 256 431 c 0,126,127
 382 518 382 518 582 698 c 0,128,129
 583 699 583 699 582.5 700 c 128,-1,130
 582 701 582 701 581 701 c 0,131,132
 573 701 573 701 460 694 c 128,-1,133
 347 687 347 687 322 685 c 0,134,135
 320 685 320 685 279 682 c 0,39,40
EndSplineSet
Ligature2: "'ccmp' Glyph Composition/Decomposition lookup 5 subtable" cid01481 cid01539
EndChar

StartChar: cid01484
Encoding: 12384 12384 10
Width: 1024
GlyphClass: 3
Flags: W
LayerCount: 2
Fore
SplineSet
743.759765625 666.98828125 m 4,0,1
 701 753 701 753 687.1640625 766.939453125 c 4,2,3
 680 775 680 775 686.166015625 792.561523438 c 4,4,5
 692 807 692 807 707.166992188 815.151367188 c 4,6,7
 723 824 723 824 737.97265625 824.435546875 c 4,8,9
 754 824 754 824 761.5625 813.495117188 c 4,10,11
 764 810 764 810 819.408203125 713.538085938 c 4,12,13
 826 702 826 702 818.506835938 687.009765625 c 4,14,15
 812 672 812 672 795.533203125 662.805664062 c 4,16,17
 779 653 779 653 764.111328125 654.591796875 c 4,18,19
 750 657 750 657 743.759765625 666.98828125 c 4,0,1
883.413085938 777.46484375 m 4,20,21
 878 787 878 787 883 800.5 c 132,-1,22
 888 814 888 814 900.5 822 c 4,23,24
 920 834 920 834 936.317382812 833.623046875 c 4,25,26
 953 833 953 833 958.736328125 822.708984375 c 4,27,28
 977 787 977 787 1016.31640625 722.611328125 c 4,29,30
 1024 710 1024 710 1013.82421875 694.739257812 c 4,31,32
 1005 680 1005 680 990.5 671.5 c 132,-1,33
 976 663 976 663 962 663 c 132,-1,34
 948 663 948 663 940.874023438 676.639648438 c 4,35,36
 904 741 904 741 883.413085938 777.46484375 c 4,20,21
555 407 m 0,37,38
 540 406 540 406 529.5 415.5 c 128,-1,39
 519 425 519 425 519 439 c 2,40,-1
 519 445 l 2,41,42
 519 460 519 460 529.5 471 c 128,-1,43
 540 482 540 482 555 483 c 0,44,45
 638 488 638 488 705 488 c 0,46,47
 783 488 783 488 844 484 c 0,48,49
 859 482 859 482 869 471 c 128,-1,50
 879 460 879 460 879 445 c 2,51,-1
 879 438 l 2,52,53
 878 424 878 424 867.5 414.5 c 128,-1,54
 857 405 857 405 842 406 c 0,55,56
 769 414 769 414 707 414 c 0,57,58
 627 414 627 414 555 407 c 0,37,38
550 661 m 0,59,60
 563 664 563 664 574 656 c 128,-1,61
 585 648 585 648 585 634 c 2,62,-1
 585 623 l 2,63,64
 585 608 585 608 575 596 c 128,-1,65
 565 584 565 584 550 581 c 0,66,67
 461 563 461 563 379 554 c 0,68,69
 375 554 375 554 374 549 c 0,70,71
 363 496 363 496 343 419 c 0,72,73
 317 316 317 316 276.5 193 c 128,-1,74
 236 70 236 70 199 -13 c 0,75,76
 193 -27 193 -27 179 -33 c 0,77,78
 171 -36 171 -36 163 -36 c 0,79,80
 157 -36 157 -36 151 -34 c 2,81,-1
 128 -26 l 2,82,83
 115 -22 115 -22 110 -9 c 128,-1,84
 105 4 105 4 111 16 c 0,85,86
 151 95 151 95 194 214.5 c 128,-1,87
 237 334 237 334 264 438 c 0,88,89
 273 472 273 472 289 541 c 0,90,91
 290 546 290 546 285 546 c 0,92,93
 239 543 239 543 198 543 c 0,94,95
 150 543 150 543 115 544 c 0,96,97
 100 545 100 545 89.5 556 c 128,-1,98
 79 567 79 567 79 582 c 2,99,-1
 78 591 l 2,100,101
 78 605 78 605 88 614.5 c 128,-1,102
 98 624 98 624 112 623 c 0,103,104
 150 620 150 620 199 620 c 0,105,106
 230 620 230 620 303 623 c 0,107,108
 307 624 307 624 308 628 c 0,109,110
 316 671 316 671 323 713 c 0,111,112
 325 738 325 738 326 760 c 0,113,114
 327 774 327 774 337 784 c 0,115,116
 346 793 346 793 358 793 c 0,117,118
 360 793 360 793 361 793 c 2,119,-1
 390 790 l 2,120,121
 403 789 403 789 411 778 c 128,-1,122
 419 767 419 767 416 753 c 0,123,124
 414 743 414 743 410.5 726 c 128,-1,125
 407 709 407 709 407 708 c 2,126,-1
 392 637 l 2,127,128
 392 636 392 636 393 634.5 c 128,-1,129
 394 633 394 633 396 633 c 0,130,131
 477 644 477 644 550 661 c 0,59,60
461 206 m 0,132,133
 464 221 464 221 476 230 c 128,-1,134
 488 239 488 239 503 237 c 2,135,-1
 509 237 l 2,136,137
 523 235 523 235 531 224 c 128,-1,138
 539 213 539 213 537 199 c 0,139,140
 530 167 530 167 530 141 c 0,141,142
 530 121 530 121 536.5 106.5 c 128,-1,143
 543 92 543 92 559.5 77.5 c 128,-1,144
 576 63 576 63 611 55.5 c 128,-1,145
 646 48 646 48 697 48 c 0,146,147
 778 48 778 48 860 61 c 0,148,149
 874 63 874 63 884 54.5 c 128,-1,150
 894 46 894 46 894 32 c 2,151,-1
 893 20 l 2,152,153
 893 5 893 5 882.5 -6.5 c 128,-1,154
 872 -18 872 -18 857 -20 c 0,155,156
 770 -30 770 -30 696 -30 c 0,157,158
 453 -30 453 -30 453 121 c 0,159,160
 453 158 453 158 461 206 c 0,132,133
EndSplineSet
Ligature2: "'ccmp' Glyph Composition/Decomposition lookup 5 subtable" cid01483 cid01539
EndChar

StartChar: cid01486
Encoding: 12386 12386 11
Width: 1024
GlyphClass: 3
Flags: W
LayerCount: 2
Fore
SplineSet
740.759765625 710.98828125 m 0,0,1
 698 797 698 797 684.1640625 810.939453125 c 0,2,3
 677 819 677 819 683.166015625 836.561523438 c 0,4,5
 689 851 689 851 704.166992188 859.151367188 c 0,6,7
 720 868 720 868 734.97265625 868.435546875 c 0,8,9
 751 868 751 868 758.5625 857.495117188 c 0,10,11
 761 854 761 854 816.408203125 757.538085938 c 0,12,13
 823 746 823 746 815.506835938 731.009765625 c 0,14,15
 809 716 809 716 792.533203125 706.805664062 c 0,16,17
 776 697 776 697 761.111328125 698.591796875 c 0,18,19
 747 701 747 701 740.759765625 710.98828125 c 0,0,1
881.413085938 821.46484375 m 4,20,21
 876 831 876 831 881 844.5 c 132,-1,22
 886 858 886 858 898.5 866 c 4,23,24
 918 878 918 878 934.317382812 877.623046875 c 4,25,26
 951 877 951 877 956.736328125 866.708984375 c 4,27,28
 975 831 975 831 1014.31640625 766.611328125 c 4,29,30
 1022 754 1022 754 1011.82421875 738.739257812 c 4,31,32
 1003 724 1003 724 988.5 715.5 c 132,-1,33
 974 707 974 707 960 707 c 132,-1,34
 946 707 946 707 938.874023438 720.639648438 c 4,35,36
 902 785 902 785 881.413085938 821.46484375 c 4,20,21
725 675 m 0,37,38
 739 677 739 677 749.5 668.5 c 128,-1,39
 760 660 760 660 760 646 c 2,40,-1
 760 639 l 2,41,42
 761 623 761 623 751 611.5 c 128,-1,43
 741 600 741 600 726 597 c 0,44,45
 548 568 548 568 360 560 c 0,46,47
 355 560 355 560 354 556 c 0,48,49
 320 405 320 405 295 336 c 0,50,51
 295 335 295 335 296 334.5 c 0,52,-1
 297 334 l 1,53,54
 362 380 362 380 428 400 c 128,-1,55
 494 420 494 420 579 420 c 0,56,57
 698 420 698 420 766.5 364.5 c 128,-1,58
 835 309 835 309 835 218 c 0,59,60
 835 119 835 119 772 55.5 c 128,-1,61
 709 -8 709 -8 601 -31 c 0,62,63
 531 -47 531 -47 443 -47 c 0,64,65
 397 -47 397 -47 347 -42 c 0,66,67
 331 -41 331 -41 318.5 -30.5 c 128,-1,68
 306 -20 306 -20 302 -5 c 2,69,-1
 298 8 l 2,70,71
 295 20 295 20 303 29.5 c 128,-1,72
 311 39 311 39 324 38 c 0,73,74
 376 31 376 31 425 31 c 0,75,76
 455 31 455 31 484 33 c 0,77,78
 561 40 561 40 620 59 c 128,-1,79
 679 78 679 78 715 118.5 c 128,-1,80
 751 159 751 159 751 216 c 0,81,82
 751 275 751 275 703.5 312 c 128,-1,83
 656 349 656 349 570 349 c 0,84,85
 477 349 477 349 398 318 c 128,-1,86
 319 287 319 287 270 228 c 0,87,88
 263 219 263 219 257 212 c 0,89,90
 248 199 248 199 233.5 193.5 c 128,-1,91
 219 188 219 188 205 194 c 2,92,-1
 197 197 l 2,93,94
 184 202 184 202 178.5 215 c 128,-1,95
 173 228 173 228 179 241 c 0,96,97
 234 363 234 363 278 555 c 0,98,99
 279 559 279 559 274 559 c 0,100,101
 203 559 203 559 123 565 c 0,102,103
 108 567 108 567 98 578 c 128,-1,104
 88 589 88 589 88 604 c 2,105,-1
 87 614 l 2,106,107
 87 628 87 628 97.5 637 c 128,-1,108
 108 646 108 646 122 644 c 0,109,110
 208 632 208 632 279 632 c 2,111,-1
 288 632 l 2,112,113
 293 632 293 632 294 636 c 0,114,115
 302 679 302 679 305 709 c 0,116,117
 309 735 309 735 310 757 c 0,118,119
 311 772 311 772 321.5 781.5 c 128,-1,120
 332 791 332 791 346 791 c 2,121,-1
 367 789 l 2,122,123
 381 789 381 789 389 777.5 c 128,-1,124
 397 766 397 766 394 753 c 0,125,126
 394 752 394 752 384 702 c 0,127,128
 384 701 384 701 372 638 c 0,129,130
 371 634 371 634 375 634 c 0,131,132
 562 642 562 642 725 675 c 0,37,38
EndSplineSet
Ligature2: "'ccmp' Glyph Composition/Decomposition lookup 5 subtable" cid01485 cid01539
EndChar

StartChar: cid01489
Encoding: 12389 12389 12
Width: 1024
GlyphClass: 3
Flags: W
LayerCount: 2
Fore
SplineSet
722.759765625 696.98828125 m 4,0,1
 680 783 680 783 666.1640625 796.939453125 c 4,2,3
 659 805 659 805 665.166015625 822.561523438 c 4,4,5
 671 837 671 837 686.166992188 845.151367188 c 4,6,7
 702 854 702 854 716.97265625 854.435546875 c 4,8,9
 733 854 733 854 740.5625 843.495117188 c 4,10,11
 743 840 743 840 798.408203125 743.538085938 c 4,12,13
 805 732 805 732 797.506835938 717.009765625 c 4,14,15
 791 702 791 702 774.533203125 692.805664062 c 4,16,17
 758 683 758 683 743.111328125 684.591796875 c 4,18,19
 729 687 729 687 722.759765625 696.98828125 c 4,0,1
882.413085938 807.46484375 m 4,20,21
 877 817 877 817 882 830.5 c 132,-1,22
 887 844 887 844 899.5 852 c 4,23,24
 919 864 919 864 935.317382812 863.623046875 c 4,25,26
 952 863 952 863 957.736328125 852.708984375 c 4,27,28
 976 817 976 817 1015.31640625 752.611328125 c 4,29,30
 1023 740 1023 740 1012.82421875 724.739257812 c 4,31,32
 1004 710 1004 710 989.5 701.5 c 132,-1,33
 975 693 975 693 961 693 c 132,-1,34
 947 693 947 693 939.874023438 706.639648438 c 4,35,36
 903 771 903 771 882.413085938 807.46484375 c 4,20,21
135 440 m 0,37,38
 122 434 122 434 108 439.5 c 128,-1,39
 94 445 94 445 89 459 c 2,40,-1
 78 484 l 2,41,42
 76 490 76 490 76 496 c 0,43,44
 76 503 76 503 79 509 c 0,45,46
 86 521 86 521 99 525 c 0,47,48
 135 533 135 533 176 547 c 0,49,50
 186 550 186 550 237.5 567 c 128,-1,51
 289 584 289 584 325 594.5 c 128,-1,52
 361 605 361 605 415 619 c 128,-1,53
 469 633 469 633 518 640 c 128,-1,54
 567 647 567 647 609 647 c 0,55,56
 740 647 740 647 825.5 575 c 128,-1,57
 911 503 911 503 911 379 c 0,58,59
 911 294 911 294 872 226 c 128,-1,60
 833 158 833 158 762 112.5 c 128,-1,61
 691 67 691 67 598 40 c 128,-1,62
 505 13 505 13 392 3 c 0,63,64
 390 3 390 3 388 3 c 0,65,66
 374 3 374 3 362 11 c 0,67,68
 349 19 349 19 343 34 c 2,69,-1
 334 53 l 2,70,71
 329 65 329 65 336 76 c 128,-1,72
 343 87 343 87 356 87 c 0,73,74
 454 93 454 93 535.5 111.5 c 128,-1,75
 617 130 617 130 682.5 164 c 128,-1,76
 748 198 748 198 785 253 c 128,-1,77
 822 308 822 308 822 380 c 0,78,79
 822 463 822 463 764.5 516.5 c 128,-1,80
 707 570 707 570 607 570 c 0,81,82
 453 570 453 570 135 440 c 0,37,38
EndSplineSet
Ligature2: "'ccmp' Glyph Composition/Decomposition lookup 5 subtable" cid01488 cid01539
EndChar

StartChar: cid01491
Encoding: 12391 12391 13
Width: 1024
GlyphClass: 3
Flags: W
LayerCount: 2
Fore
SplineSet
697.259765625 365.98828125 m 4,0,1
 654.5 452 654.5 452 640.6640625 465.939453125 c 4,2,3
 633.5 474 633.5 474 639.666015625 491.561523438 c 4,4,5
 645.5 506 645.5 506 660.666992188 514.151367188 c 4,6,7
 676.5 523 676.5 523 691.47265625 523.435546875 c 4,8,9
 707.5 523 707.5 523 715.0625 512.495117188 c 4,10,11
 717.5 509 717.5 509 772.908203125 412.538085938 c 4,12,13
 779.5 401 779.5 401 772.006835938 386.009765625 c 4,14,15
 765.5 371 765.5 371 749.033203125 361.805664062 c 4,16,17
 732.5 352 732.5 352 717.611328125 353.591796875 c 4,18,19
 703.5 356 703.5 356 697.259765625 365.98828125 c 4,0,1
833.913085938 476.46484375 m 4,20,21
 828.5 486 828.5 486 833.5 499.5 c 132,-1,22
 838.5 513 838.5 513 851 521 c 4,23,24
 870.5 533 870.5 533 886.817382812 532.623046875 c 4,25,26
 903.5 532 903.5 532 909.236328125 521.708984375 c 4,27,28
 927.5 486 927.5 486 966.81640625 421.611328125 c 4,29,30
 974.5 409 974.5 409 964.32421875 393.739257812 c 4,31,32
 955.5 379 955.5 379 941 370.5 c 132,-1,33
 926.5 362 926.5 362 912.5 362 c 132,-1,34
 898.5 362 898.5 362 891.374023438 375.639648438 c 4,35,36
 854.5 440 854.5 440 833.913085938 476.46484375 c 4,20,21
129 590 m 0,37,38
 115 588 115 588 103.5 596.5 c 128,-1,39
 92 605 92 605 91 619 c 2,40,-1
 89 638 l 2,41,42
 87 653 87 653 96.5 663.5 c 128,-1,43
 106 674 106 674 120 675 c 0,44,45
 153 677 153 677 175 679 c 0,46,47
 606 719 606 719 620 720 c 0,48,49
 735 730 735 730 857 736 c 0,50,51
 858 736 858 736 859 736 c 0,52,53
 873 736 873 736 882 726 c 0,54,55
 893 716 893 716 893 702 c 2,56,-1
 893 691 l 2,57,58
 893 676 893 676 882.5 665.5 c 128,-1,59
 872 655 872 655 857 655 c 0,60,61
 744 654 744 654 694 639 c 0,62,63
 625 617 625 617 571 562.5 c 128,-1,64
 517 508 517 508 490 444 c 128,-1,65
 463 380 463 380 463 318 c 0,66,67
 463 265 463 265 481 222 c 128,-1,68
 499 179 499 179 528.5 150 c 128,-1,69
 558 121 558 121 599.5 100.5 c 128,-1,70
 641 80 641 80 684.5 69.5 c 128,-1,71
 728 59 728 59 777 54 c 0,72,73
 790 53 790 53 797.5 42 c 128,-1,74
 805 31 805 31 800 19 c 2,75,-1
 794 0 l 2,76,77
 789 -15 789 -15 776 -24 c 0,78,79
 765 -31 765 -31 752 -31 c 0,80,81
 749 -31 749 -31 747 -31 c 0,82,83
 692 -25 692 -25 640.5 -10 c 128,-1,84
 589 5 589 5 541.5 33 c 128,-1,85
 494 61 494 61 458.5 98 c 128,-1,86
 423 135 423 135 402 187.5 c 128,-1,87
 381 240 381 240 381 301 c 0,88,89
 381 411 381 411 435.5 502.5 c 128,-1,90
 490 594 490 594 566 641 c 1,91,-1
 566 642 l 0,92,93
 566 643 566 643 565 642.5 c 128,-1,94
 564 642 564 642 454.5 630.5 c 128,-1,95
 345 619 345 619 264.5 609 c 128,-1,96
 184 599 184 599 129 590 c 0,37,38
EndSplineSet
Ligature2: "'ccmp' Glyph Composition/Decomposition lookup 5 subtable" cid01490 cid01539
EndChar

StartChar: cid01493
Encoding: 12393 12393 14
Width: 1024
GlyphClass: 3
Flags: W
LayerCount: 2
Fore
SplineSet
722.759765625 702.98828125 m 4,0,1
 680 789 680 789 666.1640625 802.939453125 c 4,2,3
 659 811 659 811 665.166015625 828.561523438 c 4,4,5
 671 843 671 843 686.166992188 851.151367188 c 4,6,7
 702 860 702 860 716.97265625 860.435546875 c 4,8,9
 733 860 733 860 740.5625 849.495117188 c 4,10,11
 743 846 743 846 798.408203125 749.538085938 c 4,12,13
 805 738 805 738 797.506835938 723.009765625 c 4,14,15
 791 708 791 708 774.533203125 698.805664062 c 4,16,17
 758 689 758 689 743.111328125 690.591796875 c 4,18,19
 729 693 729 693 722.759765625 702.98828125 c 4,0,1
882.413085938 813.46484375 m 4,20,21
 877 823 877 823 882 836.5 c 132,-1,22
 887 850 887 850 899.5 858 c 4,23,24
 919 870 919 870 935.317382812 869.623046875 c 4,25,26
 952 869 952 869 957.736328125 858.708984375 c 4,27,28
 976 823 976 823 1015.31640625 758.611328125 c 4,29,30
 1023 746 1023 746 1012.82421875 730.739257812 c 4,31,32
 1004 716 1004 716 989.5 707.5 c 132,-1,33
 975 699 975 699 961 699 c 132,-1,34
 947 699 947 699 939.874023438 712.639648438 c 4,35,36
 903 777 903 777 882.413085938 813.46484375 c 4,20,21
696 636 m 0,37,38
 707 644 707 644 720.5 641 c 128,-1,39
 734 638 734 638 741 626 c 2,40,-1
 748 614 l 2,41,42
 755 601 755 601 751 586.5 c 128,-1,43
 747 572 747 572 735 564 c 0,44,45
 716 554 716 554 688 540 c 0,46,47
 685 538 685 538 616.5 503.5 c 128,-1,48
 548 469 548 469 500 442.5 c 128,-1,49
 452 416 452 416 408 386 c 0,50,51
 257 286 257 286 257 181 c 0,52,53
 257 117 257 117 318 81 c 128,-1,54
 379 45 379 45 497 45 c 0,55,56
 653 45 653 45 787 72 c 0,57,58
 800 75 800 75 810.5 66.5 c 128,-1,59
 821 58 821 58 821 44 c 2,60,-1
 821 23 l 2,61,62
 820 8 820 8 810 -4 c 128,-1,63
 800 -16 800 -16 785 -18 c 0,64,65
 653 -37 653 -37 500 -37 c 0,66,67
 426 -37 426 -37 368 -25.5 c 128,-1,68
 310 -14 310 -14 265 10.5 c 128,-1,69
 220 35 220 35 195.5 76 c 128,-1,70
 171 117 171 117 171 172 c 0,71,72
 171 313 171 313 342 434 c 0,73,74
 346 436 346 436 344 440 c 0,75,76
 294 531 294 531 214 714 c 0,77,78
 208 727 208 727 213.5 741 c 128,-1,79
 219 755 219 755 232 760 c 2,80,-1
 248 767 l 2,81,82
 261 772 261 772 274.5 766.5 c 128,-1,83
 288 761 288 761 293 747 c 0,84,85
 345 609 345 609 414 484 c 0,86,87
 416 480 416 480 420 483 c 0,88,89
 472 514 472 514 560 560.5 c 128,-1,90
 648 607 648 607 652 609 c 0,91,92
 680 626 680 626 696 636 c 0,37,38
EndSplineSet
Ligature2: "'ccmp' Glyph Composition/Decomposition lookup 5 subtable" cid01492 cid01539
EndChar

StartChar: cid01500
Encoding: 12400 12400 15
Width: 1024
GlyphClass: 3
Flags: W
LayerCount: 2
Fore
SplineSet
795 809 m 4,0,1
 801 802 801 802 795 784 c 4,2,3
 790 770 790 770 778 757.5 c 132,-1,4
 766 745 766 745 751 743 c 4,5,6
 735.633789062 740.288085938 735.633789062 740.288085938 728.5 748 c 4,7,8
 693 791 693 791 669 811 c 4,9,10
 662 818 662 818 667 834 c 4,11,12
 670 843 670 843 690 864 c 4,13,14
 705 880 705 880 715 878 c 4,15,16
 726 876 726 876 729 873 c 4,17,18
 754 852 754 852 795 809 c 4,0,1
148 741 m 0,19,20
 149 755 149 755 160 764.5 c 128,-1,21
 171 774 171 774 185 773 c 2,22,-1
 204 771 l 2,23,24
 218 770 218 770 225.5 758.5 c 128,-1,25
 233 747 233 747 230 734 c 0,26,27
 227 723 227 723 222 700 c 0,28,29
 205 620 205 620 188.5 495.5 c 128,-1,30
 172 371 172 371 172 292 c 0,31,32
 172 218 172 218 181 157 c 0,33,34
 181 156 181 156 181.5 156 c 128,-1,35
 182 156 182 156 183 157 c 0,36,37
 203 214 203 214 228 275 c 0,38,39
 232 284 232 284 242 287 c 128,-1,40
 252 290 252 290 260 283 c 0,41,42
 275 271 275 271 275 255 c 0,43,44
 275 248 275 248 272 240 c 0,45,46
 221 97 221 97 210 42 c 0,47,48
 205 19 205 19 205 3 c 0,49,50
 205 0 205 0 205 -2 c 0,51,52
 206 -17 206 -17 196.5 -28.5 c 128,-1,53
 187 -40 187 -40 172 -41 c 2,54,-1
 171 -41 l 2,55,56
 169 -41 169 -41 167 -41 c 0,57,58
 153 -41 153 -41 142 -33 c 0,59,60
 130 -25 130 -25 126 -10 c 0,61,62
 96 120 96 120 96 278 c 0,63,64
 96 305 96 305 98 336.5 c 128,-1,65
 100 368 100 368 102 394.5 c 128,-1,66
 104 421 104 421 108 457 c 128,-1,67
 112 493 112 493 114.5 514.5 c 128,-1,68
 117 536 117 536 122.5 572.5 c 128,-1,69
 128 609 128 609 130 622 c 128,-1,70
 132 635 132 635 137.5 668.5 c 128,-1,71
 143 702 143 702 143 703 c 0,72,73
 146 726 146 726 148 741 c 0,19,20
667 146 m 0,74,75
 667 165 667 165 666 177 c 0,76,77
 666 181 666 181 661 183 c 0,78,79
 614 197 614 197 562 197 c 0,80,81
 506 197 506 197 470 174 c 128,-1,82
 434 151 434 151 434 116 c 0,83,84
 434 79 434 79 467.5 58 c 128,-1,85
 501 37 501 37 556 37 c 0,86,87
 617 37 617 37 642 64.5 c 128,-1,88
 667 92 667 92 667 146 c 0,74,75
869 607 m 0,89,90
 883 609 883 609 893.5 600.5 c 128,-1,91
 904 592 904 592 904 578 c 2,92,-1
 904 569 l 2,93,94
 904 554 904 554 894 542 c 128,-1,95
 884 530 884 530 869 528 c 0,96,97
 775 516 775 516 736 516 c 0,98,99
 730 516 730 516 731 512 c 0,100,101
 743 467 743 467 743 233 c 0,102,103
 743 228 743 228 748 227 c 0,104,105
 803 204 803 204 916 119 c 0,106,107
 928 110 928 110 930 94 c 0,108,109
 932 80 932 80 924 67 c 2,110,-1
 919 59 l 2,111,112
 912 48 912 48 897 46 c 0,113,114
 883 44 883 44 873 54 c 0,115,116
 800 119 800 119 750 144 c 0,117,118
 746 146 746 146 746 142 c 2,119,-1
 746 127 l 2,120,121
 746 93 746 93 737.5 65 c 128,-1,122
 729 37 729 37 710 13 c 128,-1,123
 691 -11 691 -11 655.5 -25 c 128,-1,124
 620 -39 620 -39 570 -39 c 0,125,126
 469 -39 469 -39 414 0 c 128,-1,127
 359 39 359 39 359 109 c 0,128,129
 359 175 359 175 415.5 218.5 c 128,-1,130
 472 262 472 262 568 262 c 0,131,132
 617 262 617 262 658 254 c 0,133,134
 663 253 663 253 662 258 c 0,135,136
 652 502 652 502 652 507 c 256,137,138
 652 512 652 512 648 512 c 0,139,140
 587 510 587 510 555 510 c 0,141,142
 497 510 497 510 421 515 c 0,143,144
 406 516 406 516 395.5 527 c 128,-1,145
 385 538 385 538 385 553 c 2,146,-1
 385 558 l 2,147,148
 385 573 385 573 395.5 582.5 c 128,-1,149
 406 592 406 592 420 590 c 0,150,151
 503 584 503 584 557 585 c 0,152,153
 589 586 589 586 648 587 c 0,154,155
 652 587 652 587 652 591 c 2,156,-1
 652 640 l 2,157,158
 652 651 652 651 651 667 c 0,159,160
 650 681 650 681 660 691.5 c 128,-1,161
 670 702 670 702 684 702 c 2,162,-1
 705 702 l 2,163,164
 719 702 719 702 728 691.5 c 128,-1,165
 737 681 737 681 736 667 c 0,166,167
 735 654 735 654 734 641 c 0,168,-1
 731 592 l 0,169,-1
 736 592 l 0,170,171
 798 597 798 597 869 607 c 0,89,90
886 814 m 4,172,173
 879 819 879 819 880 823 c 4,174,175
 881 829 881 829 883 835 c 4,176,177
 890 854 890 854 903 864 c 4,178,179
 908 868 908 868 915 872 c 4,180,181
 922 877 922 877 931 879 c 4,182,183
 947 882 947 882 956 875 c 4,184,-1
 1013 813 l 4,185,186
 1017 809 1017 809 1018 803 c 260,187,188
 1018 793 1018 793 1016 789 c 4,189,190
 1008 764 1008 764 1000 758.5 c 132,-1,191
 992 753 992 753 987 749 c 4,192,193
 985 747 985 747 968 744 c 4,194,195
 953 741 953 741 945 751 c 4,196,197
 907 799 907 799 886 814 c 4,172,173
EndSplineSet
Ligature2: "'ccmp' Glyph Composition/Decomposition lookup 5 subtable" cid01499 cid01539
EndChar

StartChar: cid01501
Encoding: 12401 12401 16
Width: 1024
GlyphClass: 3
Flags: W
LayerCount: 2
Fore
SplineSet
667 146 m 0,0,1
 667 165 667 165 666 177 c 0,2,3
 666 181 666 181 661 183 c 0,4,5
 614 197 614 197 562 197 c 0,6,7
 506 197 506 197 470 174 c 128,-1,8
 434 151 434 151 434 116 c 0,9,10
 434 79 434 79 467.5 58 c 128,-1,11
 501 37 501 37 556 37 c 0,12,13
 617 37 617 37 642 64.5 c 128,-1,14
 667 92 667 92 667 146 c 0,0,1
148 741 m 0,15,16
 149 755 149 755 160 764.5 c 128,-1,17
 171 774 171 774 185 773 c 2,18,-1
 204 771 l 2,19,20
 218 770 218 770 225.5 758.5 c 128,-1,21
 233 747 233 747 230 734 c 0,22,23
 227 723 227 723 222 700 c 0,24,25
 205 620 205 620 188.5 495.5 c 128,-1,26
 172 371 172 371 172 292 c 0,27,28
 172 218 172 218 181 157 c 0,29,30
 181 156 181 156 181.5 156 c 128,-1,31
 182 156 182 156 183 157 c 0,32,33
 203 214 203 214 228 275 c 0,34,35
 232 284 232 284 242 287 c 128,-1,36
 252 290 252 290 260 283 c 0,37,38
 275 271 275 271 275 255 c 0,39,40
 275 248 275 248 272 240 c 0,41,42
 221 97 221 97 210 42 c 0,43,44
 205 19 205 19 205 3 c 0,45,46
 205 0 205 0 205 -2 c 0,47,48
 206 -17 206 -17 196.5 -28.5 c 128,-1,49
 187 -40 187 -40 172 -41 c 2,50,-1
 171 -41 l 2,51,52
 169 -41 169 -41 167 -41 c 0,53,54
 153 -41 153 -41 142 -33 c 0,55,56
 130 -25 130 -25 126 -10 c 0,57,58
 96 120 96 120 96 278 c 0,59,60
 96 305 96 305 98 336.5 c 128,-1,61
 100 368 100 368 102 394.5 c 128,-1,62
 104 421 104 421 108 457 c 128,-1,63
 112 493 112 493 114.5 514.5 c 128,-1,64
 117 536 117 536 122.5 572.5 c 128,-1,65
 128 609 128 609 130 622 c 128,-1,66
 132 635 132 635 137.5 668.5 c 128,-1,67
 143 702 143 702 143 703 c 0,68,69
 146 726 146 726 148 741 c 0,15,16
734 697 m 128,-1,71
 734 656 734 656 762 627 c 128,-1,72
 790 598 790 598 830 598 c 0,73,74
 872 598 872 598 901 627 c 128,-1,75
 930 656 930 656 930 697 c 128,-1,76
 930 738 930 738 901 767 c 128,-1,77
 872 796 872 796 830 796 c 0,78,79
 791 796 791 796 762.5 767 c 128,-1,70
 734 738 734 738 734 697 c 128,-1,71
894.291865769 542.062212123 m 1,80,81
 884.745143964 531.832683716 884.745143964 531.832683716 871 530 c 0,82,83
 764 516 764 516 736 516 c 0,84,85
 730 516 730 516 731 512 c 0,86,87
 743 467 743 467 743 233 c 0,88,89
 743 228 743 228 748 227 c 0,90,91
 803 204 803 204 916 119 c 0,92,93
 928 110 928 110 930 94 c 0,94,95
 932.023255814 79.8372093023 932.023255814 79.8372093023 924 67 c 2,96,-1
 919 59 l 2,97,98
 912 48 912 48 897 46 c 0,99,100
 883 44 883 44 873 54 c 0,101,102
 800 119 800 119 750 144 c 0,103,104
 746 146 746 146 746 142 c 2,105,-1
 746 127 l 2,106,107
 746 93 746 93 737.5 65 c 128,-1,108
 729 37 729 37 710 13 c 128,-1,109
 691 -11 691 -11 655.5 -25 c 128,-1,110
 620 -39 620 -39 570 -39 c 0,111,112
 469 -39 469 -39 414 0 c 128,-1,113
 359 39 359 39 359 109 c 0,114,115
 359 175 359 175 415.5 218.5 c 128,-1,116
 472 262 472 262 568 262 c 0,117,118
 617 262 617 262 658 254 c 0,119,120
 663 253 663 253 662 258 c 0,121,122
 652 502 652 502 652 507 c 128,-1,123
 652 512 652 512 648 512 c 0,124,125
 587 510 587 510 555 510 c 0,126,127
 497 510 497 510 421 515 c 0,128,129
 406 516 406 516 395.5 527 c 128,-1,130
 385 538 385 538 385 553 c 2,131,-1
 385 558 l 2,132,133
 385 573 385 573 395.5 582.5 c 128,-1,134
 406 592 406 592 420 590 c 0,135,136
 503 584 503 584 557 585 c 0,137,138
 621 587 621 587 648 587 c 0,139,140
 651.893333333 587 651.893333333 587 652 591 c 2,141,-1
 654 666 l 2,142,143
 654 667 654 667 653 693 c 0,144,145
 652 707 652 707 662 717.5 c 0,146,147
 664.731999322 720.368599288 664.731999322 720.368599288 667.762551456 722.453497446 c 0,148,149
 675.29327829 775.29327829 675.29327829 775.29327829 715 815 c 0,150,151
 764 864 764 864 830 864 c 0,152,153
 900 864 900 864 949 815 c 128,-1,154
 998 766 998 766 998 697 c 128,-1,155
 998 628 998 628 949 579 c 0,156,157
 924.311484823 554.311484823 924.311484823 554.311484823 894.291865769 542.062212123 c 1,80,81
EndSplineSet
Ligature2: "'ccmp' Glyph Composition/Decomposition lookup 5 subtable" cid01499 cid01540
EndChar

StartChar: cid01503
Encoding: 12403 12403 17
Width: 1024
GlyphClass: 3
Flags: W
LayerCount: 2
Fore
SplineSet
661 681 m 0,0,1
 657 695 657 695 663.5 708 c 128,-1,2
 670 721 670 721 684 725 c 2,3,-1
 695 729 l 2,4,5
 709 733 709 733 721.5 726 c 128,-1,6
 734 719 734 719 737 705 c 0,7,8
 790 491 790 491 921 346 c 0,9,10
 931 335 931 335 931 320.5 c 128,-1,11
 931 306 931 306 921 295 c 2,12,-1
 909 283 l 2,13,14
 900 272 900 272 885.5 273 c 128,-1,15
 871 274 871 274 863 285 c 0,16,17
 807 357 807 357 762 442 c 0,18,19
 762 443 762 443 761 443 c 128,-1,20
 760 443 760 443 760 442 c 0,21,22
 763 411 763 411 763 381 c 0,23,24
 763 336 763 336 757 292 c 0,25,26
 748 219 748 219 721.5 154.5 c 128,-1,27
 695 90 695 90 653.5 42 c 128,-1,28
 612 -6 612 -6 550 -34 c 128,-1,29
 488 -62 488 -62 412 -62 c 0,30,31
 290 -62 290 -62 219 10.5 c 128,-1,32
 148 83 148 83 148 206 c 0,33,34
 148 324 148 324 202 437 c 128,-1,35
 256 550 256 550 328 625 c 0,36,37
 328 626 328 626 327.5 627 c 128,-1,38
 327 628 327 628 326 628 c 0,39,40
 207 609 207 609 164 600 c 0,41,42
 155 598 155 598 142 596 c 0,43,44
 128 593 128 593 116.5 601.5 c 128,-1,45
 105 610 105 610 102 624 c 2,46,-1
 100 640 l 2,47,48
 98 654 98 654 107.5 664.5 c 128,-1,49
 117 675 117 675 131 676 c 0,50,51
 141 677 141 677 150 678 c 0,52,53
 209 683 209 683 297.5 697 c 128,-1,54
 386 711 386 711 441 726 c 0,55,56
 456 730 456 730 469 723 c 128,-1,57
 482 716 482 716 486 703 c 2,58,-1
 488 696 l 2,59,60
 493 682 493 682 486.5 669 c 128,-1,61
 480 656 480 656 466 652 c 0,62,63
 457 649 457 649 451 646 c 0,64,65
 447 644 447 644 443 641 c 0,66,67
 415 620 415 620 380.5 578 c 128,-1,68
 346 536 346 536 311 479.5 c 128,-1,69
 276 423 276 423 252 352.5 c 128,-1,70
 228 282 228 282 228 217 c 0,71,72
 228 119 228 119 281 71 c 128,-1,73
 334 23 334 23 415 23 c 0,74,75
 520 23 520 23 591.5 100 c 128,-1,76
 663 177 663 177 686 315 c 0,77,78
 695 370 695 370 695 434 c 0,79,80
 695 528 695 528 675 641 c 0,81,82
 668 660 668 660 661 681 c 0,0,1
786 804 m 4,83,84
 792 797 792 797 786 779 c 4,85,86
 781 765 781 765 769 752.5 c 132,-1,87
 757 740 757 740 742 738 c 4,88,89
 726.633789062 735.288085938 726.633789062 735.288085938 719.5 743 c 4,90,91
 684 786 684 786 660 806 c 4,92,93
 653 813 653 813 658 829 c 4,94,95
 661 838 661 838 681 859 c 4,96,97
 696 875 696 875 706 873 c 4,98,99
 717 871 717 871 720 868 c 4,100,101
 745 847 745 847 786 804 c 4,83,84
877 809 m 0,102,103
 870 814 870 814 871 818 c 0,104,105
 872 824 872 824 874 830 c 0,106,107
 881 849 881 849 894 859 c 0,108,109
 899 863 899 863 906 867 c 0,110,111
 913 872 913 872 922 874 c 0,112,113
 938 877 938 877 947 870 c 0,114,-1
 1004 808 l 0,115,116
 1008 804 1008 804 1009 798 c 256,117,118
 1009 788 1009 788 1007 784 c 0,119,120
 999 759 999 759 991 753.5 c 128,-1,121
 983 748 983 748 978 744 c 0,122,123
 976 742 976 742 959 739 c 0,124,125
 944 736 944 736 936 746 c 0,126,127
 906 784 906 784 877 809 c 0,102,103
EndSplineSet
Ligature2: "'ccmp' Glyph Composition/Decomposition lookup 5 subtable" cid01502 cid01539
EndChar

StartChar: cid01504
Encoding: 12404 12404 18
Width: 1024
GlyphClass: 3
Flags: W
LayerCount: 2
Fore
SplineSet
661 681 m 0,0,1
 657 695 657 695 663.5 708 c 128,-1,2
 670 721 670 721 684 725 c 2,3,-1
 695 729 l 2,4,5
 698.960654989 730.131615711 698.960654989 730.131615711 702.80125803 730.382850466 c 0,6,7
 715.005687199 762.005687199 715.005687199 762.005687199 741 788 c 0,8,9
 790 837 790 837 856 837 c 0,10,11
 926 837 926 837 975 788 c 128,-1,12
 1024 739 1024 739 1024 670 c 128,-1,13
 1024 601 1024 601 975 552 c 128,-1,14
 926 503 926 503 856 503 c 0,15,16
 831.062502237 503 831.062502237 503 808.814791565 509.589978534 c 1,17,18
 855.01138885 419.040829272 855.01138885 419.040829272 921 346 c 0,19,20
 931 335 931 335 931 320.5 c 128,-1,21
 931 306 931 306 921 295 c 2,22,-1
 909 283 l 2,23,24
 900 272 900 272 885.5 273 c 128,-1,25
 871 274 871 274 863 285 c 0,26,27
 807 357 807 357 762 442 c 0,28,29
 762 443 762 443 761 443 c 128,-1,30
 760 443 760 443 760 442 c 0,31,32
 763 411 763 411 763 381 c 0,33,34
 763 336 763 336 757 292 c 0,35,36
 748 219 748 219 721.5 154.5 c 128,-1,37
 695 90 695 90 653.5 42 c 128,-1,38
 612 -6 612 -6 550 -34 c 128,-1,39
 488 -62 488 -62 412 -62 c 0,40,41
 290 -62 290 -62 219 10.5 c 128,-1,42
 148 83 148 83 148 206 c 0,43,44
 148 324 148 324 202 437 c 128,-1,45
 256 550 256 550 328 625 c 0,46,47
 328 626 328 626 327.5 627 c 128,-1,48
 327 628 327 628 326 628 c 0,49,50
 207 609 207 609 164 600 c 0,51,52
 155 598 155 598 142 596 c 0,53,54
 128 593 128 593 116.5 601.5 c 128,-1,55
 105 610 105 610 102 624 c 2,56,-1
 100 640 l 2,57,58
 98 654 98 654 107.5 664.5 c 128,-1,59
 117 675 117 675 131 676 c 0,60,61
 141 677 141 677 150 678 c 0,62,63
 209 683 209 683 297.5 697 c 128,-1,64
 386 711 386 711 442 726 c 0,65,66
 456 730 456 730 469.5 723 c 128,-1,67
 483 716 483 716 487 702 c 2,68,-1
 489 696 l 2,69,70
 493 682 493 682 486.5 669 c 128,-1,71
 480 656 480 656 466 652 c 0,72,73
 457 649 457 649 451 646 c 0,74,75
 447 644 447 644 443 641 c 0,76,77
 415 620 415 620 380.5 578 c 128,-1,78
 346 536 346 536 311 479.5 c 128,-1,79
 276 423 276 423 252 352.5 c 128,-1,80
 228 282 228 282 228 217 c 0,81,82
 228 119 228 119 281 71 c 128,-1,83
 334 23 334 23 415 23 c 0,84,85
 520 23 520 23 591.5 100 c 128,-1,86
 663 177 663 177 686 315 c 0,87,88
 695 370 695 370 695 434 c 0,89,90
 695 528 695 528 675 641 c 0,91,92
 668 660 668 660 661 681 c 0,0,1
760 670 m 128,-1,94
 760 629 760 629 788 600 c 128,-1,95
 816 571 816 571 856 571 c 0,96,97
 898 571 898 571 927 600 c 128,-1,98
 956 629 956 629 956 670 c 128,-1,99
 956 711 956 711 927 740 c 128,-1,100
 898 769 898 769 856 769 c 0,101,102
 817 769 817 769 788.5 740 c 128,-1,93
 760 711 760 711 760 670 c 128,-1,94
EndSplineSet
Ligature2: "'ccmp' Glyph Composition/Decomposition lookup 5 subtable" cid01502 cid01540
EndChar

StartChar: cid01506
Encoding: 12406 12406 19
Width: 1024
GlyphClass: 3
Flags: W
LayerCount: 2
Fore
SplineSet
753.704101562 555.428710938 m 4,0,1
 711 641 711 641 697.108398438 655.379882812 c 4,2,3
 689 664 689 664 696.110351562 681.001953125 c 4,4,5
 702 695 702 695 717.111328125 703.591796875 c 4,6,7
 735 713 735 713 747.916992188 712.875976562 c 4,8,9
 764 712 764 712 771.506835938 701.935546875 c 4,10,11
 791 672 791 672 829.352539062 601.978515625 c 4,12,13
 836 590 836 590 829.5 575.5 c 132,-1,14
 823 561 823 561 805.477539062 551.24609375 c 4,15,16
 789 541 789 541 774.055664062 543.032226562 c 4,17,18
 760 545 760 545 753.704101562 555.428710938 c 4,0,1
883.357421875 667.905273438 m 4,19,20
 878 677 878 677 882.944335938 690.940429688 c 4,21,22
 888 704 888 704 900.444335938 712.440429688 c 4,23,24
 922 725 922 725 936.26171875 724.063476562 c 4,25,26
 953 723 953 723 958.680664062 713.149414062 c 4,27,28
 980 679 980 679 1016.26074219 613.051757812 c 0,29,30
 1023 601 1023 601 1013.76855469 585.1796875 c 4,31,32
 1005 570 1005 570 990.444335938 561.940429688 c 4,33,34
 976 553 976 553 961.944335938 553.440429688 c 4,35,36
 948 553 948 553 940.818359375 567.080078125 c 4,37,38
 904 631 904 631 883.357421875 667.905273438 c 4,19,20
573 525 m 0,39,40
 561 516 561 516 545.5 517 c 128,-1,41
 530 518 530 518 519 528 c 2,42,-1
 518 529 l 2,43,44
 509 538 509 538 510 551.5 c 128,-1,45
 511 565 511 565 522 573 c 0,46,47
 543 587 543 587 559 600 c 0,48,49
 562 603 562 603 559 606 c 0,50,51
 498 654 498 654 379 707 c 0,52,53
 367 712 367 712 363.5 725 c 128,-1,54
 360 738 360 738 368 749 c 2,55,-1
 372 754 l 2,56,57
 382 766 382 766 397 770 c 0,58,59
 403 771 403 771 409 771 c 0,60,61
 418 771 418 771 427 767 c 0,62,63
 546 714 546 714 621 664 c 0,64,65
 644 649 644 649 654 622 c 0,66,67
 657 613 657 613 657 606 c 0,68,69
 657 589 657 589 642 577 c 0,70,71
 610 552 610 552 573 525 c 0,39,40
344 -23 m 0,72,73
 329 -21 329 -21 317.5 -9.5 c 128,-1,74
 306 2 306 2 304 18 c 2,75,-1
 302 33 l 2,76,77
 300 46 300 46 309.5 54 c 128,-1,78
 319 62 319 62 331 59 c 0,79,80
 392 45 392 45 461 45 c 0,81,82
 503 45 503 45 533 64.5 c 128,-1,83
 563 84 563 84 563 129 c 0,84,85
 563 209 563 209 433 351 c 0,86,87
 408 376 408 376 378 404 c 0,88,89
 367 413 367 413 367.5 427 c 128,-1,90
 368 441 368 441 378 450 c 2,91,-1
 387 457 l 2,92,93
 397 466 397 466 411 466 c 0,94,95
 412 466 412 466 413 466 c 0,96,97
 428 465 428 465 438 455 c 0,98,99
 458 433 458 433 487 401 c 0,100,101
 567 319 567 319 608 252 c 128,-1,102
 649 185 649 185 649 121 c 0,103,104
 649 85 649 85 638 57 c 128,-1,105
 627 29 627 29 609 12.5 c 128,-1,106
 591 -4 591 -4 567 -14.5 c 128,-1,107
 543 -25 543 -25 520.5 -29 c 128,-1,108
 498 -33 498 -33 474 -33 c 0,109,110
 410 -33 410 -33 344 -23 c 0,72,73
945 104 m 0,111,112
 948 96 948 96 948 89 c 256,113,114
 948 82 948 82 945 75 c 0,115,116
 940 61 940 61 926 54 c 2,117,-1
 913 47 l 2,118,119
 901 40 901 40 888 45 c 128,-1,120
 875 50 875 50 871 63 c 0,121,122
 848 128 848 128 810.5 199 c 128,-1,123
 773 270 773 270 734 323 c 0,124,125
 726 333 726 333 728.5 347 c 128,-1,126
 731 361 731 361 743 367 c 2,127,-1
 749 370 l 2,128,129
 759 376 759 376 769 376 c 0,130,131
 773 376 773 376 778 375 c 0,132,133
 793 372 793 372 802 359 c 0,134,135
 842 307 842 307 880.5 236.5 c 128,-1,136
 919 166 919 166 945 104 c 0,111,112
259 263 m 0,137,138
 268 273 268 273 281 273 c 0,139,140
 282 273 282 273 283 273 c 0,141,142
 297 272 297 272 306 261 c 2,143,-1
 311 255 l 2,144,145
 319 244 319 244 319 230 c 0,146,147
 319 214 319 214 308 202 c 0,148,149
 211 109 211 109 104 40 c 0,150,151
 95 34 95 34 84 34 c 0,152,153
 80 34 80 34 77 35 c 0,154,155
 62 38 62 38 53 50 c 2,156,-1
 45 61 l 2,157,158
 39 70 39 70 39 79 c 0,159,160
 39 83 39 83 40 87 c 0,161,162
 43 100 43 100 55 108 c 0,163,164
 170 177 170 177 259 263 c 0,137,138
EndSplineSet
Ligature2: "'ccmp' Glyph Composition/Decomposition lookup 5 subtable" cid01505 cid01539
EndChar

StartChar: cid01507
Encoding: 12407 12407 20
Width: 1024
GlyphClass: 3
Flags: W
LayerCount: 2
Fore
SplineSet
748 591.5 m 132,-1,1
 748 551 748 551 776 522 c 132,-1,2
 804 493 804 493 843 493 c 4,3,4
 885 493 885 493 914 522 c 132,-1,5
 943 551 943 551 943 591.5 c 132,-1,6
 943 632 943 632 914 661 c 132,-1,7
 885 690 885 690 843 690 c 4,8,9
 804 690 804 690 776 661 c 132,-1,0
 748 632 748 632 748 591.5 c 132,-1,1
679 591 m 132,-1,11
 679 660 679 660 728 709 c 132,-1,12
 777 758 777 758 843 758 c 4,13,14
 913 758 913 758 962.5 709 c 132,-1,15
 1012 660 1012 660 1012 591 c 132,-1,16
 1012 522 1012 522 962.5 473.5 c 132,-1,17
 913 425 913 425 843 425 c 4,18,19
 775 425 775 425 727 473.5 c 132,-1,10
 679 522 679 522 679 591 c 132,-1,11
573 525 m 0,20,21
 561 516 561 516 545.5 517 c 128,-1,22
 530 518 530 518 519 528 c 2,23,-1
 518 529 l 2,24,25
 509 538 509 538 510 551.5 c 128,-1,26
 511 565 511 565 522 573 c 0,27,28
 543 587 543 587 559 600 c 0,29,30
 562 603 562 603 559 606 c 0,31,32
 498 654 498 654 379 707 c 0,33,34
 367 712 367 712 363.5 725 c 128,-1,35
 360 738 360 738 368 749 c 2,36,-1
 372 754 l 2,37,38
 382 766 382 766 397 770 c 0,39,40
 403 771 403 771 409 771 c 0,41,42
 418 771 418 771 427 767 c 0,43,44
 546 714 546 714 621 664 c 0,45,46
 644 649 644 649 654 622 c 0,47,48
 657 613 657 613 657 606 c 0,49,50
 657 589 657 589 642 577 c 0,51,52
 610 552 610 552 573 525 c 0,20,21
344 -23 m 0,53,54
 329 -21 329 -21 317.5 -9.5 c 128,-1,55
 306 2 306 2 304 18 c 2,56,-1
 302 33 l 2,57,58
 300 46 300 46 309.5 54 c 128,-1,59
 319 62 319 62 331 59 c 0,60,61
 392 45 392 45 461 45 c 0,62,63
 503 45 503 45 533 64.5 c 128,-1,64
 563 84 563 84 563 129 c 0,65,66
 563 209 563 209 433 351 c 0,67,68
 408 376 408 376 378 404 c 0,69,70
 367 413 367 413 367.5 427 c 128,-1,71
 368 441 368 441 378 450 c 2,72,-1
 387 457 l 2,73,74
 397 466 397 466 411 466 c 0,75,76
 412 466 412 466 413 466 c 0,77,78
 428 465 428 465 438 455 c 0,79,80
 458 433 458 433 487 401 c 0,81,82
 567 319 567 319 608 252 c 128,-1,83
 649 185 649 185 649 121 c 0,84,85
 649 85 649 85 638 57 c 128,-1,86
 627 29 627 29 609 12.5 c 128,-1,87
 591 -4 591 -4 567 -14.5 c 128,-1,88
 543 -25 543 -25 520.5 -29 c 128,-1,89
 498 -33 498 -33 474 -33 c 0,90,91
 410 -33 410 -33 344 -23 c 0,53,54
945 104 m 0,92,93
 948 96 948 96 948 89 c 256,94,95
 948 82 948 82 945 75 c 0,96,97
 940 61 940 61 926 54 c 2,98,-1
 913 47 l 2,99,100
 901 40 901 40 888 45 c 128,-1,101
 875 50 875 50 871 63 c 0,102,103
 848 128 848 128 810.5 199 c 128,-1,104
 773 270 773 270 734 323 c 0,105,106
 726 333 726 333 728.5 347 c 128,-1,107
 731 361 731 361 743 367 c 2,108,-1
 749 370 l 2,109,110
 759 376 759 376 769 376 c 0,111,112
 773 376 773 376 778 375 c 0,113,114
 793 372 793 372 802 359 c 0,115,116
 842 307 842 307 880.5 236.5 c 128,-1,117
 919 166 919 166 945 104 c 0,92,93
259 263 m 0,118,119
 268 273 268 273 281 273 c 0,120,121
 282 273 282 273 283 273 c 0,122,123
 297 272 297 272 306 261 c 2,124,-1
 311 255 l 2,125,126
 319 244 319 244 319 230 c 0,127,128
 319 214 319 214 308 202 c 0,129,130
 211 109 211 109 104 40 c 0,131,132
 95 34 95 34 84 34 c 0,133,134
 80 34 80 34 77 35 c 0,135,136
 62 38 62 38 53 50 c 2,137,-1
 45 61 l 2,138,139
 39 70 39 70 39 79 c 0,140,141
 39 83 39 83 40 87 c 0,142,143
 43 100 43 100 55 108 c 0,144,145
 170 177 170 177 259 263 c 0,118,119
EndSplineSet
Ligature2: "'ccmp' Glyph Composition/Decomposition lookup 5 subtable" cid01505 cid01540
EndChar

StartChar: cid01509
Encoding: 12409 12409 21
Width: 1024
GlyphClass: 3
Flags: W
LayerCount: 2
Fore
SplineSet
667.759765625 553.98828125 m 4,0,1
 625 640 625 640 611.1640625 653.939453125 c 4,2,3
 604 662 604 662 610.166015625 679.561523438 c 4,4,5
 616 694 616 694 631.166992188 702.151367188 c 4,6,7
 647 711 647 711 661.97265625 711.435546875 c 4,8,9
 678 711 678 711 685.5625 700.495117188 c 4,10,11
 688 697 688 697 743.408203125 600.538085938 c 4,12,13
 750 589 750 589 742.506835938 574.009765625 c 4,14,15
 736 559 736 559 719.533203125 549.805664062 c 4,16,17
 703 540 703 540 688.111328125 541.591796875 c 4,18,19
 674 544 674 544 667.759765625 553.98828125 c 4,0,1
827.413085938 664.46484375 m 4,20,21
 822 674 822 674 827 687.5 c 132,-1,22
 832 701 832 701 844.5 709 c 4,23,24
 864 721 864 721 880.317382812 720.623046875 c 4,25,26
 897 720 897 720 902.736328125 709.708984375 c 4,27,28
 921 674 921 674 960.31640625 609.611328125 c 4,29,30
 968 597 968 597 957.82421875 581.739257812 c 4,31,32
 949 567 949 567 934.5 558.5 c 132,-1,33
 920 550 920 550 906 550 c 132,-1,34
 892 550 892 550 884.874023438 563.639648438 c 4,35,36
 848 628 848 628 827.413085938 664.46484375 c 4,20,21
148 216 m 0,37,38
 140 204 140 204 126 203.5 c 128,-1,39
 112 203 112 203 102 213 c 2,40,-1
 77 240 l 2,41,42
 68 249 68 249 68 262 c 0,43,44
 68 277 68 277 80 288 c 0,45,46
 100 306 100 306 125 333 c 0,47,48
 149 357 149 357 184 399 c 128,-1,49
 219 441 219 441 262 496 c 128,-1,50
 305 551 305 551 324 573 c 0,51,52
 368 627 368 627 411 631 c 0,53,54
 414 631 414 631 417 631 c 0,55,56
 456 631 456 631 504 585 c 0,57,58
 534 553 534 553 605.5 469.5 c 128,-1,59
 677 386 677 386 709 352 c 0,60,61
 837 211 837 211 934 120 c 0,62,63
 946 109 946 109 946 93 c 0,64,65
 946 80 946 80 937 70 c 2,66,-1
 920 50 l 2,67,68
 910 39 910 39 895 39 c 2,69,-1
 894 39 l 0,70,71
 880 39 880 39 870 48 c 0,72,73
 793 124 793 124 656 280 c 0,74,75
 628 311 628 311 560 393.5 c 128,-1,76
 492 476 492 476 466 504 c 0,77,78
 444 527 444 527 428.5 533 c 128,-1,79
 413 539 413 539 400.5 531.5 c 128,-1,80
 388 524 388 524 370 501 c 0,81,82
 350 476 350 476 282.5 389 c 128,-1,83
 215 302 215 302 187 267 c 0,84,85
 176 253 176 253 148 216 c 0,37,38
EndSplineSet
Ligature2: "'ccmp' Glyph Composition/Decomposition lookup 5 subtable" cid01508 cid01539
EndChar

StartChar: cid01510
Encoding: 12410 12410 22
Width: 1024
GlyphClass: 3
Flags: W
LayerCount: 2
Fore
SplineSet
691 611.5 m 132,-1,1
 691 571 691 571 719 542 c 132,-1,2
 747 513 747 513 786 513 c 4,3,4
 828 513 828 513 857 542 c 132,-1,5
 886 571 886 571 886 611.5 c 132,-1,6
 886 652 886 652 857 681 c 132,-1,7
 828 710 828 710 786 710 c 4,8,9
 747 710 747 710 719 681 c 132,-1,0
 691 652 691 652 691 611.5 c 132,-1,1
622 611 m 132,-1,11
 622 680 622 680 671 729 c 132,-1,12
 720 778 720 778 786 778 c 4,13,14
 856 778 856 778 905.5 729 c 132,-1,15
 955 680 955 680 955 611 c 132,-1,16
 955 542 955 542 905.5 493.5 c 132,-1,17
 856 445 856 445 786 445 c 4,18,19
 718 445 718 445 670 493.5 c 132,-1,10
 622 542 622 542 622 611 c 132,-1,11
148 216 m 0,20,21
 140 204 140 204 126 203.5 c 128,-1,22
 112 203 112 203 102 213 c 2,23,-1
 77 240 l 2,24,25
 68 249 68 249 68 262 c 0,26,27
 68 277 68 277 80 288 c 0,28,29
 100 306 100 306 125 333 c 0,30,31
 149 357 149 357 184 399 c 128,-1,32
 219 441 219 441 262 496 c 128,-1,33
 305 551 305 551 324 573 c 0,34,35
 368 627 368 627 411 631 c 0,36,37
 414 631 414 631 417 631 c 0,38,39
 456 631 456 631 504 585 c 0,40,41
 534 553 534 553 605.5 469.5 c 128,-1,42
 677 386 677 386 709 352 c 0,43,44
 837 211 837 211 934 120 c 0,45,46
 946 109 946 109 946 93 c 0,47,48
 946 80 946 80 937 70 c 2,49,-1
 920 50 l 2,50,51
 910 39 910 39 895 39 c 2,52,-1
 894 39 l 0,53,54
 880 39 880 39 870 48 c 0,55,56
 793 124 793 124 656 280 c 0,57,58
 628 311 628 311 560 393.5 c 128,-1,59
 492 476 492 476 466 504 c 0,60,61
 444 527 444 527 428.5 533 c 128,-1,62
 413 539 413 539 400.5 531.5 c 128,-1,63
 388 524 388 524 370 501 c 0,64,65
 350 476 350 476 282.5 389 c 128,-1,66
 215 302 215 302 187 267 c 0,67,68
 176 253 176 253 148 216 c 0,20,21
EndSplineSet
Ligature2: "'ccmp' Glyph Composition/Decomposition lookup 5 subtable" cid01508 cid01540
EndChar

StartChar: cid01512
Encoding: 12412 12412 23
Width: 1024
GlyphClass: 3
Flags: W
LayerCount: 2
Fore
SplineSet
142 732 m 0,0,1
 144 746 144 746 155 755.5 c 128,-1,2
 166 765 166 765 180 764 c 2,3,-1
 200 762 l 2,4,5
 214 761 214 761 221.5 749.5 c 128,-1,6
 229 738 229 738 225 725 c 0,7,8
 220 706 220 706 218 692 c 0,9,10
 200 611 200 611 184 488.5 c 128,-1,11
 168 366 168 366 168 288 c 0,12,13
 168 214 168 214 177 152 c 0,14,15
 177 151 177 151 177.5 151 c 128,-1,16
 178 151 178 151 179 152 c 0,17,18
 195 198 195 198 224 272 c 0,19,20
 228 281 228 281 238 283.5 c 128,-1,21
 248 286 248 286 256 280 c 0,22,23
 271 268 271 268 271 252 c 0,24,25
 271 245 271 245 268 237 c 0,26,27
 246 176 246 176 229 122.5 c 128,-1,28
 212 69 212 69 206 39 c 0,29,30
 201 18 201 18 201 2 c 0,31,32
 201 -2 201 -2 202 -6 c 0,33,34
 203 -20 203 -20 193 -31.5 c 128,-1,35
 183 -43 183 -43 168 -44 c 2,36,-1
 165 -44 l 2,37,38
 163 -44 163 -44 162 -44 c 0,39,40
 148 -44 148 -44 137 -37 c 0,41,42
 125 -28 125 -28 121 -13 c 0,43,44
 92 114 92 114 92 274 c 0,45,46
 92 408 92 408 138 695 c 0,47,48
 141 717 141 717 142 732 c 0,0,1
649 130 m 0,49,50
 649 153 649 153 648 167 c 0,51,52
 648 172 648 172 644 173 c 0,53,54
 600 185 600 185 554 185 c 0,55,56
 500 185 500 185 467.5 165 c 128,-1,57
 435 145 435 145 435 113 c 0,58,59
 435 75 435 75 465.5 56 c 128,-1,60
 496 37 496 37 550 37 c 0,61,62
 605 37 605 37 627 61.5 c 128,-1,63
 649 86 649 86 649 130 c 0,49,50
865 494 m 0,64,65
 879 495 879 495 889.5 485.5 c 128,-1,66
 900 476 900 476 900 462 c 2,67,-1
 900 458 l 2,68,69
 900 443 900 443 890 432 c 128,-1,70
 880 421 880 421 865 419 c 0,71,72
 748 408 748 408 717 408 c 0,73,74
 713 408 713 408 713 403 c 0,75,76
 713 368 713 368 716 302.5 c 128,-1,77
 719 237 719 237 720 226 c 0,78,79
 720 221 720 221 724 220 c 0,80,81
 777 201 777 201 908 114 c 0,82,83
 920 106 920 106 922 90 c 0,84,85
 925.062068966 73.6689655172 925.062068966 73.6689655172 917 61 c 2,86,-1
 910 50 l 2,87,88
 902 38 902 38 889 36.5 c 128,-1,89
 876 35 876 35 867 44 c 0,90,91
 804 103 804 103 728 141 c 0,92,93
 724 143 724 143 724 139 c 0,94,95
 725 123 725 123 725 97 c 0,96,97
 725 35 725 35 681.5 0 c 128,-1,98
 638 -35 638 -35 557 -35 c 0,99,100
 469 -35 469 -35 415.5 2 c 128,-1,101
 362 39 362 39 362 109 c 0,102,103
 362 166 362 166 412 207 c 0,104,105
 471 256 471 256 556 248 c 0,106,107
 631 241 631 241 641 241 c 0,108,109
 645 241 645 241 645 245 c 0,110,111
 639 337 639 337 638 401 c 0,112,113
 638 406 638 406 633 405 c 0,114,115
 583 404 583 404 537 404 c 0,116,117
 459 404 459 404 429 406 c 0,118,119
 414 407 414 407 403.5 417.5 c 128,-1,120
 393 428 393 428 393 443 c 2,121,-1
 393 448 l 2,122,123
 393 462 393 462 403.5 472 c 128,-1,124
 414 482 414 482 429 481 c 0,125,126
 494 477 494 477 564 477 c 0,127,128
 598 477 598 477 632 478 c 0,129,130
 637 478 637 478 637 483 c 2,131,-1
 637 640 l 2,132,133
 637 644 637 644 633 644 c 0,134,135
 585 643 585 643 537 643 c 0,136,137
 491 643 491 643 445 644 c 0,138,139
 430 644 430 644 420 655 c 128,-1,140
 410 666 410 666 410 681 c 2,141,-1
 410 682 l 2,142,143
 410 697 410 697 420.5 706.5 c 128,-1,144
 431 716 431 716 445 715 c 0,145,146
 551 711 551 711 574 712 c 0,147,148
 706 718 706 718 714 720 c 0,149,-1
 739 723 l 0,150,151
 693 806 693 806 694 808.5 c 4,152,153
 694 812 694 812 698 825 c 4,154,155
 701 835 701 835 712 843 c 4,156,157
 718 848 718 848 731 848.5 c 0,158,159
 750 849 750 849 752 841 c 0,160,-1
 833 703 l 0,161,162
 837 687 837 687 830 678 c 0,163,-1
 815 668 l 2,164,-1
 801 659 l 2,165,-1
 782 660 l 0,166,-1
 761 662 l 2,167,-1
 744 659 l 2,168,-1
 731 656 l 0,169,170
 712 646 712 646 710 648 c 0,171,172
 712 646 712 646 712 642 c 2,173,-1
 712 486 l 2,174,175
 712 481 712 481 716 482 c 0,176,177
 785 488 785 488 865 494 c 0,64,65
890 807 m 0,178,179
 886 812 886 812 887 818 c 0,180,181
 887 825 887 825 889 829 c 0,182,183
 894 841 894 841 907 848 c 0,184,185
 915 853 915 853 914.5 852.5 c 128,-1,186
 914 852 914 852 927 853 c 0,187,188
 946 854 946 854 951 845 c 0,189,190
 1020 721 l 0,191,192
 1022 707 l 256,193,194
 1019 697 l 0,195,196
 1014 686 1014 686 1006 681 c 0,197,198
 997 676 997 676 992 675 c 0,199,200
 985 675 985 675 978 675 c 0,201,202
 965 675 965 675 959 685 c 0,203,-1
 890 807 l 0,178,179
EndSplineSet
Ligature2: "'ccmp' Glyph Composition/Decomposition lookup 5 subtable" cid01511 cid01539
EndChar

StartChar: cid01513
Encoding: 12413 12413 24
Width: 1024
GlyphClass: 3
Flags: W
LayerCount: 2
Fore
SplineSet
864 493 m 1,0,-1
 878 492 l 1,1,-1
 890 486 l 1,2,-1
 897 475 l 1,3,-1
 900 461 l 1,4,-1
 900 458 l 1,5,-1
 898 444 l 1,6,-1
 890 432 l 1,7,-1
 878 422 l 1,8,-1
 864 418 l 1,9,-1
 793 412 l 1,10,-1
 717 408 l 1,11,-1
 713 407 l 1,12,-1
 712 403 l 1,13,-1
 715 324 l 1,14,-1
 719 226 l 1,15,-1
 721 222 l 1,16,-1
 724 220 l 1,17,-1
 818 177 l 1,18,-1
 908 114 l 1,19,-1
 917 103 l 1,20,-1
 922 89 l 1,21,-1
 922 82 l 1,22,-1
 920 70 l 1,23,-1
 916 60 l 1,24,-1
 910 49 l 1,25,-1
 901 40 l 1,26,-1
 890 36 l 1,27,-1
 877 37 l 1,28,-1
 866 44 l 1,29,-1
 799 99 l 1,30,-1
 728 141 l 1,31,-1
 725 141 l 1,32,-1
 724 138 l 1,33,-1
 725 120 l 1,34,-1
 725 97 l 1,35,-1
 714 41 l 1,36,-1
 682 -0 l 1,37,-1
 629 -26 l 1,38,-1
 557 -35 l 1,39,-1
 478 -26 l 1,40,-1
 416 2 l 1,41,-1
 376 47 l 1,42,-1
 362 108 l 1,43,-1
 374 162 l 1,44,-1
 412 207 l 1,45,-1
 473 238 l 1,46,-1
 556 248 l 1,47,-1
 596 246 l 1,48,-1
 640 242 l 1,49,-1
 644 242 l 1,50,-1
 645 246 l 1,51,-1
 640 330 l 1,52,-1
 638 400 l 1,53,-1
 637 404 l 1,54,-1
 633 405 l 1,55,-1
 595 404 l 1,56,-1
 556 404 l 1,57,-1
 492 404 l 1,58,-1
 428 406 l 1,59,-1
 415 409 l 1,60,-1
 404 418 l 1,61,-1
 396 429 l 1,62,-1
 393 443 l 1,63,-1
 393 447 l 1,64,-1
 396 461 l 1,65,-1
 404 472 l 1,66,-1
 415 478 l 1,67,-1
 428 480 l 1,68,-1
 494 478 l 1,69,-1
 564 477 l 1,70,-1
 632 477 l 1,71,-1
 636 479 l 1,72,-1
 637 482 l 1,73,-1
 637 640 l 1,74,-1
 636 643 l 1,75,-1
 632 644 l 1,76,-1
 578 642 l 1,77,-1
 523 642 l 1,78,-1
 483 642 l 1,79,-1
 444 643 l 1,80,-1
 430 646 l 1,81,-1
 418 654 l 1,82,-1
 411 666 l 1,83,-1
 408 680 l 1,84,-1
 408 682 l 1,85,-1
 411 695 l 1,86,-1
 418 706 l 1,87,-1
 430 713 l 1,88,-1
 444 715 l 1,89,-1
 507 712 l 1,90,-1
 570 711 l 1,91,-1
 685.000962725 714.382381257 l 2,92,93
 685.000962725 714.690985046 685.000962725 714.690985046 685 715 c 0,94,95
 685 784 685 784 734 833 c 128,-1,96
 783 882 783 882 849 882 c 0,97,98
 919 882 919 882 968.5 833 c 128,-1,99
 1018 784 1018 784 1018 715 c 128,-1,100
 1018 646 1018 646 968.5 597.5 c 128,-1,101
 919 549 919 549 849 549 c 0,102,103
 781 549 781 549 733 597.5 c 0,104,105
 720.327043465 610.304966499 720.327043465 610.304966499 711 624.538916704 c 1,106,-1
 711 485 l 1,107,-1
 712 482 l 1,108,-1
 716 481 l 1,109,-1
 788 486 l 1,110,-1
 864 493 l 1,0,-1
649 130 m 0,111,112
 649 152 649 152 648 167 c 0,113,114
 648 171 648 171 644 173 c 0,115,116
 600 185 600 185 554 185 c 0,117,118
 500 185 500 185 467.5 164.5 c 128,-1,119
 435 144 435 144 435 112 c 0,120,121
 435 74 435 74 465 55 c 128,-1,122
 495 36 495 36 550 36 c 128,-1,123
 605 36 605 36 627 60.5 c 128,-1,124
 649 85 649 85 649 130 c 0,111,112
142 732 m 0,125,126
 143 746 143 746 154 756 c 0,127,128
 164 764 164 764 176 764 c 0,129,130
 178 764 178 764 179 764 c 2,131,-1
 200 762 l 2,132,133
 213 761 213 761 221 749.5 c 128,-1,134
 229 738 229 738 225 725 c 0,135,136
 220 707 220 707 217 692 c 0,137,138
 199 608 199 608 183.5 486.5 c 128,-1,139
 168 365 168 365 168 287 c 0,140,141
 168 223 168 223 176 151 c 0,142,143
 176 150 176 150 177 150 c 128,-1,144
 178 150 178 150 178 151 c 0,145,146
 195 197 195 197 224 271 c 0,147,148
 228 280 228 280 238 283 c 128,-1,149
 248 286 248 286 256 279 c 0,150,151
 271 267 271 267 271 251 c 0,152,153
 271 244 271 244 268 237 c 0,154,155
 215 84 215 84 205 38 c 0,156,157
 200 17 200 17 200 -6 c 0,158,159
 200 -21 200 -21 191 -32 c 128,-1,160
 182 -43 182 -43 168 -45 c 2,161,-1
 165 -45 l 2,162,163
 163 -45 163 -45 161 -45 c 0,164,165
 148 -45 148 -45 137 -37 c 0,166,167
 124 -28 124 -28 121 -13 c 0,168,169
 92 113 92 113 92 274 c 0,170,171
 92 408 92 408 138 695 c 0,172,173
 141 716 141 716 142 732 c 0,125,126
754 715.5 m 128,-1,175
 754 675 754 675 782 646 c 128,-1,176
 810 617 810 617 849 617 c 0,177,178
 891 617 891 617 920 646 c 128,-1,179
 949 675 949 675 949 715.5 c 128,-1,180
 949 756 949 756 920 785 c 128,-1,181
 891 814 891 814 849 814 c 0,182,183
 810 814 810 814 782 785 c 128,-1,174
 754 756 754 756 754 715.5 c 128,-1,175
EndSplineSet
Ligature2: "'ccmp' Glyph Composition/Decomposition lookup 5 subtable" cid01511 cid01540
EndChar

StartChar: cid01536
Encoding: 12436 12436 25
Width: 1024
GlyphClass: 3
Flags: W
LayerCount: 2
Fore
SplineSet
785.885742188 542.348632812 m 4,0,1
 754 606 754 606 744.290039062 616.299804688 c 4,2,3
 737 624 737 624 743.291992188 641.921875 c 4,4,5
 749 656 749 656 764.29296875 664.51171875 c 4,6,7
 782 674 782 674 795.098632812 673.795898438 c 4,8,9
 815 673 815 673 818.688476562 662.85546875 c 4,10,11
 832 629 832 629 856.534179688 588.8984375 c 4,12,13
 866 574 866 574 860.6328125 562.370117188 c 4,14,15
 854 547 854 547 837.659179688 538.166015625 c 4,16,17
 821 528 821 528 806.237304688 529.952148438 c 4,18,19
 792 532 792 532 785.885742188 542.348632812 c 4,0,1
898.5390625 626.825195312 m 4,20,21
 892 634 892 634 898.125976562 649.860351562 c 4,22,23
 903 663 903 663 915.625976562 671.360351562 c 4,24,25
 935 683 935 683 951.443359375 682.983398438 c 4,26,27
 968 682 968 682 973.862304688 672.069335938 c 4,28,29
 976 669 976 669 1016.44238281 597.971679688 c 4,30,31
 1024 585 1024 585 1013.95019531 570.099609375 c 4,32,33
 1005 555 1005 555 990.625976562 546.860351562 c 4,34,35
 976 538 976 538 962.125976562 538.360351562 c 4,36,37
 947 538 947 538 941 552 c 4,38,39
 917 606 917 606 898.5390625 626.825195312 c 4,20,21
706 345 m 0,40,41
 706 410 706 410 658 450 c 128,-1,42
 610 490 610 490 532 490 c 0,43,44
 505 490 505 490 474.5 487 c 128,-1,45
 444 484 444 484 423.5 481.5 c 128,-1,46
 403 479 403 479 371.5 471 c 128,-1,47
 340 463 340 463 330 460.5 c 128,-1,48
 320 458 320 458 288 448.5 c 0,49,-1
 256 439 l 2,50,51
 233 432 233 432 204 422 c 0,52,53
 191 417 191 417 178 423.5 c 128,-1,54
 165 430 165 430 162 444 c 2,55,-1
 155 470 l 2,56,57
 154 474 154 474 154 478 c 0,58,59
 154 487 154 487 159 494 c 0,60,61
 167 506 167 506 181 508 c 0,62,63
 209 512 209 512 238 519 c 0,64,65
 239 519 239 519 283 529.5 c 128,-1,66
 327 540 327 540 345 543.5 c 128,-1,67
 363 547 363 547 402 554.5 c 128,-1,68
 441 562 441 562 474.5 564.5 c 128,-1,69
 508 567 508 567 541 567 c 0,70,71
 652 567 652 567 722.5 507.5 c 128,-1,72
 793 448 793 448 793 342 c 0,73,74
 793 265 793 265 761.5 201 c 128,-1,75
 730 137 730 137 672.5 91 c 128,-1,76
 615 45 615 45 539 13 c 128,-1,77
 463 -19 463 -19 369 -36 c 0,78,79
 364 -37 364 -37 359 -37 c 0,80,81
 349 -37 349 -37 338 -32 c 0,82,83
 324 -26 324 -26 315 -12 c 2,84,-1
 304 6 l 2,85,86
 298 16 298 16 303 27.5 c 128,-1,87
 308 39 308 39 321 41 c 0,88,89
 408 55 408 55 477 80 c 128,-1,90
 546 105 546 105 598 142 c 128,-1,91
 650 179 650 179 678 230.5 c 128,-1,92
 706 282 706 282 706 345 c 0,40,41
302 718 m 0,93,94
 288 720 288 720 279 732 c 0,95,96
 273 742 273 742 273 753 c 0,97,98
 273 756 273 756 273 759 c 2,99,-1
 275 767 l 2,100,101
 277 781 277 781 289 789 c 0,102,103
 298 795 298 795 309 795 c 0,104,105
 312 795 312 795 315 795 c 0,106,107
 478 765 478 765 676 756 c 0,108,109
 690 755 690 755 699 744 c 0,110,111
 707 736 707 736 707 725 c 0,112,113
 707 722 707 722 706 720 c 2,114,-1
 705 711 l 2,115,116
 703 696 703 696 691 687 c 0,117,118
 680 678 680 678 667 678 c 0,119,120
 666 678 666 678 664 678 c 0,121,122
 459 694 459 694 302 718 c 0,93,94
EndSplineSet
Ligature2: "'ccmp' Glyph Composition/Decomposition lookup 5 subtable" cid01458 cid01539
EndChar

StartChar: cid01558
Encoding: 12460 12460 26
Width: 1024
GlyphClass: 3
Flags: W
LayerCount: 2
Fore
SplineSet
722.759765625 684.98828125 m 4,0,1
 679 773 679 773 668.1640625 783.939453125 c 4,2,3
 658 795 658 795 665.166015625 810.561523438 c 4,4,5
 671 825 671 825 686.166992188 833.151367188 c 4,6,7
 702 842 702 842 716.97265625 842.435546875 c 4,8,9
 733 842 733 842 740.5625 831.495117188 c 4,10,11
 743 828 743 828 798.408203125 731.538085938 c 4,12,13
 805 720 805 720 797.506835938 705.009765625 c 4,14,15
 791 690 791 690 774.533203125 680.805664062 c 4,16,17
 758 671 758 671 743.111328125 672.591796875 c 4,18,19
 729 675 729 675 722.759765625 684.98828125 c 4,0,1
883.413085938 801.46484375 m 4,20,21
 878 811 878 811 883 824.5 c 132,-1,22
 888 838 888 838 900.5 846 c 4,23,24
 920 858 920 858 936.317382812 857.623046875 c 4,25,26
 952.650390625 856.9296875 952.650390625 856.9296875 958.736328125 846.708984375 c 4,27,28
 977 811 977 811 1016.31640625 746.611328125 c 4,29,30
 1023.70117188 734.08984375 1023.70117188 734.08984375 1013.82421875 718.739257812 c 4,31,32
 1005 704 1005 704 990.5 695.5 c 132,-1,33
 976 687 976 687 962 687 c 132,-1,34
 948 687 948 687 940.874023438 700.639648438 c 4,35,36
 904 765 904 765 883.413085938 801.46484375 c 4,20,21
489 610 m 0,37,38
 488 605 488 605 493 605 c 2,39,-1
 732 605 l 2,40,41
 750 605 750 605 766 606 c 0,42,43
 772 607 772 607 777 607 c 0,44,45
 805 607 805 607 826 596 c 0,46,47
 851 584 851 584 851 556 c 0,48,49
 851 553 851 553 851 550 c 0,50,51
 850 539 850 539 850 531 c 0,52,53
 833 135 833 135 787 37 c 0,54,55
 772 4 772 4 746 -11 c 128,-1,56
 720 -26 720 -26 678 -26 c 0,57,58
 621 -26 621 -26 548 -21 c 0,59,60
 533 -20 533 -20 522 -9.5 c 128,-1,61
 511 1 511 1 509 17 c 2,62,-1
 507 31 l 2,63,64
 505 45 505 45 515 54.5 c 128,-1,65
 525 64 525 64 538 62 c 0,66,67
 604 55 604 55 655 55 c 0,68,69
 700 55 700 55 715 88 c 0,70,71
 740 140 740 140 753.5 276 c 128,-1,72
 767 412 767 412 767 524 c 0,73,74
 767 528 767 528 762 528 c 2,75,-1
 485 528 l 2,76,77
 480 528 480 528 480 524 c 0,78,79
 454 325 454 325 384.5 198.5 c 128,-1,80
 315 72 315 72 195 -18 c 0,81,82
 183 -27 183 -27 168 -27 c 0,83,84
 167 -27 167 -27 166 -27 c 0,85,86
 151 -26 151 -26 138 -16 c 2,87,-1
 120 -1 l 2,88,89
 110 7 110 7 111 20 c 128,-1,90
 112 33 112 33 123 40 c 0,91,92
 166 68 166 68 197 97 c 0,93,94
 277 169 277 169 328 272 c 128,-1,95
 379 375 379 375 399 524 c 0,96,97
 399 528 399 528 395 528 c 2,98,-1
 227 528 l 2,99,100
 171 528 171 528 145 527 c 0,101,102
 131 526 131 526 120.5 536 c 128,-1,103
 110 546 110 546 110 560 c 2,104,-1
 110 575 l 2,105,106
 110 589 110 589 120.5 599 c 128,-1,107
 131 609 131 609 145 608 c 0,108,109
 188 605 188 605 226 605 c 2,110,-1
 402 605 l 2,111,112
 407 605 407 605 407 610 c 0,113,114
 411 671 411 671 411 709 c 0,115,116
 411 730 411 730 408 758 c 0,117,118
 407 773 407 773 416 783.5 c 128,-1,119
 425 794 425 794 439 794 c 2,120,-1
 464 794 l 2,121,122
 478 794 478 794 487.5 783.5 c 128,-1,123
 497 773 497 773 496 758 c 0,124,125
 495 736 495 736 494 711 c 0,126,127
 493 672 493 672 489 610 c 0,37,38
EndSplineSet
Ligature2: "'ccmp' Glyph Composition/Decomposition lookup 5 subtable" cid01557 cid01539
EndChar

StartChar: cid01560
Encoding: 12462 12462 27
Width: 1024
GlyphClass: 3
Flags: W
LayerCount: 2
Fore
SplineSet
722.759765625 710.98828125 m 0,0,1
 679 799 679 799 668.1640625 809.939453125 c 0,2,3
 658 821 658 821 665.166015625 836.561523438 c 0,4,5
 671 851 671 851 686.166992187 859.151855469 c 0,6,7
 702 868 702 868 716.973144531 868.436035156 c 0,8,9
 733 868 733 868 740.5625 857.495117188 c 0,10,11
 743 854 743 854 798.408203125 757.538085938 c 0,12,13
 805 746 805 746 797.506835938 731.009765625 c 0,14,15
 791 716 791 716 774.533691406 706.805175781 c 0,16,17
 758 697 758 697 743.111328125 698.591796875 c 0,18,19
 729 701 729 701 722.759765625 710.98828125 c 0,0,1
869.413085938 827.46484375 m 4,20,21
 864 837 864 837 869 850.5 c 132,-1,22
 874 864 874 864 886.5 872 c 4,23,24
 906 884 906 884 922.317382812 883.623046875 c 4,25,26
 939 883 939 883 944.736328125 872.708984375 c 4,27,28
 963 837 963 837 1002.31640625 772.611328125 c 4,29,30
 1010 760 1010 760 999.82421875 744.739257812 c 4,31,32
 991 730 991 730 976.5 721.5 c 132,-1,33
 962 713 962 713 948 713 c 132,-1,34
 934 713 934 713 926.874023438 726.639648438 c 4,35,36
 890 791 890 791 869.413085938 827.46484375 c 4,20,21
505 534 m 2,37,38
 501 534 501 534 502 529 c 2,39,-1
 540 333 l 2,40,41
 541 329 541 329 545 329 c 0,42,43
 756 365 756 365 794 372 c 0,44,45
 824 377 824 377 849 383 c 0,46,47
 863 387 863 387 875.5 379 c 128,-1,48
 888 371 888 371 891 357 c 2,49,-1
 894 341 l 2,50,51
 897 327 897 327 888.5 315.5 c 128,-1,52
 880 304 880 304 866 302 c 0,53,54
 840 298 840 298 809 292 c 0,55,56
 751 283 751 283 560 253 c 0,57,58
 556 252 556 252 557 248 c 0,59,60
 565 209 565 209 575 160.5 c 128,-1,61
 585 112 585 112 590.5 84.5 c 128,-1,62
 596 57 596 57 598 47 c 0,63,64
 608 5 608 5 613 -13 c 0,65,66
 617 -27 617 -27 609.5 -39 c 128,-1,67
 602 -51 602 -51 589 -54 c 2,68,-1
 564 -58 l 2,69,70
 561 -59 561 -59 558 -59 c 0,71,72
 547 -59 547 -59 538 -52 c 0,73,74
 526 -44 526 -44 525 -29 c 0,75,76
 519 11 519 11 514 32 c 0,77,78
 500 108 500 108 476 234 c 0,79,80
 475 239 475 239 471 238 c 0,81,82
 291 209 291 209 199 193 c 0,83,84
 166 187 166 187 143 181 c 0,85,86
 129 178 129 178 116.5 186 c 128,-1,87
 104 194 104 194 101 208 c 2,88,-1
 97 228 l 2,89,90
 97 232 97 232 97 235 c 0,91,92
 97 245 97 245 103 253 c 0,93,94
 111 264 111 264 126 266 c 0,95,96
 156 269 156 269 180 272 c 0,97,98
 243 281 243 281 455 315 c 0,99,100
 460 315 460 315 459 320 c 2,101,-1
 421 517 l 2,102,103
 420 521 420 521 415 521 c 0,104,105
 245 494 245 494 194 484 c 0,106,107
 171 480 171 480 146 475 c 0,108,109
 132 472 132 472 119.5 479.5 c 128,-1,110
 107 487 107 487 105 502 c 2,111,-1
 100 523 l 2,112,113
 97 537 97 537 105.5 548.5 c 128,-1,114
 114 560 114 560 129 561 c 0,115,116
 156 563 156 563 178 565 c 0,117,118
 236 571 236 571 400 597 c 0,119,120
 404 598 404 598 404 603 c 0,121,122
 384 697 384 697 382 707 c 0,123,124
 378 725 378 725 374 742 c 0,125,126
 370 756 370 756 377.5 768 c 128,-1,127
 385 780 385 780 399 782 c 2,128,-1
 420 786 l 2,129,130
 434 788 434 788 445.5 779.5 c 128,-1,131
 457 771 457 771 459 756 c 0,132,133
 462 736 462 736 465 721 c 0,134,135
 466 712 466 712 485 615 c 0,136,137
 485 610 485 610 490 611 c 0,138,139
 647 637 647 637 722 651 c 0,140,141
 742 655 742 655 761 659 c 0,142,143
 775 662 775 662 787.5 654.5 c 128,-1,144
 800 647 800 647 802 633 c 2,145,-1
 805 617 l 2,146,147
 808 602 808 602 799.5 590.5 c 128,-1,148
 791 579 791 579 777 577 c 0,149,150
 771 576 771 576 758 574 c 128,-1,151
 745 572 745 572 738 571 c 2,152,-1
 505 534 l 2,37,38
EndSplineSet
Ligature2: "'ccmp' Glyph Composition/Decomposition lookup 5 subtable" cid01559 cid01539
EndChar

StartChar: cid01562
Encoding: 12464 12464 28
Width: 1024
GlyphClass: 3
Flags: W
LayerCount: 2
Fore
SplineSet
757.759765625 710.98828125 m 0,0,1
 719.39972289 788.171576781 719.39972289 788.171576781 699.1640625 810.939453125 c 4,2,3
 693 818 693 818 700.166015625 836.561523438 c 0,4,5
 706 851 706 851 721.166992188 859.151367188 c 0,6,7
 737 868 737 868 751.97265625 868.435546875 c 0,8,9
 768 868 768 868 775.5625 857.495117188 c 0,10,11
 778 854 778 854 833.408203125 757.538085938 c 0,12,13
 840 746 840 746 832.506835938 731.009765625 c 0,14,15
 826 716 826 716 809.533203125 706.805664062 c 0,16,17
 793 697 793 697 778.111328125 698.591796875 c 0,18,19
 764 701 764 701 757.759765625 710.98828125 c 0,0,1
883.413085938 827.46484375 m 0,20,21
 878 837 878 837 883 850.5 c 128,-1,22
 888 864 888 864 900.5 872 c 0,23,24
 920 884 920 884 936.317780905 883.623379779 c 0,25,26
 952.65004203 882.929942277 952.65004203 882.929942277 958.736328125 872.708984375 c 0,27,28
 977 837 977 837 1016.31640625 772.611328125 c 0,29,30
 1023.7010465 760.089546832 1023.7010465 760.089546832 1013.82421875 744.739257812 c 0,31,32
 1005 730 1005 730 990.5 721.5 c 128,-1,33
 976 713 976 713 962 713 c 128,-1,34
 948 713 948 713 940.874023438 726.639648438 c 0,35,36
 904 791 904 791 883.413085938 827.46484375 c 0,20,21
442 651 m 0,37,38
 439 647 439 647 444 647 c 2,39,-1
 717 647 l 2,40,41
 734 647 734 647 749 649 c 0,42,43
 758 650 758 650 766 650 c 0,44,45
 794 650 794 650 814 638 c 2,46,-1
 821 634 l 2,47,48
 833 626 833 626 837.5 611.5 c 128,-1,49
 842 597 842 597 836 583 c 0,50,51
 830 571 830 571 827 561 c 0,52,53
 805 477 805 477 758 382 c 128,-1,54
 711 287 711 287 646 208 c 0,55,56
 506 37 506 37 272 -58 c 0,57,58
 260 -62 260 -62 249 -62 c 0,59,60
 230 -62 230 -62 212 -47 c 2,61,-1
 190 -27 l 2,62,63
 182 -19 182 -19 184.5 -7.5 c 128,-1,64
 187 4 187 4 198 7 c 0,65,66
 429 84 429 84 573 254 c 0,67,68
 630 320 630 320 674 408 c 128,-1,69
 718 496 718 496 735 569 c 0,70,71
 736 573 736 573 732 573 c 2,72,-1
 396 573 l 2,73,74
 391 573 391 573 389 570 c 0,75,76
 290 434 290 434 160 342 c 0,77,78
 147 332 147 332 131 332.5 c 128,-1,79
 115 333 115 333 103 343 c 2,80,-1
 89 353 l 2,81,82
 79 360 79 360 79 372 c 0,83,84
 79 385 79 385 90 393 c 0,85,86
 164 441 164 441 226.5 505 c 128,-1,87
 289 569 289 569 323 619.5 c 128,-1,88
 357 670 357 670 382 720 c 0,89,90
 393 739 393 739 403 768 c 0,91,92
 408 782 408 782 421 788.5 c 128,-1,93
 434 795 434 795 447 790 c 2,94,-1
 474 781 l 2,95,96
 487 777 487 777 492 764 c 128,-1,97
 497 751 497 751 490 739 c 0,98,99
 484 728 484 728 474 710.5 c 128,-1,100
 464 693 464 693 463 690 c 0,101,102
 456 676 456 676 442 651 c 0,37,38
EndSplineSet
Ligature2: "'ccmp' Glyph Composition/Decomposition lookup 5 subtable" cid01561 cid01539
EndChar

StartChar: cid01564
Encoding: 12466 12466 29
Width: 1024
GlyphClass: 3
Flags: W
LayerCount: 2
Fore
SplineSet
722.759765625 677.98828125 m 0,0,1
 680 764 680 764 666.1640625 777.939453125 c 0,2,3
 659 786 659 786 665.166015625 803.561523438 c 0,4,5
 671 818 671 818 686.166992188 826.151367188 c 0,6,7
 702 835 702 835 716.97265625 835.435546875 c 0,8,9
 733 835 733 835 740.5625 824.495117188 c 0,10,11
 743 821 743 821 798.408203125 724.538085938 c 0,12,13
 805 713 805 713 797.506835938 698.009765625 c 0,14,15
 791 683 791 683 774.533203125 673.805664062 c 0,16,17
 758 664 758 664 743.111328125 665.591796875 c 0,18,19
 729 668 729 668 722.759765625 677.98828125 c 0,0,1
883.413085938 794.46484375 m 0,20,21
 878 804 878 804 883 817.5 c 128,-1,22
 888 831 888 831 900.5 839 c 0,23,24
 920 851 920 851 936.317382812 850.623046875 c 0,25,26
 952.650390625 849.9296875 952.650390625 849.9296875 958.736328125 839.708984375 c 0,27,28
 977 804 977 804 1016.31640625 739.611328125 c 0,29,30
 1023.70117188 727.08984375 1023.70117188 727.08984375 1013.82421875 711.739257812 c 0,31,32
 1005 697 1005 697 990.5 688.5 c 128,-1,33
 976 680 976 680 962 680 c 128,-1,34
 948 680 948 680 940.874023438 693.639648438 c 0,35,36
 904 758 904 758 883.413085938 794.46484375 c 0,20,21
344 600 m 0,37,38
 342 596 342 596 347 596 c 2,39,-1
 825 596 l 2,40,41
 858 596 858 596 886 598 c 0,42,43
 901 599 901 599 911.5 589.5 c 128,-1,44
 922 580 922 580 922 566 c 2,45,-1
 922 549 l 2,46,47
 922 534 922 534 911.5 524 c 128,-1,48
 901 514 901 514 886 515 c 0,49,50
 852 516 852 516 825 516 c 2,51,-1
 657 516 l 2,52,53
 652 516 652 516 652 512 c 0,54,55
 640 314 640 314 569.5 181 c 128,-1,56
 499 48 499 48 375 -41 c 0,57,58
 361 -50 361 -50 346 -50 c 0,59,60
 329 -50 329 -50 316 -40 c 2,61,-1
 287 -21 l 2,62,63
 278 -15 278 -15 279 -3.5 c 128,-1,64
 280 8 280 8 290 13 c 0,65,66
 319 28 319 28 341 46 c 0,67,68
 547 202 547 202 567 512 c 0,69,70
 567 516 567 516 563 516 c 2,71,-1
 309 516 l 2,72,73
 304 516 304 516 302 512 c 0,74,75
 242 401 242 401 160 321 c 0,76,77
 149 310 149 310 133 308.5 c 128,-1,78
 117 307 117 307 104 315 c 2,79,-1
 84 327 l 2,80,81
 72 334 72 334 72 348 c 0,82,83
 72 360 72 360 81 367 c 0,84,85
 124 406 124 406 165.5 461 c 128,-1,86
 207 516 207 516 236 565 c 0,87,88
 270 628 270 628 293 709 c 0,89,90
 300 733 300 733 304 755 c 0,91,92
 306 769 306 769 317.5 777.5 c 128,-1,93
 329 786 329 786 343 784 c 2,94,-1
 373 778 l 2,95,96
 386 775 386 775 393 763 c 128,-1,97
 400 751 400 751 395 738 c 0,98,99
 386 715 386 715 381 699 c 0,100,101
 357 631 357 631 344 600 c 0,37,38
EndSplineSet
Ligature2: "'ccmp' Glyph Composition/Decomposition lookup 5 subtable" cid01563 cid01539
EndChar

StartChar: cid01566
Encoding: 12468 12468 30
Width: 1024
GlyphClass: 3
Flags: W
LayerCount: 2
Fore
SplineSet
665.359375 812.978515625 m 4,0,1
 657.58984375 821.305664062 657.58984375 821.305664062 664.475585938 835.7265625 c 4,2,3
 670.743164062 849.818359375 670.743164062 849.818359375 684.975585938 858.518554688 c 4,4,5
 701.590820312 868.485351562 701.590820312 868.485351562 717.827148438 868.624023438 c 4,6,7
 733.35546875 868.38671875 733.35546875 868.38671875 740.5625 857.495117188 c 4,8,9
 757.958007812 832.767578125 757.958007812 832.767578125 799.408203125 758.538085938 c 4,10,11
 805.732421875 747.176757812 805.732421875 747.176757812 798.28515625 731.892578125 c 4,12,13
 791.28125 716.842773438 791.28125 716.842773438 774.841796875 706.96875 c 4,14,15
 757.786132812 696.767578125 757.786132812 696.767578125 743.111328125 698.591796875 c 132,-1,16
 728.61328125 700.509765625 728.61328125 700.509765625 722.759765625 710.98828125 c 4,17,18
 678.73828125 798.57421875 678.73828125 798.57421875 665.359375 812.978515625 c 4,0,1
883.413085938 827.46484375 m 4,19,20
 878 837 878 837 883.487304688 851.288085938 c 4,21,22
 888 864 888 864 903.82421875 873.426757812 c 4,23,24
 913 880 913 880 922.5703125 882.26171875 c 4,25,26
 928 884 928 884 936.043945312 883.762695312 c 4,27,28
 953 883 953 883 959.736328125 873.708984375 c 4,29,30
 985 840 985 840 1018.31640625 774.611328125 c 4,31,32
 1021 768 1021 768 1020.12207031 759.715820312 c 4,33,34
 1019 753 1019 753 1016.72460938 748.848632812 c 4,35,36
 1006 731 1006 731 992.162109375 722.197265625 c 4,37,38
 976 713 976 713 961.6953125 713.359375 c 4,39,40
 948 713 948 713 940.874023438 726.639648438 c 4,41,42
 906 792 906 792 883.413085938 827.46484375 c 4,19,20
846 588 m 2,43,-1
 846 59 l 2,44,45
 846 34 846 34 848 -4 c 0,46,47
 849 -19 849 -19 839 -29.5 c 128,-1,48
 829 -40 829 -40 814 -40 c 2,49,-1
 793 -40 l 2,50,51
 779 -40 779 -40 768.5 -29.5 c 128,-1,52
 758 -19 758 -19 759 -5 c 0,53,54
 759 -2 759 -2 759.5 4 c 128,-1,55
 760 10 760 10 760 13 c 0,56,57
 760 17 760 17 755 17 c 2,58,-1
 259 17 l 2,59,60
 221 17 221 17 179 15 c 0,61,62
 164 15 164 15 153.5 24.5 c 128,-1,63
 143 34 143 34 143 49 c 2,64,-1
 143 71 l 2,65,66
 143 85 143 85 153.5 94.5 c 128,-1,67
 164 104 164 104 179 103 c 0,68,69
 219 100 219 100 257 100 c 2,70,-1
 755 100 l 2,71,72
 760 100 760 100 760 105 c 2,73,-1
 760 579 l 2,74,75
 760 584 760 584 755 584 c 2,76,-1
 269 584 l 2,77,78
 239 584 239 584 192 582 c 0,79,80
 178 581 178 581 167.5 591.5 c 128,-1,81
 157 602 157 602 157 616 c 2,82,-1
 157 636 l 2,83,84
 157 650 157 650 167.5 659.5 c 128,-1,85
 178 669 178 669 192 668 c 0,86,87
 231 666 231 666 268 666 c 2,88,-1
 772 666 l 2,89,90
 790 666 790 666 812 666 c 0,91,92
 827 667 827 667 837 656.5 c 128,-1,93
 847 646 847 646 847 632 c 0,94,95
 846 606 846 606 846 588 c 2,43,-1
EndSplineSet
Ligature2: "'ccmp' Glyph Composition/Decomposition lookup 5 subtable" cid01565 cid01539
EndChar

StartChar: cid01568
Encoding: 12470 12470 31
Width: 1024
GlyphClass: 3
Flags: W
LayerCount: 2
Fore
SplineSet
772 805 m 0,0,1
 778 798 778 798 772 780 c 0,2,3
 767 766 767 766 755 753.5 c 128,-1,4
 743 741 743 741 728 739 c 0,5,6
 712.633789062 736.288085938 712.633789062 736.288085938 705.5 744 c 0,7,8
 670 787 670 787 646 807 c 0,9,10
 639 814 639 814 644 830 c 0,11,12
 647 839 647 839 667 860 c 0,13,14
 682 876 682 876 692 874 c 0,15,16
 703 872 703 872 706 869 c 0,17,18
 731 848 731 848 772 805 c 0,0,1
863 810 m 0,19,20
 856 815 856 815 857 819 c 0,21,22
 858 825 858 825 860 831 c 0,23,24
 867 850 867 850 880 860 c 0,25,26
 885 864 885 864 892 868 c 0,27,28
 899 873 899 873 908 875 c 0,29,30
 924 878 924 878 933 871 c 0,31,-1
 990 809 l 0,32,33
 994 805 994 805 995 799 c 256,34,35
 995 789 995 789 993 785 c 0,36,37
 985 760 985 760 977 754.5 c 128,-1,38
 969 749 969 749 964 745 c 0,39,40
 962 743 962 743 945 740 c 0,41,42
 930 737 930 737 922 747 c 0,43,44
 892 785 892 785 863 810 c 0,19,20
719 571 m 2,45,46
 719 566 719 566 723 566 c 2,47,-1
 830 566 l 2,48,49
 863 566 863 566 889 568 c 0,50,51
 904 569 904 569 914.5 560 c 128,-1,52
 925 551 925 551 925 537 c 2,53,-1
 925 521 l 2,54,55
 925 507 925 507 914.5 497 c 128,-1,56
 904 487 904 487 889 487 c 0,57,58
 861 488 861 488 831 488 c 2,59,-1
 723 488 l 2,60,61
 719 488 719 488 719 484 c 2,62,-1
 719 453 l 2,63,64
 719 351 719 351 707 278.5 c 128,-1,65
 695 206 695 206 666 143.5 c 128,-1,66
 637 81 637 81 586 35 c 0,67,68
 526 -19 526 -19 458 -50 c 0,69,70
 447 -55 447 -55 436 -55 c 0,71,72
 432 -55 432 -55 428 -55 c 0,73,74
 411.609756098 -51.9268292683 411.609756098 -51.9268292683 400 -41 c 2,75,-1
 383 -25 l 2,76,77
 374 -16 374 -16 376.5 -4 c 128,-1,78
 379 8 379 8 390 13 c 0,79,80
 456 41 456 41 499 72.5 c 128,-1,81
 542 104 542 104 574.5 153.5 c 128,-1,82
 607 203 607 203 621.5 274.5 c 128,-1,83
 636 346 636 346 636 445 c 2,84,-1
 636 484 l 2,85,86
 636 488 636 488 631 488 c 2,87,-1
 350 488 l 2,88,89
 345 488 345 488 345 484 c 2,90,-1
 345 323 l 2,91,92
 345 298 345 298 347 266 c 0,93,94
 348 251 348 251 338 240.5 c 128,-1,95
 328 230 328 230 314 230 c 2,96,-1
 294 230 l 2,97,98
 279 230 279 230 269.5 240.5 c 128,-1,99
 260 251 260 251 261 266 c 0,100,101
 263 298 263 298 263 323 c 2,102,-1
 263 484 l 2,103,104
 263 488 263 488 259 488 c 2,105,-1
 153 488 l 2,106,107
 101 488 101 488 86 487 c 128,-1,108
 71 486 71 486 60.5 496 c 128,-1,109
 50 506 50 506 50 521 c 2,110,-1
 50 538 l 2,111,112
 50 552 50 552 60.5 561.5 c 128,-1,113
 71 571 71 571 85 569 c 0,114,115
 122 566 122 566 153 566 c 2,116,-1
 259 566 l 2,117,118
 263 566 263 566 263 571 c 2,119,-1
 263 697 l 2,120,121
 263 717 263 717 262 737 c 0,122,123
 261 751 261 751 270.5 761.5 c 128,-1,124
 280 772 280 772 294 772 c 2,125,-1
 314 772 l 2,126,127
 328 772 328 772 337.5 761.5 c 128,-1,128
 347 751 347 751 346 737 c 0,129,130
 345 717 345 717 345 698 c 2,131,-1
 345 571 l 2,132,133
 345 566 345 566 350 566 c 2,134,-1
 631 566 l 2,135,136
 636 566 636 566 636 571 c 2,137,-1
 636 618 l 6,138,139
 636 642 636 642 635 667 c 4,140,141
 634 681 634 681 643.5 691.5 c 132,-1,142
 653 702 653 702 667 702 c 6,143,-1
 688 702 l 6,144,145
 703 702 703 702 712.5 691.5 c 132,-1,146
 722 681 722 681 721 667 c 4,147,148
 719 642 719 642 719 618 c 6,149,-1
 719 571 l 2,45,46
EndSplineSet
Ligature2: "'ccmp' Glyph Composition/Decomposition lookup 5 subtable" cid01567 cid01539
EndChar

StartChar: cid01570
Encoding: 12472 12472 32
Width: 1024
GlyphClass: 3
Flags: W
LayerCount: 2
Fore
SplineSet
722.759765625 620.98828125 m 4,0,1
 680 707 680 707 666.1640625 720.939453125 c 4,2,3
 659 729 659 729 665.166015625 746.561523438 c 4,4,5
 671 761 671 761 686.166992188 769.151367188 c 4,6,7
 702 778 702 778 716.97265625 778.435546875 c 4,8,9
 733 778 733 778 740.5625 767.495117188 c 4,10,11
 743 764 743 764 798.408203125 667.538085938 c 4,12,13
 805 656 805 656 797.506835938 641.009765625 c 4,14,15
 791 626 791 626 774.533203125 616.805664062 c 4,16,17
 758 607 758 607 743.111328125 608.591796875 c 4,18,19
 729 611 729 611 722.759765625 620.98828125 c 4,0,1
883.413085938 737.46484375 m 4,20,21
 878 747 878 747 883 760.5 c 132,-1,22
 888 774 888 774 900.5 782 c 4,23,24
 920 794 920 794 936.317382812 793.623046875 c 4,25,26
 952.650390625 792.9296875 952.650390625 792.9296875 958.736328125 782.708984375 c 4,27,28
 977 747 977 747 1016.31640625 682.611328125 c 4,29,30
 1023.70117188 670.08984375 1023.70117188 670.08984375 1013.82421875 654.739257812 c 4,31,32
 1005 640 1005 640 990.5 631.5 c 132,-1,33
 976 623 976 623 962 623 c 132,-1,34
 948 623 948 623 940.874023438 636.639648438 c 4,35,36
 904 701 904 701 883.413085938 737.46484375 c 4,20,21
280 692 m 0,37,38
 268 700 268 700 265 714 c 128,-1,39
 262 728 262 728 270 740 c 2,40,-1
 276 750 l 2,41,42
 285 762 285 762 299 766 c 0,43,44
 304 767 304 767 308 767 c 0,45,46
 318 767 318 767 327 761 c 0,47,48
 399 717 399 717 489 655 c 0,49,50
 501 647 501 647 504 632.5 c 128,-1,51
 507 618 507 618 498 606 c 2,52,-1
 490 594 l 2,53,54
 482 582 482 582 467.5 579.5 c 128,-1,55
 453 577 453 577 441 585 c 0,56,57
 367 639 367 639 280 692 c 0,37,38
224 -28 m 0,58,59
 218 -29 218 -29 213 -29 c 0,60,61
 203 -29 203 -29 194 -25 c 0,62,63
 180 -19 180 -19 172 -5 c 2,64,-1
 160 16 l 2,65,66
 153 28 153 28 158.5 39.5 c 128,-1,67
 164 51 164 51 177 54 c 0,68,69
 350 89 350 89 485 166 c 0,70,71
 602 233 602 233 696.5 321.5 c 128,-1,72
 791 410 791 410 855 511 c 0,73,74
 861 521 861 521 873 521 c 128,-1,75
 885 521 885 521 891 511 c 2,76,-1
 905 487 l 2,77,78
 913 473 913 473 913 458 c 0,79,80
 913 442 913 442 903 427 c 0,81,82
 835 332 835 332 738.5 245 c 128,-1,83
 642 158 642 158 528 91 c 0,84,85
 464 53 464 53 381.5 21.5 c 128,-1,86
 299 -10 299 -10 224 -28 c 0,58,59
127 462 m 0,87,88
 114 469 114 469 111 483 c 0,89,90
 109 487 109 487 109 492 c 0,91,92
 109 501 109 501 115 509 c 2,93,-1
 122 519 l 2,94,95
 130 532 130 532 145 535 c 0,96,97
 149 537 149 537 154 537 c 0,98,99
 163 537 163 537 172 531 c 0,100,101
 258 482 258 482 337 430 c 0,102,103
 349 422 349 422 352 408 c 0,104,105
 353 404 353 404 353 400 c 0,106,107
 353 390 353 390 347 381 c 2,108,-1
 339 369 l 2,109,110
 331 356 331 356 317 354 c 0,111,112
 313 353 313 353 310 353 c 0,113,114
 299 353 299 353 290 359 c 0,115,116
 202 420 202 420 127 462 c 0,87,88
EndSplineSet
Ligature2: "'ccmp' Glyph Composition/Decomposition lookup 5 subtable" cid01569 cid01539
EndChar

StartChar: cid01572
Encoding: 12474 12474 33
Width: 1024
GlyphClass: 3
Flags: W
LayerCount: 2
Fore
SplineSet
722.759765625 718.98828125 m 0,0,1
 696 771 696 771 669.1640625 808.939453125 c 0,2,3
 662 817 662 817 668.166015625 834.561523438 c 0,4,5
 674 849 674 849 689.166992188 857.151367188 c 0,6,7
 705 866 705 866 719.97265625 866.435546875 c 0,8,9
 736 866 736 866 743.5625 855.495117188 c 0,10,11
 762 829 762 829 798.408203125 765.538085938 c 0,12,13
 805 754 805 754 797.506835938 739.009765625 c 0,14,15
 791 724 791 724 774.533203125 714.805664062 c 0,16,17
 758 705 758 705 743.111328125 706.591796875 c 0,18,19
 728 709 728 709 722.759765625 718.98828125 c 0,0,1
887.413085938 821.46484375 m 0,20,21
 881.495229999 829.637120998 881.495229999 829.637120998 887 844.5 c 0,22,23
 892 858 892 858 904.5 866 c 0,24,25
 924 878 924 878 940.317382812 877.623046875 c 0,26,27
 956 877 956 877 962.736328125 866.708984375 c 0,28,29
 990 824 990 824 1016.31640625 780.611328125 c 0,30,31
 1024 768 1024 768 1013.82421875 752.739257812 c 0,32,33
 1005 738 1005 738 990.5 729.5 c 128,-1,34
 976 721 976 721 962 721 c 0,35,36
 948.694293083 721 948.694293083 721 940.874023438 734.639648438 c 0,37,38
 912 785 912 785 887.413085938 821.46484375 c 0,20,21
714 701 m 0,39,40
 721 701 721 701 726 701 c 0,41,42
 754 701 754 701 773 687 c 0,43,44
 783 678 783 678 785.5 664.5 c 128,-1,45
 788 651 788 651 781 639 c 0,46,47
 776 629 776 629 773 623 c 0,48,49
 746 553 746 553 700.5 472 c 128,-1,50
 655 391 655 391 604 325 c 0,51,52
 601 322 601 322 605 319 c 0,53,54
 740 202 740 202 877 43 c 0,55,56
 887 32 887 32 885.5 17.5 c 128,-1,57
 884 3 884 3 873 -7 c 2,58,-1
 855 -23 l 2,59,60
 846 -31 846 -31 834 -31 c 0,61,62
 832 -31 832 -31 830 -31 c 0,63,64
 816 -29 816 -29 807 -18 c 0,65,66
 691 128 691 128 550 256 c 0,67,68
 547 259 547 259 544 256 c 0,69,70
 373 72 373 72 180 -25 c 0,71,72
 165 -32 165 -32 149.5 -29 c 128,-1,73
 134 -26 134 -26 123 -14 c 2,74,-1
 107 2 l 2,75,76
 100 9 100 9 100 18 c 0,77,78
 100 21 100 21 100 24 c 0,79,80
 103 36 103 36 115 41 c 0,81,82
 223 89 223 89 324 166 c 128,-1,83
 425 243 425 243 504 332 c 0,84,85
 556 391 556 391 604.5 471 c 128,-1,86
 653 551 653 551 672 613 c 0,87,88
 674 617 674 617 669 617 c 2,89,-1
 274 617 l 2,90,91
 249 617 249 617 206 615 c 0,92,93
 192 614 192 614 181.5 624 c 128,-1,94
 171 634 171 634 171 648 c 2,95,-1
 171 669 l 2,96,97
 171 683 171 683 181.5 692.5 c 128,-1,98
 192 702 192 702 206 701 c 0,99,100
 249 698 249 698 274 698 c 2,101,-1
 670 698 l 2,102,103
 694 698 694 698 714 701 c 0,39,40
EndSplineSet
Ligature2: "'ccmp' Glyph Composition/Decomposition lookup 5 subtable" cid01571 cid01539
EndChar

StartChar: cid01574
Encoding: 12476 12476 34
Width: 1024
GlyphClass: 3
Flags: W
LayerCount: 2
Fore
SplineSet
696.759765625 696.98828125 m 4,0,1
 654 783 654 783 640.1640625 796.939453125 c 4,2,3
 633 805 633 805 639.166015625 822.561523438 c 4,4,5
 645 837 645 837 660.166992188 845.151367188 c 4,6,7
 676 854 676 854 690.97265625 854.435546875 c 4,8,9
 707 854 707 854 714.5625 843.495117188 c 4,10,11
 717 840 717 840 772.408203125 743.538085938 c 4,12,13
 779 732 779 732 771.506835938 717.009765625 c 4,14,15
 765 702 765 702 748.533203125 692.805664062 c 4,16,17
 732 683 732 683 717.111328125 684.591796875 c 4,18,19
 703 687 703 687 696.759765625 696.98828125 c 4,0,1
857.413085938 813.46484375 m 4,20,21
 852 823 852 823 857 836.5 c 132,-1,22
 862 850 862 850 874.5 858 c 4,23,24
 894 870 894 870 910.317382812 869.623046875 c 4,25,26
 926.650390625 868.9296875 926.650390625 868.9296875 932.736328125 858.708984375 c 4,27,28
 951 823 951 823 990.31640625 758.611328125 c 4,29,30
 997.701171875 746.08984375 997.701171875 746.08984375 987.82421875 730.739257812 c 4,31,32
 979 716 979 716 964.5 707.5 c 132,-1,33
 950 699 950 699 936 699 c 132,-1,34
 922 699 922 699 914.874023438 712.639648438 c 4,35,36
 878 777 878 777 857.413085938 813.46484375 c 4,20,21
382 679 m 2,37,-1
 382 524 l 2,38,39
 382 519 382 519 386 520 c 0,40,41
 695 580 695 580 779 600 c 0,42,43
 792 603 792 603 801 605 c 0,44,45
 814 609 814 609 825 609 c 0,46,47
 846 609 846 609 862 597 c 2,48,-1
 866 593 l 2,49,50
 878 584 878 584 880.5 569 c 128,-1,51
 883 554 883 554 875 541 c 0,52,53
 871 535 871 535 868 530 c 0,54,55
 775 361 775 361 683 258 c 0,56,57
 672 247 672 247 656.5 245 c 128,-1,58
 641 243 641 243 628 251 c 2,59,-1
 618 256 l 2,60,61
 607 263 607 263 605.5 276.5 c 128,-1,62
 604 290 604 290 613 299 c 0,63,64
 659 347 659 347 701.5 407.5 c 128,-1,65
 744 468 744 468 768 514 c 0,66,67
 769 515 769 515 768 516.5 c 128,-1,68
 767 518 767 518 766 517 c 0,69,70
 691 503 691 503 386 441 c 0,71,72
 382 440 382 440 382 436 c 2,73,-1
 382 135 l 2,74,75
 382 81 382 81 411.5 61.5 c 128,-1,76
 441 42 441 42 531 42 c 0,77,78
 681 42 681 42 815 66 c 0,79,80
 828 68 828 68 838.5 59.5 c 128,-1,81
 849 51 849 51 849 37 c 2,82,-1
 848 20 l 2,83,84
 848 5 848 5 837.5 -6.5 c 128,-1,85
 827 -18 827 -18 812 -20 c 0,86,87
 680 -37 680 -37 525 -37 c 0,88,89
 455 -37 455 -37 410 -28 c 128,-1,90
 365 -19 365 -19 340.5 1 c 128,-1,91
 316 21 316 21 307.5 47 c 128,-1,92
 299 73 299 73 299 114 c 2,93,-1
 299 418 l 2,94,95
 299 423 299 423 295 422 c 0,96,97
 174 398 174 398 98 382 c 0,98,99
 84 379 84 379 72 387 c 128,-1,100
 60 395 60 395 57 410 c 2,101,-1
 54 426 l 2,102,103
 54 429 54 429 54 432 c 0,104,105
 54 443 54 443 60 452 c 0,106,107
 69 463 69 463 83 466 c 0,108,109
 147 475 147 475 295 503 c 0,110,111
 299 504 299 504 299 508 c 2,112,-1
 299 679 l 2,113,114
 299 713 299 713 297 738 c 0,115,116
 296 752 296 752 305 762.5 c 128,-1,117
 314 773 314 773 328 773 c 2,118,-1
 354 773 l 2,119,120
 368 773 368 773 377 762.5 c 128,-1,121
 386 752 386 752 385 738 c 0,122,123
 382 705 382 705 382 679 c 2,37,-1
EndSplineSet
Ligature2: "'ccmp' Glyph Composition/Decomposition lookup 5 subtable" cid01573 cid01539
EndChar

StartChar: cid01576
Encoding: 12478 12478 35
Width: 1024
GlyphClass: 3
Flags: W
LayerCount: 2
Fore
SplineSet
680.759765625 709.98828125 m 4,0,1
 638 796 638 796 624.1640625 809.939453125 c 4,2,3
 617 818 617 818 623.166015625 835.561523438 c 4,4,5
 629 850 629 850 644.166992188 858.151367188 c 4,6,7
 660 867 660 867 674.97265625 867.435546875 c 4,8,9
 691 867 691 867 698.5625 856.495117188 c 4,10,11
 701 853 701 853 756.408203125 756.538085938 c 4,12,13
 763 745 763 745 755.506835938 730.009765625 c 4,14,15
 749 715 749 715 732.533203125 705.805664062 c 4,16,17
 716 696 716 696 701.111328125 697.591796875 c 4,18,19
 687 700 687 700 680.759765625 709.98828125 c 4,0,1
841.413085938 826.46484375 m 4,20,21
 836 836 836 836 841 849.5 c 132,-1,22
 846 863 846 863 858.5 871 c 4,23,24
 878 883 878 883 894.317382812 882.623046875 c 4,25,26
 910.650390625 881.9296875 910.650390625 881.9296875 916.736328125 871.708984375 c 4,27,28
 935 836 935 836 974.31640625 771.611328125 c 4,29,30
 981.701171875 759.08984375 981.701171875 759.08984375 971.82421875 743.739257812 c 4,31,32
 963 729 963 729 948.5 720.5 c 132,-1,33
 934 712 934 712 920 712 c 132,-1,34
 906 712 906 712 898.874023438 725.639648438 c 4,35,36
 862 790 862 790 841.413085938 826.46484375 c 4,20,21
362 -35 m 0,37,38
 350 -42 350 -42 337 -42 c 0,39,40
 320 -42 320 -42 304 -28 c 2,41,-1
 282 -9 l 2,42,43
 273 -1 273 -1 274.5 11.5 c 128,-1,44
 276 24 276 24 287 29 c 0,45,46
 650 198 650 198 732 596 c 0,47,48
 737 617 737 617 740 643 c 0,49,50
 742 657 742 657 753.5 665.5 c 128,-1,51
 765 674 765 674 778 671 c 2,52,-1
 808 665 l 2,53,54
 822 663 822 663 829 650.5 c 128,-1,55
 836 638 836 638 833 624 c 0,56,57
 826 600 826 600 822 585 c 0,58,59
 809 529 809 529 793 480.5 c 128,-1,60
 777 432 777 432 752 373 c 128,-1,61
 727 314 727 314 692 261.5 c 128,-1,62
 657 209 657 209 611.5 156 c 128,-1,63
 566 103 566 103 502.5 54 c 128,-1,64
 439 5 439 5 362 -35 c 0,37,38
131 643 m 0,65,66
 125 651 125 651 125 660 c 0,67,68
 125 664 125 664 126 668 c 0,69,70
 130 682 130 682 142 688 c 2,71,-1
 159 697 l 2,72,73
 172 703 172 703 187 699.5 c 128,-1,74
 202 696 202 696 210 683 c 0,75,76
 267 594 267 594 346 453 c 0,77,78
 354 440 354 440 349.5 426 c 128,-1,79
 345 412 345 412 333 404 c 2,80,-1
 313 393 l 2,81,82
 305 389 305 389 296 389 c 0,83,84
 291 389 291 389 286 390 c 0,85,86
 272 395 272 395 266 408 c 0,87,88
 195 544 195 544 131 643 c 0,65,66
EndSplineSet
Ligature2: "'ccmp' Glyph Composition/Decomposition lookup 5 subtable" cid01575 cid01539
EndChar

StartChar: cid01578
Encoding: 12480 12480 36
Width: 1024
GlyphClass: 3
Flags: W
LayerCount: 2
Fore
SplineSet
756.759765625 713.98828125 m 0,0,1
 714 800 714 800 700.1640625 813.939453125 c 0,2,3
 693 822 693 822 699.166015625 839.561523438 c 0,4,5
 705 854 705 854 720.166992188 862.151367188 c 0,6,7
 736 871 736 871 750.97265625 871.435546875 c 0,8,9
 767 871 767 871 774.5625 860.495117188 c 0,10,11
 777 857 777 857 832.408203125 760.538085938 c 0,12,13
 839 749 839 749 831.506835938 734.009765625 c 0,14,15
 825 719 825 719 808.533203125 709.805664062 c 0,16,17
 792 700 792 700 777.111328125 701.591796875 c 0,18,19
 763 704 763 704 756.759765625 713.98828125 c 0,0,1
885.413085938 819.46484375 m 4,20,21
 880 829 880 829 885 842.5 c 132,-1,22
 890 856 890 856 902.5 864 c 4,23,24
 922 876 922 876 938.317382812 875.623046875 c 4,25,26
 955 875 955 875 960.736328125 864.708984375 c 4,27,28
 979 829 979 829 1018.31640625 764.611328125 c 4,29,30
 1026 752 1026 752 1015.82421875 736.739257812 c 4,31,32
 1007 722 1007 722 992.5 713.5 c 132,-1,33
 978 705 978 705 964 705 c 132,-1,34
 950 705 950 705 942.874023438 718.639648438 c 4,35,36
 906 783 906 783 885.413085938 819.46484375 c 4,20,21
792 689 m 0,37,38
 802 690 802 690 811 690 c 0,39,40
 838 690 838 690 857 679 c 2,41,-1
 863 675 l 2,42,43
 875 667 875 667 880 653 c 0,44,45
 881 646 881 646 881 640 c 0,46,47
 881 632 881 632 878 624 c 256,48,49
 875 616 875 616 869 601 c 0,50,51
 825 446 825 446 722 301 c 0,52,53
 720 297 720 297 724 295 c 0,54,55
 759 272 759 272 790 251 c 0,56,57
 802 243 802 243 804.5 228.5 c 128,-1,58
 807 214 807 214 798 202 c 2,59,-1
 784 185 l 2,60,61
 776 173 776 173 761 171 c 128,-1,62
 746 169 746 169 735 178 c 0,63,64
 706 200 706 200 669 225 c 0,65,66
 666 227 666 227 663 224 c 0,67,68
 514 56 514 56 297 -32 c 0,69,70
 286 -37 286 -37 275 -37 c 0,71,72
 255 -37 255 -37 237 -22 c 2,73,-1
 217 -5 l 2,74,75
 209 3 209 3 211 14.5 c 128,-1,76
 213 26 213 26 224 29 c 0,77,78
 439 104 439 104 592 270 c 0,79,80
 595 273 595 273 591 276 c 0,81,82
 495 338 495 338 402 391 c 0,83,84
 390 398 390 398 387.5 411.5 c 128,-1,85
 385 425 385 425 394 435 c 2,86,-1
 400 442 l 2,87,88
 410 454 410 454 425.5 457 c 128,-1,89
 441 460 441 460 454 452 c 0,90,91
 538 407 538 407 644 343 c 0,92,93
 648 341 648 341 651 345 c 0,94,95
 696 408 696 408 730 479 c 128,-1,96
 764 550 764 550 779 610 c 0,97,98
 780 614 780 614 776 614 c 2,99,-1
 437 614 l 2,100,101
 432 614 432 614 430 611 c 0,102,103
 323 464 323 464 190 366 c 0,104,105
 177 356 177 356 161 356.5 c 128,-1,106
 145 357 145 357 133 367 c 2,107,-1
 120 377 l 2,108,109
 111 384 111 384 111 396 c 0,110,111
 111 410 111 410 122 418 c 0,112,113
 229 490 229 490 305 581.5 c 128,-1,114
 381 673 381 673 421 754 c 0,115,116
 431 772 431 772 442 802 c 0,117,118
 448 816 448 816 461 822 c 0,119,120
 469 826 469 826 477 826 c 0,121,122
 482 826 482 826 487 825 c 2,123,-1
 512 817 l 2,124,125
 525 813 525 813 530 800 c 128,-1,126
 535 787 535 787 528 775 c 0,127,128
 517 755 517 755 501 725 c 0,129,130
 493 710 493 710 482 691 c 0,131,132
 479 687 479 687 484 687 c 2,133,-1
 759 687 l 2,134,135
 777 687 777 687 792 689 c 0,37,38
EndSplineSet
Ligature2: "'ccmp' Glyph Composition/Decomposition lookup 5 subtable" cid01577 cid01539
EndChar

StartChar: cid01580
Encoding: 12482 12482 37
Width: 1024
GlyphClass: 3
Flags: W
LayerCount: 2
Fore
SplineSet
763.885742188 505.348632812 m 4,0,1
 737 558 737 558 709.290039062 595.299804688 c 4,2,3
 702.443359375 604.26171875 702.443359375 604.26171875 708.291992188 620.921875 c 4,4,5
 714 635 714 635 729.29296875 643.51171875 c 4,6,7
 747 653 747 653 760.098632812 652.795898438 c 4,8,9
 777.263671875 651.737304688 777.263671875 651.737304688 783.688476562 641.85546875 c 4,10,11
 809 598 809 598 841.534179688 541.8984375 c 4,12,13
 844 537 844 537 838.6328125 525.370117188 c 4,14,15
 832 510 832 510 815.659179688 501.166015625 c 4,16,17
 799 491 799 491 784.237304688 492.952148438 c 132,-1,18
 769.623046875 495.0546875 769.623046875 495.0546875 763.885742188 505.348632812 c 4,0,1
882.5390625 608.825195312 m 4,19,20
 877 618 877 618 882.125976562 631.860351562 c 4,21,22
 887 645 887 645 899.625976562 653.360351562 c 4,23,24
 919 665 919 665 935.443359375 664.983398438 c 4,25,26
 952 664 952 664 957.862304688 654.069335938 c 4,27,28
 986 609 986 609 1013.44238281 563.971679688 c 4,29,30
 1021 551 1021 551 1010.95019531 536.099609375 c 4,31,32
 1002 521 1002 521 987.625976562 512.860351562 c 4,33,34
 973 504 973 504 959.125976562 504.360351562 c 4,35,36
 946 504 946 504 938 518 c 4,37,38
 883 608 883 608 882.5390625 608.825195312 c 4,19,20
571 468 m 2,39,40
 571 464 571 464 576 464 c 2,41,-1
 854 464 l 2,42,43
 872 464 872 464 899 465 c 0,44,45
 914 466 914 466 924.5 456.5 c 128,-1,46
 935 447 935 447 935 432 c 2,47,-1
 935 418 l 2,48,49
 935 404 935 404 924.5 394.5 c 128,-1,50
 914 385 914 385 900 386 c 0,51,52
 875 387 875 387 856 387 c 2,53,-1
 575 387 l 2,54,55
 570 387 570 387 570 383 c 0,56,57
 561 247 561 247 506 148.5 c 128,-1,58
 451 50 451 50 338 -23 c 0,59,60
 324 -33 324 -33 310 -33 c 0,61,62
 295 -33 295 -33 279 -22 c 2,63,-1
 257 -6 l 2,64,65
 248 1 248 1 248.5 12.5 c 128,-1,66
 249 24 249 24 260 30 c 0,67,68
 366 86 366 86 421.5 172 c 128,-1,69
 477 258 477 258 486 383 c 0,70,71
 486 387 486 387 482 387 c 2,72,-1
 182 387 l 2,73,74
 156 387 156 387 126 385 c 0,75,76
 112 385 112 385 101.5 394.5 c 128,-1,77
 91 404 91 404 91 418 c 2,78,-1
 91 432 l 2,79,80
 91 447 91 447 101.5 456.5 c 128,-1,81
 112 466 112 466 127 465 c 0,82,83
 156 464 156 464 180 464 c 2,84,-1
 484 464 l 2,85,86
 488 464 488 464 488 468 c 2,87,-1
 488 646 l 2,88,89
 488 650 488 650 484 650 c 0,90,91
 376 639 376 639 226 636 c 0,92,93
 210 636 210 636 197.5 645.5 c 128,-1,94
 185 655 185 655 181 670 c 2,95,-1
 179 677 l 2,96,97
 176 690 176 690 184 700.5 c 128,-1,98
 192 711 192 711 205 711 c 0,99,100
 221 711 221 711 237 711 c 0,101,102
 388 711 388 711 514 727 c 0,103,104
 655 747 655 747 745 775 c 0,105,106
 752 777 752 777 760 777 c 256,107,108
 768 777 768 777 775 775 c 0,109,110
 790 771 790 771 800 758 c 2,111,-1
 811 744 l 2,112,113
 819 734 819 734 814.5 722 c 128,-1,114
 810 710 810 710 798 707 c 2,115,-1
 774 700 l 2,116,117
 697 680 697 680 576 661 c 0,118,119
 571 660 571 660 571 656 c 2,120,-1
 571 468 l 2,39,40
EndSplineSet
Ligature2: "'ccmp' Glyph Composition/Decomposition lookup 5 subtable" cid01579 cid01539
EndChar

StartChar: cid01583
Encoding: 12485 12485 38
Width: 1024
GlyphClass: 3
Flags: W
LayerCount: 2
Fore
SplineSet
735.759765625 710.98828125 m 4,0,1
 693 797 693 797 679.1640625 810.939453125 c 4,2,3
 672 819 672 819 678.166015625 836.561523438 c 4,4,5
 684 851 684 851 699.166992188 859.151367188 c 4,6,7
 715 868 715 868 729.97265625 868.435546875 c 4,8,9
 746 868 746 868 753.5625 857.495117188 c 4,10,11
 756 854 756 854 811.408203125 757.538085938 c 4,12,13
 818 746 818 746 810.506835938 731.009765625 c 4,14,15
 804 716 804 716 787.533203125 706.805664062 c 4,16,17
 771 697 771 697 756.111328125 698.591796875 c 4,18,19
 742 701 742 701 735.759765625 710.98828125 c 4,0,1
882.413085938 824.46484375 m 0,20,21
 877 834 877 834 882 847.5 c 128,-1,22
 887 861 887 861 899.5 869 c 0,23,24
 919 881 919 881 935.317382812 880.623046875 c 0,25,26
 952 880 952 880 957.736328125 869.708984375 c 0,27,28
 976 834 976 834 1015.31640625 769.611328125 c 0,29,30
 1023 757 1023 757 1012.82421875 741.739257812 c 0,31,32
 1004 727 1004 727 989.5 718.5 c 128,-1,33
 975 710 975 710 961 710 c 128,-1,34
 947 710 947 710 939.874023438 723.639648438 c 0,35,36
 903 788 903 788 882.413085938 824.46484375 c 0,20,21
384 685 m 0,37,38
 378 699 378 699 384 712 c 128,-1,39
 390 725 390 725 403 729 c 2,40,-1
 415 733 l 2,41,42
 429 738 429 738 443 732 c 128,-1,43
 457 726 457 726 463 712 c 0,44,45
 503 614 503 614 539 510 c 0,46,47
 544 496 544 496 537.5 482.5 c 128,-1,48
 531 469 531 469 516 464 c 2,49,-1
 503 459 l 2,50,51
 490 455 490 455 477 461.5 c 128,-1,52
 464 468 464 468 460 482 c 0,53,54
 425 587 425 587 384 685 c 0,37,38
792 618 m 0,55,56
 795 633 795 633 807 640.5 c 128,-1,57
 819 648 819 648 833 645 c 2,58,-1
 857 639 l 2,59,60
 871 636 871 636 878 623.5 c 128,-1,61
 885 611 885 611 881 597 c 0,62,63
 874 574 874 574 873 572 c 0,64,65
 818 373 818 373 715 237 c 0,66,67
 643 143 643 143 546 69.5 c 128,-1,68
 449 -4 449 -4 345 -46 c 0,69,70
 334 -50 334 -50 324 -50 c 0,71,72
 304 -50 304 -50 287 -33 c 2,73,-1
 268 -13 l 2,74,75
 259 -4 259 -4 262 7.5 c 128,-1,76
 265 19 265 19 276 23 c 0,77,78
 381 60 381 60 478 128 c 128,-1,79
 575 196 575 196 644 285 c 0,80,81
 753 424 753 424 792 618 c 0,55,56
98 622 m 0,82,83
 94 629 94 629 94 636 c 0,84,85
 94 642 94 642 97 648 c 0,86,87
 102 661 102 661 115 666 c 2,88,-1
 129 671 l 2,89,90
 144 676 144 676 157.5 670 c 128,-1,91
 171 664 171 664 177 651 c 0,92,93
 227 538 227 538 265 436 c 0,94,95
 271 422 271 422 264.5 408.5 c 128,-1,96
 258 395 258 395 244 390 c 2,97,-1
 230 385 l 2,98,99
 224 383 224 383 218 383 c 0,100,101
 211 383 211 383 203 386 c 0,102,103
 190 393 190 393 185 406 c 0,104,105
 145 519 145 519 98 622 c 0,82,83
EndSplineSet
Ligature2: "'ccmp' Glyph Composition/Decomposition lookup 5 subtable" cid01582 cid01539
EndChar

StartChar: cid01585
Encoding: 12487 12487 39
Width: 1024
GlyphClass: 3
Flags: W
LayerCount: 2
Fore
SplineSet
739.759765625 710.98828125 m 4,0,1
 697 797 697 797 683.1640625 810.939453125 c 4,2,3
 676 819 676 819 682.166015625 836.561523438 c 4,4,5
 688 851 688 851 703.166992188 859.151367188 c 4,6,7
 719 868 719 868 733.97265625 868.435546875 c 4,8,9
 750 868 750 868 757.5625 857.495117188 c 4,10,11
 760 854 760 854 815.408203125 757.538085938 c 4,12,13
 822 746 822 746 814.506835938 731.009765625 c 4,14,15
 808 716 808 716 791.533203125 706.805664062 c 4,16,17
 775 697 775 697 760.111328125 698.591796875 c 4,18,19
 746 701 746 701 739.759765625 710.98828125 c 4,0,1
885.413085938 822.46484375 m 0,20,21
 880 832 880 832 885 845.5 c 128,-1,22
 890 859 890 859 902.5 867 c 0,23,24
 922 879 922 879 938.317382812 878.623046875 c 0,25,26
 955 878 955 878 960.736328125 867.708984375 c 0,27,28
 979 832 979 832 1018.31640625 767.611328125 c 0,29,30
 1026 755 1026 755 1015.82421875 739.739257812 c 0,31,32
 1007 725 1007 725 992.5 716.5 c 128,-1,33
 978 708 978 708 964 708 c 128,-1,34
 950 708 950 708 942.874023438 721.639648438 c 0,35,36
 906 786 906 786 885.413085938 822.46484375 c 0,20,21
593 676 m 6,37,-1
 313 676 l 2,38,39
 283 676 283 676 256 675 c 0,40,41
 241 674 241 674 230.5 684 c 128,-1,42
 220 694 220 694 220 708 c 2,43,-1
 220 722 l 2,44,45
 220 736 220 736 231 746 c 0,46,47
 240 754 240 754 252 754 c 0,48,49
 254 754 254 754 255 754 c 0,50,51
 287 752 287 752 312 752 c 2,52,-1
 593 752 l 6,53,54
 622 752 622 752 653 754 c 4,55,56
 667 755 667 755 677.5 745.5 c 132,-1,57
 688 736 688 736 688 722 c 6,58,-1
 688 708 l 6,59,60
 688 694 688 694 677.5 684 c 132,-1,61
 667 674 667 674 653 675 c 4,62,63
 622 676 622 676 593 676 c 6,37,-1
187 496 m 2,64,-1
 857 496 l 2,65,66
 880 496 880 496 902 497 c 0,67,68
 916 498 916 498 926.5 488.5 c 128,-1,69
 937 479 937 479 937 465 c 2,70,-1
 937 451 l 2,71,72
 937 437 937 437 926.5 427 c 128,-1,73
 916 417 916 417 901 417 c 0,74,75
 876 418 876 418 857 418 c 2,76,-1
 583 418 l 2,77,78
 579 418 579 418 578 413 c 0,79,80
 573 240 573 240 518 138 c 0,81,82
 494 93 494 93 448.5 47.5 c 128,-1,83
 403 2 403 2 347 -31 c 0,84,85
 334 -39 334 -39 320 -39 c 0,86,87
 304 -39 304 -39 288 -27 c 2,88,-1
 269 -14 l 2,89,90
 260 -7 260 -7 261 5 c 128,-1,91
 262 17 262 17 273 22 c 0,92,93
 323 48 323 48 365.5 85 c 128,-1,94
 408 122 408 122 434 164 c 0,95,96
 465 213 465 213 478 273.5 c 128,-1,97
 491 334 491 334 493 413 c 0,98,99
 494 418 494 418 489 418 c 2,100,-1
 187 418 l 2,101,102
 151 418 151 418 134 417 c 0,103,104
 119 417 119 417 108.5 427 c 128,-1,105
 98 437 98 437 98 451 c 2,106,-1
 98 465 l 2,107,108
 98 479 98 479 109 489 c 0,109,110
 118 498 118 498 131 498 c 0,111,112
 132 498 132 498 134 498 c 0,113,114
 161 496 161 496 187 496 c 2,64,-1
EndSplineSet
Ligature2: "'ccmp' Glyph Composition/Decomposition lookup 5 subtable" cid01584 cid01539
EndChar

StartChar: cid01587
Encoding: 12489 12489 40
Width: 1024
GlyphClass: 3
Flags: W
LayerCount: 2
Fore
SplineSet
635.759765625 624.98828125 m 0,0,1
 593 711 593 711 579.1640625 724.939453125 c 0,2,3
 572 733 572 733 578.166015625 750.561523438 c 0,4,5
 584 765 584 765 599.166992188 773.151367188 c 0,6,7
 615 782 615 782 629.97265625 782.435546875 c 0,8,9
 646 782 646 782 653.5625 771.495117188 c 0,10,11
 656 768 656 768 711.408203125 671.538085938 c 0,12,13
 718 660 718 660 710.506835938 645.009765625 c 0,14,15
 704 630 704 630 687.533203125 620.805664062 c 0,16,17
 671 611 671 611 656.111328125 612.591796875 c 0,18,19
 642 615 642 615 635.759765625 624.98828125 c 0,0,1
781.413085938 735.46484375 m 4,20,21
 776 745 776 745 781 758.5 c 132,-1,22
 786 772 786 772 798.5 780 c 4,23,24
 818 792 818 792 834.317382812 791.623046875 c 4,25,26
 851 791 851 791 856.736328125 780.708984375 c 4,27,28
 875 745 875 745 914.31640625 680.611328125 c 4,29,30
 922 668 922 668 911.82421875 652.739257812 c 4,31,32
 903 638 903 638 888.5 629.5 c 132,-1,33
 874 621 874 621 860 621 c 132,-1,34
 846 621 846 621 838.874023438 634.639648438 c 4,35,36
 802 699 802 699 781.413085938 735.46484375 c 4,20,21
398 673 m 2,37,-1
 398 509 l 2,38,39
 398 505 398 505 403 504 c 0,40,41
 624 436 624 436 804 352 c 0,42,43
 817 346 817 346 822 332 c 0,44,45
 825 325 825 325 825 318 c 256,46,47
 825 311 825 311 822 304 c 2,48,-1
 813 283 l 2,49,50
 808 270 808 270 794.5 265 c 128,-1,51
 781 260 781 260 768 266 c 0,52,53
 609 347 609 347 403 412 c 0,54,55
 398 414 398 414 398 409 c 2,56,-1
 398 77 l 2,57,58
 398 35 398 35 401 -9 c 0,59,60
 402 -23 402 -23 392.5 -33.5 c 128,-1,61
 383 -44 383 -44 369 -44 c 2,62,-1
 342 -44 l 2,63,64
 328 -44 328 -44 318 -33.5 c 128,-1,65
 308 -23 308 -23 309 -9 c 0,66,67
 312 33 312 33 312 77 c 2,68,-1
 312 673 l 1,69,-1
 309 748 l 2,70,71
 309 759 309 759 317 769 c 0,72,73
 326 779 326 779 340 779 c 2,74,-1
 369 779 l 2,75,76
 383 779 383 779 393 768.5 c 128,-1,77
 403 758 403 758 401 744 c 0,78,79
 398 701 398 701 398 673 c 2,37,-1
EndSplineSet
Ligature2: "'ccmp' Glyph Composition/Decomposition lookup 5 subtable" cid01586 cid01539
EndChar

StartChar: cid01594
Encoding: 12496 12496 41
Width: 1024
GlyphClass: 3
Flags: W
LayerCount: 2
Fore
SplineSet
722.759765625 710.98828125 m 4,0,1
 680 797 680 797 666.1640625 810.939453125 c 4,2,3
 659 819 659 819 665.166015625 836.561523438 c 4,4,5
 671 851 671 851 686.166992187 859.151855469 c 4,6,7
 702 868 702 868 716.973144531 868.436035156 c 4,8,9
 733 868 733 868 740.5625 857.495117188 c 4,10,11
 743 854 743 854 798.408203125 757.538085938 c 4,12,13
 805 746 805 746 797.506835938 731.009765625 c 4,14,15
 791 716 791 716 774.533691406 706.805175781 c 4,16,17
 758 697 758 697 743.111328125 698.591796875 c 4,18,19
 729 701 729 701 722.759765625 710.98828125 c 4,0,1
882.413085938 821.46484375 m 4,20,21
 877 831 877 831 882 844.5 c 132,-1,22
 887 858 887 858 899.5 866 c 4,23,24
 919 878 919 878 935.317382812 877.623046875 c 4,25,26
 952 877 952 877 957.736328125 866.708984375 c 4,27,28
 976 831 976 831 1015.31640625 766.611328125 c 4,29,30
 1023 754 1023 754 1012.82421875 738.739257812 c 4,31,32
 1004 724 1004 724 989.5 715.5 c 132,-1,33
 975 707 975 707 961 707 c 132,-1,34
 947 707 947 707 939.874023438 720.639648438 c 4,35,36
 903 785 903 785 882.413085938 821.46484375 c 4,20,21
223 308 m 0,37,38
 254 381 254 381 280 475 c 128,-1,39
 306 569 306 569 319 652 c 0,40,41
 321 666 321 666 332.5 674.5 c 128,-1,42
 344 683 344 683 358 680 c 2,43,-1
 380 676 l 2,44,45
 394 673 394 673 401.5 660.5 c 128,-1,46
 409 648 409 648 406 634 c 0,47,48
 399 610 399 610 396 594 c 0,49,50
 350 388 350 388 303 274 c 0,51,52
 249 139 249 139 172 22 c 0,53,54
 164 9 164 9 149 5 c 0,55,56
 143 3 143 3 137 3 c 0,57,58
 128 3 128 3 120 7 c 2,59,-1
 98 16 l 2,60,61
 86 21 86 21 82 34 c 0,62,63
 81 38 81 38 81 42 c 0,64,65
 81 51 81 51 86 58 c 0,66,67
 167 173 167 173 223 308 c 0,37,38
727 347 m 0,68,69
 659 523 659 523 596 640 c 0,70,71
 592 647 592 647 592 654 c 0,72,73
 592 659 592 659 594 665 c 0,74,75
 599 678 599 678 612 682 c 2,76,-1
 628 687 l 2,77,78
 635 689 635 689 641 689 c 0,79,80
 649 689 649 689 657 686 c 0,81,82
 671 681 671 681 678 667 c 0,83,84
 749 530 749 530 811 375 c 0,85,86
 871 230 871 230 924 59 c 0,87,88
 925 53 925 53 925 48 c 0,89,90
 925 39 925 39 921 31 c 0,91,92
 914 18 914 18 900 14 c 2,93,-1
 877 6 l 2,94,95
 871 4 871 4 866 4 c 0,96,97
 858 4 858 4 850 8 c 0,98,99
 838 15 838 15 834 29 c 0,100,101
 795 175 795 175 727 347 c 0,68,69
EndSplineSet
Ligature2: "'ccmp' Glyph Composition/Decomposition lookup 5 subtable" cid01593 cid01539
EndChar

StartChar: cid01595
Encoding: 12497 12497 42
Width: 1024
GlyphClass: 3
Flags: W
LayerCount: 2
Fore
SplineSet
727 347 m 0,0,1
 659 523 659 523 596 640 c 0,2,3
 592 647 592 647 592 654 c 0,4,5
 592 659 592 659 594 665 c 0,6,7
 599 678 599 678 612 682 c 2,8,-1
 628 687 l 2,9,10
 635 689 635 689 641 689 c 0,11,12
 649 689 649 689 657 686 c 0,13,14
 658.124479604 685.598400142 658.124479604 685.598400142 659.203800122 685.138738602 c 1,15,16
 665.680247782 740.680247782 665.680247782 740.680247782 707 782 c 0,17,18
 756 831 756 831 822 831 c 0,19,20
 892 831 892 831 942 782 c 128,-1,21
 992 733 992 733 992 664 c 128,-1,22
 992 595 992 595 942 546 c 128,-1,23
 892 497 892 497 822 497 c 0,24,25
 784.366474128 497 784.366474128 497 752.858736619 512.00818149 c 1,26,27
 782.856587972 445.35853007 782.856587972 445.35853007 811 375 c 0,28,29
 871 230 871 230 924 59 c 0,30,31
 925 53 925 53 925 48 c 0,32,33
 925 39 925 39 921 31 c 0,34,35
 914 18 914 18 900 14 c 2,36,-1
 877 6 l 2,37,38
 871 4 871 4 866 4 c 0,39,40
 858 4 858 4 850 8 c 0,41,42
 838 15 838 15 834 29 c 0,43,44
 795 175 795 175 727 347 c 0,0,1
223 308 m 0,45,46
 254 381 254 381 280 475 c 128,-1,47
 306 569 306 569 319 652 c 0,48,49
 321 666 321 666 332.5 674.5 c 128,-1,50
 344 683 344 683 358 680 c 2,51,-1
 380 676 l 2,52,53
 394 673 394 673 401.5 660.5 c 128,-1,54
 409 648 409 648 406 634 c 0,55,56
 399 610 399 610 396 594 c 0,57,58
 350 388 350 388 303 274 c 0,59,60
 249 139 249 139 172 22 c 0,61,62
 164 9 164 9 149 5 c 0,63,64
 143 3 143 3 137 3 c 0,65,66
 128 3 128 3 120 7 c 2,67,-1
 98 16 l 2,68,69
 86 21 86 21 82 34 c 0,70,71
 81 38 81 38 81 42 c 0,72,73
 81 51 81 51 86 58 c 0,74,75
 167 173 167 173 223 308 c 0,45,46
728 664 m 128,-1,77
 728 623 728 623 756 594 c 128,-1,78
 784 565 784 565 822 565 c 0,79,80
 864 565 864 565 893 594 c 128,-1,81
 922 623 922 623 922 664 c 128,-1,82
 922 705 922 705 893 734 c 128,-1,83
 864 763 864 763 822 763 c 0,84,85
 783 763 783 763 755.5 734 c 128,-1,76
 728 705 728 705 728 664 c 128,-1,77
EndSplineSet
Ligature2: "'ccmp' Glyph Composition/Decomposition lookup 5 subtable" cid01593 cid01540
EndChar

StartChar: cid01597
Encoding: 12499 12499 43
Width: 1024
GlyphClass: 3
Flags: W
LayerCount: 2
Fore
SplineSet
675.759765625 676.98828125 m 4,0,1
 633 763 633 763 619.1640625 776.939453125 c 4,2,3
 612 785 612 785 618.166015625 802.561523438 c 4,4,5
 624 817 624 817 639.166992188 825.151367188 c 4,6,7
 655 834 655 834 669.97265625 834.435546875 c 4,8,9
 686 834 686 834 693.5625 823.495117188 c 4,10,11
 696 820 696 820 751.408203125 723.538085938 c 4,12,13
 758 712 758 712 750.506835938 697.009765625 c 4,14,15
 744 682 744 682 727.533203125 672.805664062 c 4,16,17
 711 663 711 663 696.111328125 664.591796875 c 4,18,19
 682 667 682 667 675.759765625 676.98828125 c 4,0,1
835.413085938 787.46484375 m 4,20,21
 830 797 830 797 835 810.5 c 132,-1,22
 840 824 840 824 852.5 832 c 4,23,24
 872 844 872 844 888.317382812 843.623046875 c 4,25,26
 905 843 905 843 910.736328125 832.708984375 c 4,27,28
 929 797 929 797 968.31640625 732.611328125 c 4,29,30
 976 720 976 720 965.82421875 704.739257812 c 4,31,32
 957 690 957 690 942.5 681.5 c 132,-1,33
 928 673 928 673 914 673 c 132,-1,34
 900 673 900 673 892.874023438 686.639648438 c 4,35,36
 856 751 856 751 835.413085938 787.46484375 c 4,20,21
285 371 m 0,37,38
 281 370 281 370 281 365 c 2,39,-1
 281 144 l 2,40,41
 281 107 281 107 296.5 92 c 128,-1,42
 312 77 312 77 352 69 c 0,43,44
 403 60 403 60 487 60 c 0,45,46
 674 60 674 60 803 85 c 0,47,48
 816 88 816 88 827 79.5 c 128,-1,49
 838 71 838 71 838 58 c 2,50,-1
 838 36 l 2,51,52
 838 20 838 20 828 8.5 c 128,-1,53
 818 -3 818 -3 802 -5 c 0,54,55
 658 -22 658 -22 483 -22 c 0,56,57
 379 -22 379 -22 319 -11 c 0,58,59
 258 0 258 0 227.5 31 c 128,-1,60
 197 62 197 62 197 122 c 2,61,-1
 197 685 l 1,62,-1
 195 736 l 2,63,64
 195 748 195 748 203 757 c 0,65,66
 212 768 212 768 226 768 c 2,67,-1
 250 768 l 2,68,69
 264 768 264 768 273.5 757.5 c 128,-1,70
 283 747 283 747 282 733 c 0,71,72
 281 708 281 708 281 685 c 2,73,-1
 281 458 l 2,74,75
 281 454 281 454 285 455 c 0,76,77
 515 512 515 512 670 579 c 0,78,79
 700 591 700 591 729 607 c 0,80,81
 741 614 741 614 754.5 609.5 c 128,-1,82
 768 605 768 605 774 592 c 2,83,-1
 781 575 l 2,84,85
 787 562 787 562 781.5 548 c 128,-1,86
 776 534 776 534 763 529 c 0,87,88
 723 511 723 511 699 503 c 0,89,90
 528 434 528 434 285 371 c 0,37,38
EndSplineSet
Ligature2: "'ccmp' Glyph Composition/Decomposition lookup 5 subtable" cid01596 cid01539
EndChar

StartChar: cid01598
Encoding: 12500 12500 44
Width: 1024
GlyphClass: 3
Flags: W
LayerCount: 2
Fore
SplineSet
285 371 m 0,0,1
 281 370 281 370 281 365 c 2,2,-1
 281 144 l 2,3,4
 281 107 281 107 296.5 92 c 128,-1,5
 312 77 312 77 352 69 c 0,6,7
 403 60 403 60 487 60 c 0,8,9
 695 60 695 60 803 85 c 0,10,11
 816 88 816 88 827 79.5 c 128,-1,12
 838 71 838 71 838 58 c 2,13,-1
 838 36 l 2,14,15
 838 20 838 20 828 8.5 c 128,-1,16
 818 -3 818 -3 802 -5 c 0,17,18
 658 -22 658 -22 483 -22 c 0,19,20
 379 -22 379 -22 319 -11 c 0,21,22
 258 0 258 0 227.5 31 c 128,-1,23
 197 62 197 62 197 122 c 2,24,-1
 197 685 l 1,25,-1
 195 736 l 2,26,27
 195 747.222222222 195 747.222222222 203 757 c 0,28,29
 212 768 212 768 226 768 c 2,30,-1
 250 768 l 2,31,32
 264 768 264 768 273.5 757.5 c 128,-1,33
 283 747 283 747 282 733 c 0,34,35
 281 708 281 708 281 685 c 2,36,-1
 281 458 l 2,37,38
 281 454 281 454 285 455 c 0,39,40
 482 504 482 504 670 579 c 0,41,42
 674.407522633 582.218402662 674.407522633 582.218402662 682.354450044 586.371164837 c 1,43,44
 660 623.911975898 660 623.911975898 660 671 c 0,45,46
 660 740 660 740 709 789 c 128,-1,47
 758 838 758 838 824 838 c 0,48,49
 894 838 894 838 943.5 789 c 128,-1,50
 993 740 993 740 993 671 c 128,-1,51
 993 602 993 602 943.5 553.5 c 128,-1,52
 894 505 894 505 824 505 c 0,53,54
 782.699456892 505 782.699456892 505 748.776659723 522.891033901 c 1,55,56
 731.698789751 515.823054804 731.698789751 515.823054804 699 503 c 0,57,58
 503 426 503 426 285 371 c 0,0,1
729 671.5 m 128,-1,60
 729 631 729 631 757 602 c 128,-1,61
 785 573 785 573 824 573 c 0,62,63
 866 573 866 573 895 602 c 128,-1,64
 924 631 924 631 924 671.5 c 128,-1,65
 924 712 924 712 895 741 c 128,-1,66
 866 770 866 770 824 770 c 0,67,68
 785 770 785 770 757 741 c 128,-1,59
 729 712 729 712 729 671.5 c 128,-1,60
EndSplineSet
Ligature2: "'ccmp' Glyph Composition/Decomposition lookup 5 subtable" cid01596 cid01540
EndChar

StartChar: cid01600
Encoding: 12502 12502 45
Width: 1024
GlyphClass: 3
Flags: W
LayerCount: 2
Fore
SplineSet
779 809 m 0,0,1
 785 802 785 802 779 784 c 0,2,3
 774 770 774 770 762 757.5 c 128,-1,4
 750 745 750 745 735 743 c 0,5,6
 719.633789062 740.288085938 719.633789062 740.288085938 712.5 748 c 0,7,8
 677 791 677 791 653 811 c 0,9,10
 646 818 646 818 651 834 c 0,11,12
 654 843 654 843 674 864 c 0,13,14
 689 880 689 880 699 878 c 0,15,16
 710 876 710 876 713 873 c 0,17,18
 738 852 738 852 779 809 c 0,0,1
870 814 m 0,19,20
 863 819 863 819 864 823 c 0,21,22
 865 829 865 829 867 835 c 0,23,24
 874 854 874 854 887 864 c 0,25,26
 892 868 892 868 899 872 c 0,27,28
 906 877 906 877 915 879 c 0,29,30
 931 882 931 882 940 875 c 0,31,-1
 997 813 l 0,32,33
 1001 809 1001 809 1002 803 c 256,34,35
 1002 793 1002 793 1000 789 c 0,36,37
 992 764 992 764 984 758.5 c 128,-1,38
 976 753 976 753 971 749 c 0,39,40
 969 747 969 747 952 744 c 0,41,42
 937 741 937 741 929 751 c 0,43,44
 899 789 899 789 870 814 c 0,19,20
768 703 m 4,45,46
 772 703 772 703 776 703 c 4,47,48
 812 703 812 703 833 689 c 6,49,-1
 836 687 l 6,50,51
 848 679 848 679 853 664 c 4,52,53
 856 656 856 656 856 648 c 4,54,55
 856 641 856 641 854.5 634 c 132,-1,56
 853 627 853 627 850 617 c 4,57,58
 829 517 829 517 791 413.5 c 132,-1,59
 753 310 753 310 698 239 c 4,60,61
 569 72 569 72 328 -24 c 4,62,63
 318 -28 318 -28 309 -28 c 4,64,65
 287.416666667 -28 287.416666667 -28 270 -9 c 6,66,-1
 248 15 l 6,67,68
 240 24 240 24 243.5 35.5 c 132,-1,69
 247 47 247 47 259 51 c 4,70,71
 385 87 385 87 472 146 c 132,-1,72
 559 205 559 205 624 288 c 4,73,74
 675 353 675 353 710.5 445 c 4,75,76
 758 568 758 568 758 617 c 4,77,78
 758 622 758 622 754 622 c 6,79,-1
 235 622 l 6,80,81
 206 620 206 620 168 620 c 4,82,83
 153 620 153 620 142.5 630 c 132,-1,84
 132 640 132 640 132 654 c 6,85,-1
 132 673 l 6,86,87
 132 686 132 686 143 697 c 4,88,89
 152 706 152 706 165 706 c 4,90,91
 166 706 166 706 168 706 c 4,92,93
 206 703 206 703 235 703 c 6,94,-1
 749 703 l 6,95,96
 758 703 758 703 768 703 c 4,45,46
EndSplineSet
Ligature2: "'ccmp' Glyph Composition/Decomposition lookup 5 subtable" cid01599 cid01539
EndChar

StartChar: cid01601
Encoding: 12503 12503 46
Width: 1024
GlyphClass: 3
Flags: W
LayerCount: 2
Fore
SplineSet
745 687.5 m 128,-1,1
 745 647 745 647 773 618 c 128,-1,2
 801 589 801 589 840 589 c 0,3,4
 882 589 882 589 911 618 c 128,-1,5
 940 647 940 647 940 687.5 c 128,-1,6
 940 728 940 728 911 757 c 128,-1,7
 882 786 882 786 840 786 c 0,8,9
 801 786 801 786 773 757 c 128,-1,0
 745 728 745 728 745 687.5 c 128,-1,1
689.316845705 620 m 1,10,-1
 235 620 l 2,11,12
 206 620 206 620 168 618 c 0,13,14
 153 618 153 618 142.5 628 c 128,-1,15
 132 638 132 638 132 652 c 2,16,-1
 132 671 l 2,17,18
 132 686 132 686 143 695 c 0,19,20
 152 704 152 704 165 704 c 2,21,-1
 168 704 l 2,22,23
 206 701 206 701 235 701 c 2,24,-1
 676.519703789 701 l 1,25,26
 681.046333882 761.046333882 681.046333882 761.046333882 725 805 c 0,27,28
 774 854 774 854 840 854 c 0,29,30
 910 854 910 854 959.5 805 c 128,-1,31
 1009 756 1009 756 1009 687 c 128,-1,32
 1009 618 1009 618 959.5 569.5 c 128,-1,33
 910 521 910 521 840 521 c 0,34,35
 833.206182508 521 833.206182508 521 826.612001505 521.484118484 c 1,36,37
 811.195886479 467.538687818 811.195886479 467.538687818 791 412 c 0,38,39
 753 308 753 308 698 237 c 0,40,41
 556 54 556 54 328 -26 c 0,42,43
 318 -30 318 -30 309 -30 c 0,44,45
 287 -30 287 -30 270 -11 c 2,46,-1
 248 13 l 2,47,48
 240 22 240 22 243.5 33.5 c 128,-1,49
 247 45 247 45 259 49 c 0,50,51
 385 85 385 85 472 144 c 128,-1,52
 559 203 559 203 624 286 c 0,53,54
 674 351 674 351 710 443 c 0,55,56
 731.961477118 499.039631266 731.961477118 499.039631266 745.320579493 551.064820985 c 1,57,58
 734.208017119 559.18564937 734.208017119 559.18564937 724 569.5 c 0,59,60
 701.282574905 592.454064939 701.282574905 592.454064939 689.316845705 620 c 1,10,-1
EndSplineSet
Ligature2: "'ccmp' Glyph Composition/Decomposition lookup 5 subtable" cid01599 cid01540
EndChar

StartChar: cid01602
Encoding: 12504 12504 47
Width: 1024
GlyphClass: 2
Flags: W
LayerCount: 2
Fore
SplineSet
86.765625 285.275390625 m 4,0,1
 63 292 63 292 62.9111328125 292.205078125 c 4,2,3
 51.8825785321 298.062362749 51.8825785321 298.062362749 51.8974609375 315.350585938 c 6,4,-1
 51.92578125 348.249023438 l 6,5,6
 52 370 52 370 61.4296875 371.045898438 c 4,7,8
 74 373 74 373 85.708984375 374.388671875 c 4,9,-1
 199 371 l 4,10,11
 211.077922078 383.077922078 211.077922078 383.077922078 251 437.5 c 6,12,13
 357 582 l 6,14,15
 388 625 388 625 435 648 c 4,16,17
 437 649 437 649 440 649 c 4,18,19
 460 649 460 649 513 606 c 4,20,21
 561 567 561 567 721 394 c 4,22,23
 911 190 911 190 945 148 c 4,24,25
 954 137 954 137 954 122 c 4,26,27
 954 106.052631579 954 106.052631579 944 95 c 6,28,-1
 925 74 l 6,29,30
 917 65 917 65 903 65 c 6,31,-1
 902 65 l 4,32,33
 888 65 888 65 879 76 c 4,34,35
 828 139 828 139 671 317 c 4,36,37
 520 488 520 488 475 526 c 4,38,39
 445 551 445 551 443 551 c 6,40,-1
 442 551 l 4,41,-1
 409 518 l 4,42,43
 363 451 363 451 280 342 c 4,44,-1
 232 281 l 4,45,46
 119 276 119 276 86.765625 285.275390625 c 4,0,1
EndSplineSet
EndChar

StartChar: cid01603
Encoding: 12505 12505 48
Width: 1024
GlyphClass: 3
Flags: W
LayerCount: 2
Fore
SplineSet
86.765625 270.275390625 m 4,0,1
 63 277 63 277 62.9111328125 277.205078125 c 4,2,3
 51.8828125 283.0625 51.8828125 283.0625 51.8974609375 300.350585938 c 6,4,-1
 51.92578125 333.249023438 l 6,5,6
 52 355 52 355 61.4296875 356.045898438 c 4,7,8
 74 358 74 358 85.708984375 359.388671875 c 4,9,-1
 199 356 l 4,10,11
 211.078125 368.078125 211.078125 368.078125 251 422.5 c 6,12,13
 357 567 l 6,14,15
 388 610 388 610 435 633 c 4,16,17
 437 634 437 634 440 634 c 4,18,19
 460 634 460 634 513 591 c 4,20,21
 561 552 561 552 721 379 c 4,22,23
 911 175 911 175 945 133 c 4,24,25
 954 122 954 122 954 107 c 4,26,27
 954 91.052734375 954 91.052734375 944 80 c 6,28,-1
 925 59 l 6,29,30
 917 50 917 50 903 50 c 6,31,-1
 902 50 l 4,32,33
 888 50 888 50 879 61 c 4,34,35
 828 124 828 124 671 302 c 4,36,37
 520 473 520 473 475 511 c 4,38,39
 445 536 445 536 443 536 c 6,40,-1
 442 536 l 4,41,-1
 409 503 l 4,42,43
 363 436 363 436 280 327 c 4,44,-1
 232 266 l 4,45,46
 119 261 119 261 86.765625 270.275390625 c 4,0,1
681.759765625 553.98828125 m 0,47,48
 639 640 639 640 625.1640625 653.939453125 c 0,49,50
 618 662 618 662 624.166015625 679.561523438 c 0,51,52
 630 694 630 694 645.166992188 702.151367188 c 0,53,54
 661 711 661 711 675.97265625 711.435546875 c 0,55,56
 692 711 692 711 699.5625 700.495117188 c 0,57,58
 702 697 702 697 757.408203125 600.538085938 c 0,59,60
 764 589 764 589 756.506835938 574.009765625 c 0,61,62
 750 559 750 559 733.533203125 549.805664062 c 0,63,64
 717 540 717 540 702.111328125 541.591796875 c 0,65,66
 688 544 688 544 681.759765625 553.98828125 c 0,47,48
841.413085938 664.46484375 m 0,67,68
 836 674 836 674 841 687.5 c 128,-1,69
 846 701 846 701 858.5 709 c 0,70,71
 878 721 878 721 894.317382812 720.623046875 c 0,72,73
 911 720 911 720 916.736328125 709.708984375 c 0,74,75
 935 674 935 674 974.31640625 609.611328125 c 0,76,77
 982 597 982 597 971.82421875 581.739257812 c 0,78,79
 963 567 963 567 948.5 558.5 c 128,-1,80
 934 550 934 550 920 550 c 128,-1,81
 906 550 906 550 898.874023438 563.639648438 c 0,82,83
 862 628 862 628 841.413085938 664.46484375 c 0,67,68
EndSplineSet
Ligature2: "'ccmp' Glyph Composition/Decomposition lookup 5 subtable" cid01602 cid01539
EndChar

StartChar: cid01604
Encoding: 12506 12506 49
Width: 1024
GlyphClass: 3
Flags: W
LayerCount: 2
Fore
SplineSet
86.765625 270.275390625 m 4,0,1
 63 277 63 277 62.9111328125 277.205078125 c 4,2,3
 51.8828125 283.0625 51.8828125 283.0625 51.8974609375 300.350585938 c 6,4,-1
 51.92578125 333.249023438 l 6,5,6
 52 355 52 355 61.4296875 356.045898438 c 4,7,8
 74 358 74 358 85.708984375 359.388671875 c 4,9,-1
 199 356 l 4,10,11
 211.078125 368.078125 211.078125 368.078125 251 422.5 c 6,12,13
 357 567 l 6,14,15
 388 610 388 610 435 633 c 4,16,17
 437 634 437 634 440 634 c 4,18,19
 460 634 460 634 513 591 c 4,20,21
 561 552 561 552 721 379 c 4,22,23
 911 175 911 175 945 133 c 4,24,25
 954 122 954 122 954 107 c 4,26,27
 954 91.052734375 954 91.052734375 944 80 c 6,28,-1
 925 59 l 6,29,30
 917 50 917 50 903 50 c 6,31,-1
 902 50 l 4,32,33
 888 50 888 50 879 61 c 4,34,35
 828 124 828 124 671 302 c 4,36,37
 520 473 520 473 475 511 c 4,38,39
 445 536 445 536 443 536 c 6,40,-1
 442 536 l 4,41,-1
 409 503 l 4,42,43
 363 436 363 436 280 327 c 4,44,-1
 232 266 l 4,45,46
 119 261 119 261 86.765625 270.275390625 c 4,0,1
702 620.5 m 128,-1,48
 702 580 702 580 730 551 c 128,-1,49
 758 522 758 522 797 522 c 0,50,51
 839 522 839 522 868 551 c 128,-1,52
 897 580 897 580 897 620.5 c 128,-1,53
 897 661 897 661 868 690 c 128,-1,54
 839 719 839 719 797 719 c 0,55,56
 758 719 758 719 730 690 c 128,-1,47
 702 661 702 661 702 620.5 c 128,-1,48
633 620 m 128,-1,58
 633 689 633 689 682 738 c 128,-1,59
 731 787 731 787 797 787 c 0,60,61
 867 787 867 787 916.5 738 c 128,-1,62
 966 689 966 689 966 620 c 128,-1,63
 966 551 966 551 916.5 502.5 c 128,-1,64
 867 454 867 454 797 454 c 0,65,66
 729 454 729 454 681 502.5 c 128,-1,57
 633 551 633 551 633 620 c 128,-1,58
EndSplineSet
Ligature2: "'ccmp' Glyph Composition/Decomposition lookup 5 subtable" cid01602 cid01540
EndChar

StartChar: cid01606
Encoding: 12508 12508 50
Width: 1024
GlyphClass: 3
Flags: W
LayerCount: 2
Fore
SplineSet
710.759765625 691.98828125 m 4,0,1
 668 778 668 778 654.1640625 791.939453125 c 4,2,3
 647 800 647 800 653.166015625 817.561523438 c 4,4,5
 659 832 659 832 674.166992188 840.151367188 c 4,6,7
 690 849 690 849 704.97265625 849.435546875 c 4,8,9
 721 849 721 849 728.5625 838.495117188 c 4,10,11
 731 835 731 835 786.408203125 738.538085938 c 4,12,13
 793 727 793 727 785.506835938 712.009765625 c 4,14,15
 779 697 779 697 762.533203125 687.805664062 c 4,16,17
 746 678 746 678 731.111328125 679.591796875 c 4,18,19
 717 682 717 682 710.759765625 691.98828125 c 4,0,1
870.413085938 802.46484375 m 4,20,21
 865 812 865 812 870 825.5 c 132,-1,22
 875 839 875 839 887.5 847 c 4,23,24
 907 859 907 859 923.317382812 858.623046875 c 4,25,26
 940 858 940 858 945.736328125 847.708984375 c 4,27,28
 964 812 964 812 1003.31640625 747.611328125 c 4,29,30
 1011 735 1011 735 1000.82421875 719.739257812 c 4,31,32
 992 705 992 705 977.5 696.5 c 132,-1,33
 963 688 963 688 949 688 c 132,-1,34
 935 688 935 688 927.874023438 701.639648438 c 4,35,36
 891 766 891 766 870.413085938 802.46484375 c 4,20,21
242 379 m 0,37,38
 249 392 249 392 263 396.5 c 128,-1,39
 277 401 277 401 290 395 c 2,40,-1
 298 391 l 2,41,42
 311 385 311 385 315.5 371 c 128,-1,43
 320 357 320 357 313 344 c 0,44,45
 252 236 252 236 156 121 c 0,46,47
 147 109 147 109 131.5 107.5 c 128,-1,48
 116 106 116 106 104 114 c 2,49,-1
 92 122 l 2,50,51
 79 131 79 131 79 147 c 0,52,53
 79 159 79 159 87 167 c 0,54,55
 128 211 128 211 170.5 269 c 128,-1,56
 213 327 213 327 242 379 c 0,37,38
829 534 m 2,57,-1
 553 534 l 2,58,59
 549 534 549 534 549 529 c 2,60,-1
 549 38 l 2,61,62
 549 -3 549 -3 527.5 -23.5 c 128,-1,63
 506 -44 506 -44 461 -44 c 0,64,65
 411 -44 411 -44 351 -40 c 0,66,67
 335 -39 335 -39 324 -28 c 128,-1,68
 313 -17 313 -17 312 -2 c 2,69,-1
 311 10 l 2,70,71
 310 24 310 24 319 32 c 0,72,73
 329 41 329 41 342 40 c 0,74,75
 392 33 392 33 426 33 c 0,76,77
 466 33 466 33 466 72 c 2,78,-1
 466 529 l 2,79,80
 466 534 466 534 461 534 c 2,81,-1
 181 534 l 2,82,83
 155 532 155 532 130 532 c 0,84,85
 115 532 115 532 104.5 542 c 128,-1,86
 94 552 94 552 94 566 c 2,87,-1
 94 581 l 2,88,89
 94 595 94 595 104.5 604.5 c 128,-1,90
 115 614 115 614 130 613 c 0,91,92
 155 611 155 611 181 611 c 2,93,-1
 461 611 l 2,94,95
 466 611 466 611 466 616 c 2,96,-1
 466 717 l 2,97,98
 466 734 466 734 464 754 c 0,99,100
 463 768 463 768 472 779 c 128,-1,101
 481 790 481 790 494 790 c 2,102,-1
 520 790 l 2,103,104
 533 790 533 790 542.5 779 c 128,-1,105
 552 768 552 768 551 754 c 0,106,107
 549 732 549 732 549 716 c 2,108,-1
 549 616 l 2,109,110
 549 611 549 611 553 611 c 2,111,-1
 828 611 l 2,112,113
 854 611 854 611 877 613 c 0,114,115
 895 614 895 614 903.5 606.5 c 128,-1,116
 912 599 912 599 912 581 c 2,117,-1
 912 567 l 2,118,119
 912 553 912 553 901.5 543 c 128,-1,120
 891 533 891 533 877 533 c 0,121,122
 860 534 860 534 829 534 c 2,57,-1
710 345 m 0,123,124
 704 353 704 353 704 363 c 0,125,126
 704 366 704 366 705 369 c 0,127,128
 707 383 707 383 720 389 c 2,129,-1
 726 393 l 2,130,131
 736 398 736 398 746 398 c 0,132,133
 751 398 751 398 755 397 c 0,134,135
 770 394 770 394 780 382 c 0,136,137
 847 293 847 293 917 173 c 0,138,139
 922 165 922 165 922 156 c 0,140,141
 922 151 922 151 921 146 c 0,142,143
 917 132 917 132 904 125 c 2,144,-1
 890 118 l 2,145,146
 882 113 882 113 874 113 c 0,147,148
 869 113 869 113 864 115 c 0,149,150
 850 119 850 119 843 132 c 0,151,152
 776 256 776 256 710 345 c 0,123,124
EndSplineSet
Ligature2: "'ccmp' Glyph Composition/Decomposition lookup 5 subtable" cid01605 cid01539
EndChar

StartChar: cid01607
Encoding: 12509 12509 51
Width: 1024
GlyphClass: 3
Flags: W
LayerCount: 2
Fore
SplineSet
549 488 m 1,0,-1
 549 38 l 2,1,2
 549 -3 549 -3 527.5 -23.5 c 128,-1,3
 506 -44 506 -44 461 -44 c 0,4,5
 411 -44 411 -44 351 -40 c 0,6,7
 335 -39 335 -39 324 -28 c 128,-1,8
 313 -17 313 -17 312 -2 c 2,9,-1
 311 10 l 2,10,11
 310 24 310 24 319 32 c 0,12,13
 329 41 329 41 342 40 c 0,14,15
 392 33 392 33 426 33 c 0,16,17
 466 33 466 33 466 72 c 2,18,-1
 466 488 l 1,19,-1
 466 529 l 2,20,21
 466 534 466 534 461 534 c 2,22,-1
 181 534 l 2,23,24
 155 532 155 532 130 532 c 0,25,26
 115 532 115 532 104.5 542 c 128,-1,27
 94 552 94 552 94 566 c 2,28,-1
 94 581 l 2,29,30
 94 595 94 595 104.5 604.5 c 128,-1,31
 115 614 115 614 130 613 c 0,32,33
 155 611 155 611 181 611 c 2,34,-1
 461 611 l 2,35,36
 466 611 466 611 466 616 c 2,37,-1
 466 717 l 2,38,39
 466 734 466 734 464 754 c 0,40,41
 463 768 463 768 472 779 c 128,-1,42
 481 790 481 790 494 790 c 2,43,-1
 520 790 l 2,44,45
 533 790 533 790 542.5 779 c 128,-1,46
 552 768 552 768 551 754 c 0,47,48
 549 732 549 732 549 716 c 2,49,-1
 549 616 l 2,50,51
 549 611 549 611 553 611 c 2,52,-1
 678.053822135 611 l 1,53,54
 653 650.149965065 653 650.149965065 653 700 c 0,55,56
 653 769 653 769 702 818 c 128,-1,57
 751 867 751 867 817 867 c 0,58,59
 887 867 887 867 936.5 818 c 128,-1,60
 986 769 986 769 986 700 c 128,-1,61
 986 631 986 631 936.5 582.5 c 128,-1,62
 887 534 887 534 817 534 c 0,63,64
 816.49863461 534 816.49863461 534 815.998356449 534.002636529 c 2,65,-1
 816 534 l 1,66,-1
 553 534 l 2,67,68
 549 534 549 534 549 529 c 2,69,-1
 549 488 l 1,0,-1
242 379 m 0,70,71
 249 392 249 392 263 396.5 c 128,-1,72
 277 401 277 401 290 395 c 2,73,-1
 298 391 l 2,74,75
 311 385 311 385 315.5 371 c 128,-1,76
 320 357 320 357 313 344 c 0,77,78
 252 236 252 236 156 121 c 0,79,80
 147 109 147 109 131.5 107.5 c 128,-1,81
 116 106 116 106 104 114 c 2,82,-1
 92 122 l 2,83,84
 79 131 79 131 79 147 c 0,85,86
 79 159 79 159 87 167 c 0,87,88
 128 211 128 211 170.5 269 c 128,-1,89
 213 327 213 327 242 379 c 0,70,71
710 345 m 0,90,91
 704 353 704 353 704 363 c 0,92,93
 704 366 704 366 705 369 c 0,94,95
 707 383 707 383 720 389 c 2,96,-1
 726 393 l 2,97,98
 736 398 736 398 746 398 c 0,99,100
 751 398 751 398 755 397 c 0,101,102
 770 394 770 394 780 382 c 0,103,104
 847 293 847 293 917 173 c 0,105,106
 922 165 922 165 922 156 c 0,107,108
 922 151 922 151 921 146 c 0,109,110
 917 132 917 132 904 125 c 2,111,-1
 890 118 l 2,112,113
 882 113 882 113 874 113 c 0,114,115
 869 113 869 113 864 115 c 0,116,117
 850 119 850 119 843 132 c 0,118,119
 776 256 776 256 710 345 c 0,90,91
722 700.5 m 128,-1,121
 722 660 722 660 750 631 c 128,-1,122
 778 602 778 602 817 602 c 0,123,124
 859 602 859 602 888 631 c 128,-1,125
 917 660 917 660 917 700.5 c 128,-1,126
 917 741 917 741 888 770 c 128,-1,127
 859 799 859 799 817 799 c 0,128,129
 778 799 778 799 750 770 c 128,-1,120
 722 741 722 741 722 700.5 c 128,-1,121
EndSplineSet
Ligature2: "'ccmp' Glyph Composition/Decomposition lookup 5 subtable" cid01605 cid01540
EndChar

StartChar: cid01630
Encoding: 12532 12532 52
Width: 1024
GlyphClass: 3
Flags: W
LayerCount: 2
Fore
SplineSet
722.759765625 710.98828125 m 4,0,1
 680 797 680 797 666.1640625 810.939453125 c 4,2,3
 659 819 659 819 665.166015625 836.561523438 c 4,4,5
 671 851 671 851 686.166992187 859.151855469 c 4,6,7
 702 868 702 868 716.973144531 868.436035156 c 4,8,9
 733 868 733 868 740.5625 857.495117188 c 4,10,11
 743 854 743 854 798.408203125 757.538085938 c 4,12,13
 805 746 805 746 797.506835938 731.009765625 c 4,14,15
 791 716 791 716 774.533691406 706.805175781 c 4,16,17
 758 697 758 697 743.111328125 698.591796875 c 4,18,19
 729 701 729 701 722.759765625 710.98828125 c 4,0,1
882.413085938 821.46484375 m 4,20,21
 877 831 877 831 882 844.5 c 132,-1,22
 887 858 887 858 899.5 866 c 4,23,24
 919 878 919 878 935.317382812 877.623046875 c 4,25,26
 952 877 952 877 957.736328125 866.708984375 c 4,27,28
 976 831 976 831 1015.31640625 766.611328125 c 4,29,30
 1023 754 1023 754 1012.82421875 738.739257812 c 4,31,32
 1004 724 1004 724 989.5 715.5 c 132,-1,33
 975 707 975 707 961 707 c 132,-1,34
 947 707 947 707 939.874023438 720.639648438 c 4,35,36
 903 785 903 785 882.413085938 821.46484375 c 4,20,21
525 640 m 2,37,38
 525 636 525 636 530 636 c 2,39,-1
 755 636 l 2,40,41
 777 636 777 636 793 638 c 0,42,43
 801 638 801 638 808 638 c 0,44,45
 834 638 834 638 853 627 c 0,46,47
 865 619 865 619 870 605.5 c 128,-1,48
 875 592 875 592 872 578 c 0,49,50
 869 565 869 565 865 548 c 0,51,52
 835 359 835 359 765 241 c 0,53,54
 710 144 710 144 615.5 72 c 128,-1,55
 521 0 521 0 394 -39 c 0,56,57
 385 -42 385 -42 377 -42 c 0,58,59
 354 -42 354 -42 337 -22 c 2,60,-1
 317 0 l 2,61,62
 310 9 310 9 313.5 20 c 128,-1,63
 317 31 317 31 329 34 c 0,64,65
 364 42 364 42 399 55 c 0,66,67
 479 81 479 81 555.5 136.5 c 128,-1,68
 632 192 632 192 677 262 c 0,69,70
 716 321 716 321 740.5 401.5 c 128,-1,71
 765 482 765 482 774 556 c 0,72,73
 774 560 774 560 770 560 c 2,74,-1
 207 560 l 2,75,76
 203 560 203 560 203 556 c 2,77,-1
 203 377 l 2,78,79
 203 365 203 365 203 352 c 0,80,81
 204 337 204 337 194.5 326.5 c 128,-1,82
 185 316 185 316 170 316 c 2,83,-1
 152 316 l 2,84,85
 138 316 138 316 128.5 327 c 128,-1,86
 119 338 119 338 120 352 c 0,87,88
 121 369 121 369 121 382 c 2,89,-1
 121 561 l 1,90,-1
 120 607 l 2,91,92
 120 619 120 619 129 628 c 0,93,94
 138 638 138 638 152 637 c 0,95,96
 178 636 178 636 212 636 c 2,97,-1
 435 636 l 2,98,99
 439 636 439 636 439 640 c 2,100,-1
 439 731 l 2,101,102
 439 753 439 753 438 773 c 0,103,104
 436 787 436 787 445.5 797.5 c 128,-1,105
 455 808 455 808 469 808 c 2,106,-1
 496 808 l 2,107,108
 510 808 510 808 519.5 797.5 c 128,-1,109
 529 787 529 787 527 773 c 0,110,111
 525 750 525 750 525 731 c 2,112,-1
 525 640 l 2,37,38
EndSplineSet
Ligature2: "'ccmp' Glyph Composition/Decomposition lookup 5 subtable" cid01552 cid01539
EndChar

StartChar: cid01633
Encoding: 12535 12535 53
Width: 1024
GlyphClass: 3
Flags: W
LayerCount: 2
Fore
SplineSet
722.759765625 720.98828125 m 0,0,1
 680 807 680 807 672.1640625 814.939453125 c 0,2,3
 665 823 665 823 671.166015625 840.561523438 c 0,4,5
 677 855 677 855 692.166992188 863.151367188 c 0,6,7
 708 872 708 872 722.97265625 872.435546875 c 0,8,9
 741 872 741 872 746.5625 861.495117188 c 0,10,11
 772 815 772 815 798.408203125 767.538085938 c 0,12,13
 805 756 805 756 797.506835938 741.009765625 c 0,14,15
 791 726 791 726 774.533203125 716.805664062 c 0,16,17
 758 707 758 707 743.111328125 708.591796875 c 0,18,19
 729 711 729 711 722.759765625 720.98828125 c 0,0,1
888.413085938 825.46484375 m 0,20,21
 883 835 883 835 888 848.5 c 128,-1,22
 893 862 893 862 905.5 870 c 0,23,24
 925 882 925 882 941.317382812 881.623046875 c 0,25,26
 958 881 958 881 963.736328125 870.708984375 c 0,27,28
 993 813 993 813 1015.31640625 776.611328125 c 0,29,30
 1023 764 1023 764 1012.82421875 748.739257812 c 0,31,32
 1004 734 1004 734 989.5 725.5 c 128,-1,33
 975 717 975 717 961 717 c 128,-1,34
 947 717 947 717 939.874023438 730.639648438 c 0,35,36
 914 778 914 778 888.413085938 825.46484375 c 0,20,21
777 690 m 0,37,38
 783 691 783 691 788 691 c 0,39,40
 819 691 819 691 842 676 c 2,41,-1
 844 675 l 2,42,43
 857 666 857 666 862 651.5 c 128,-1,44
 867 637 867 637 863 621 c 0,45,46
 861 613 861 613 860 608 c 0,47,48
 851 545 851 545 844.5 510 c 128,-1,49
 838 475 838 475 824.5 417.5 c 128,-1,50
 811 360 811 360 792 313 c 128,-1,51
 773 266 773 266 746 225 c 0,52,53
 689 134 689 134 597 62 c 128,-1,54
 505 -10 505 -10 393 -52 c 0,55,56
 382 -56 382 -56 372 -56 c 0,57,58
 352 -56 352 -56 334 -38 c 2,59,-1
 314 -18 l 2,60,61
 305 -10 305 -10 308 1.5 c 128,-1,62
 311 13 311 13 323 17 c 0,63,64
 431 51 431 51 522 115.5 c 128,-1,65
 613 180 613 180 670 268 c 0,66,67
 747 388 747 388 767 606 c 0,68,69
 767 610 767 610 762 610 c 2,70,-1
 206 610 l 2,71,72
 202 610 202 610 202 606 c 2,73,-1
 202 406 l 2,74,75
 202 393 202 393 203 375 c 0,76,77
 203 361 203 361 193.5 350.5 c 128,-1,78
 184 340 184 340 169 340 c 2,79,-1
 148 340 l 2,80,81
 134 340 134 340 124 350 c 0,82,83
 115 360 115 360 115 374 c 2,84,-1
 116 406 l 1,85,-1
 116 625 l 2,86,87
 116 641 116 641 115 657 c 0,88,89
 114 671 114 671 124 681 c 128,-1,90
 134 691 134 691 148 690 c 0,91,92
 180 689 180 689 221 689 c 2,93,-1
 748 689 l 2,94,95
 762 689 762 689 777 690 c 0,37,38
EndSplineSet
Ligature2: "'ccmp' Glyph Composition/Decomposition lookup 5 subtable" cid01625 cid01539
EndChar

StartChar: cid01634
Encoding: 12536 12536 54
Width: 1024
GlyphClass: 3
Flags: W
LayerCount: 2
Fore
SplineSet
762.759765625 710.98828125 m 0,0,1
 720 797 720 797 706.1640625 810.939453125 c 0,2,3
 699 819 699 819 705.166015625 836.561523438 c 0,4,5
 711 851 711 851 726.166992188 859.151367188 c 0,6,7
 742 868 742 868 756.97265625 868.435546875 c 0,8,9
 773 868 773 868 780.5625 857.495117188 c 0,10,11
 783 854 783 854 838.408203125 757.538085938 c 0,12,13
 845 746 845 746 837.506835938 731.009765625 c 0,14,15
 831 716 831 716 814.533203125 706.805664062 c 0,16,17
 798 697 798 697 783.111328125 698.591796875 c 0,18,19
 769 701 769 701 762.759765625 710.98828125 c 0,0,1
885.413085938 821.46484375 m 4,20,21
 880 831 880 831 885 844.5 c 132,-1,22
 890 858 890 858 902.5 866 c 4,23,24
 922 878 922 878 938.317382812 877.623046875 c 4,25,26
 955 877 955 877 960.736328125 866.708984375 c 4,27,28
 979 831 979 831 1018.31640625 766.611328125 c 4,29,30
 1026 754 1026 754 1015.82421875 738.739257812 c 4,31,32
 1007 724 1007 724 992.5 715.5 c 132,-1,33
 978 707 978 707 964 707 c 132,-1,34
 950 707 950 707 942.874023438 720.639648438 c 4,35,36
 906 785 906 785 885.413085938 821.46484375 c 4,20,21
377 257 m 2,37,38
 377 253 377 253 381 253 c 2,39,-1
 620 253 l 2,40,41
 625 253 625 253 625 257 c 2,42,-1
 625 544 l 2,43,44
 625 549 625 549 620 549 c 2,45,-1
 381 549 l 2,46,47
 377 549 377 549 377 544 c 2,48,-1
 377 257 l 2,37,38
707 257 m 2,49,50
 707 253 707 253 711 253 c 2,51,-1
 844 253 l 2,52,53
 867 253 867 253 893 255 c 0,54,55
 908 257 908 257 918.5 247.5 c 128,-1,56
 929 238 929 238 929 224 c 2,57,-1
 929 208 l 2,58,59
 929 193 929 193 918.5 183.5 c 128,-1,60
 908 174 908 174 893 174 c 0,61,62
 875 175 875 175 844 175 c 2,63,-1
 711 175 l 2,64,65
 707 175 707 175 707 171 c 2,66,-1
 707 58 l 2,67,68
 707 28 707 28 708 -3 c 0,69,70
 708 -18 708 -18 698.5 -28.5 c 128,-1,71
 689 -39 689 -39 674 -39 c 2,72,-1
 656 -39 l 2,73,74
 642 -39 642 -39 632 -28.5 c 128,-1,75
 622 -18 622 -18 623 -4 c 0,76,77
 625 27 625 27 625 56 c 2,78,-1
 625 171 l 2,79,80
 625 175 625 175 620 175 c 2,81,-1
 171 175 l 2,82,83
 136 175 136 175 116 174 c 0,84,85
 102 174 102 174 91.5 183.5 c 128,-1,86
 81 193 81 193 81 208 c 2,87,-1
 81 224 l 2,88,89
 81 238 81 238 91.5 247 c 128,-1,90
 102 256 102 256 116 255 c 0,91,92
 145 253 145 253 171 253 c 2,93,-1
 292 253 l 2,94,95
 297 253 297 253 297 257 c 2,96,-1
 297 544 l 2,97,98
 297 549 297 549 292 549 c 2,99,-1
 209 549 l 2,100,101
 182 549 182 549 153 548 c 0,102,103
 139 547 139 547 128.5 557 c 128,-1,104
 118 567 118 567 118 581 c 2,105,-1
 118 594 l 2,106,107
 118 608 118 608 128.5 618 c 128,-1,108
 139 628 139 628 153 627 c 0,109,110
 184 625 184 625 209 625 c 2,111,-1
 620 625 l 2,112,113
 625 625 625 625 625 629 c 2,114,-1
 625 711 l 2,115,116
 625 725 625 725 623 747 c 0,117,118
 622 761 622 761 632 771.5 c 128,-1,119
 642 782 642 782 656 782 c 2,120,-1
 674 782 l 2,121,122
 688 782 688 782 698 771.5 c 128,-1,123
 708 761 708 761 707 747 c 0,124,125
 707 731 707 731 707 711 c 2,126,-1
 707 629 l 2,127,128
 707 625 707 625 711 625 c 2,129,-1
 818 625 l 2,130,131
 844 625 844 625 869 626 c 0,132,133
 883 627 883 627 893.5 617.5 c 128,-1,134
 904 608 904 608 904 594 c 2,135,-1
 904 581 l 2,136,137
 904 567 904 567 893.5 557.5 c 128,-1,138
 883 548 883 548 869 548 c 0,139,140
 850 549 850 549 818 549 c 2,141,-1
 711 549 l 2,142,143
 707 549 707 549 707 544 c 2,144,-1
 707 257 l 2,49,50
EndSplineSet
Ligature2: "'ccmp' Glyph Composition/Decomposition lookup 5 subtable" cid01626 cid01539
EndChar

StartChar: cid01635
Encoding: 12537 12537 55
Width: 1024
GlyphClass: 3
Flags: W
LayerCount: 2
Fore
SplineSet
722.759765625 710.98828125 m 4,0,1
 680 797 680 797 666.1640625 810.939453125 c 4,2,3
 659 819 659 819 665.166015625 836.561523438 c 4,4,5
 671 851 671 851 686.166992187 859.151855469 c 4,6,7
 702 868 702 868 716.973144531 868.436035156 c 4,8,9
 733 868 733 868 740.5625 857.495117188 c 4,10,11
 743 854 743 854 798.408203125 757.538085938 c 4,12,13
 805 746 805 746 797.506835938 731.009765625 c 4,14,15
 791 716 791 716 774.533691406 706.805175781 c 4,16,17
 758 697 758 697 743.111328125 698.591796875 c 4,18,19
 729 701 729 701 722.759765625 710.98828125 c 4,0,1
882.413085938 821.46484375 m 4,20,21
 877 831 877 831 882 844.5 c 132,-1,22
 887 858 887 858 899.5 866 c 4,23,24
 919 878 919 878 935.317382812 877.623046875 c 4,25,26
 952 877 952 877 957.736328125 866.708984375 c 4,27,28
 976 831 976 831 1015.31640625 766.611328125 c 4,29,30
 1023 754 1023 754 1012.82421875 738.739257812 c 4,31,32
 1004 724 1004 724 989.5 715.5 c 132,-1,33
 975 707 975 707 961 707 c 132,-1,34
 947 707 947 707 939.874023438 720.639648438 c 4,35,36
 903 785 903 785 882.413085938 821.46484375 c 4,20,21
786 593 m 0,37,38
 789 597 789 597 784 597 c 2,39,-1
 239 597 l 2,40,41
 214 597 214 597 166 595 c 0,42,43
 151 594 151 594 140.5 604 c 128,-1,44
 130 614 130 614 130 628 c 2,45,-1
 130 646 l 2,46,47
 130 661 130 661 141 670 c 0,48,49
 150 679 150 679 163 679 c 0,50,51
 164 679 164 679 165 679 c 0,52,53
 205 676 205 676 234 676 c 2,54,-1
 799 676 l 2,55,56
 813 676 813 676 827 677 c 0,57,58
 834 678 834 678 841 678 c 0,59,60
 867 678 867 678 886 665 c 0,61,62
 897 657 897 657 899.5 643.5 c 128,-1,63
 902 630 902 630 895 619 c 0,64,65
 892 615 892 615 890 611 c 0,66,67
 860 555 860 555 808 488.5 c 128,-1,68
 756 422 756 422 700 371 c 0,69,70
 689 360 689 360 673 359 c 128,-1,71
 657 358 657 358 645 367 c 2,72,-1
 631 376 l 2,73,74
 621 384 621 384 620.5 396.5 c 128,-1,75
 620 409 620 409 631 418 c 0,76,77
 728 495 728 495 786 593 c 0,37,38
526 103 m 2,78,79
 526 98 526 98 531 98 c 2,80,-1
 850 98 l 2,81,82
 874 98 874 98 902 101 c 0,83,84
 916 102 916 102 926.5 92.5 c 128,-1,85
 937 83 937 83 937 69 c 2,86,-1
 937 46 l 2,87,88
 937 32 937 32 926.5 22.5 c 128,-1,89
 916 13 916 13 902 13 c 0,90,91
 882 14 882 14 850 14 c 2,92,-1
 166 14 l 2,93,94
 136 14 136 14 108 13 c 0,95,96
 107 13 107 13 106 13 c 0,97,98
 93 13 93 13 83 22 c 256,99,100
 73 31 73 31 73 46 c 2,101,-1
 73 69 l 2,102,103
 73 83 73 83 83.5 92.5 c 128,-1,104
 94 102 94 102 108 101 c 0,105,106
 138 98 138 98 166 98 c 2,107,-1
 436 98 l 2,108,109
 440 98 440 98 440 103 c 2,110,-1
 440 434 l 2,111,112
 440 464 440 464 440 481 c 0,113,114
 439 495 439 495 449 505.5 c 128,-1,115
 459 516 459 516 473 516 c 2,116,-1
 496 516 l 2,117,118
 510 516 510 516 519.5 505.5 c 128,-1,119
 529 495 529 495 528 481 c 0,120,121
 526 460 526 460 526 434 c 2,122,-1
 526 103 l 2,78,79
EndSplineSet
Ligature2: "'ccmp' Glyph Composition/Decomposition lookup 5 subtable" cid01627 cid01539
EndChar

StartChar: cid01636
Encoding: 12538 12538 56
Width: 1024
GlyphClass: 3
Flags: W
LayerCount: 2
Fore
SplineSet
722.759765625 726.98828125 m 0,0,1
 691 793 691 793 674.1640625 810.939453125 c 0,2,3
 667 819 667 819 673.166015625 836.561523438 c 0,4,5
 679 851 679 851 694.166992188 859.151367188 c 0,6,7
 710 868 710 868 724.97265625 868.435546875 c 0,8,9
 742 868 742 868 748.5625 857.495117188 c 0,10,11
 764 834 764 834 798.408203125 773.538085938 c 0,12,13
 805 762 805 762 797.506835938 747.009765625 c 0,14,15
 791 732 791 732 774.533203125 722.805664062 c 0,16,17
 758 713 758 713 743.111328125 714.591796875 c 0,18,19
 728 717 728 717 722.759765625 726.98828125 c 0,0,1
890.413085938 821.46484375 m 0,20,21
 885 831 885 831 890 844.5 c 128,-1,22
 895 858 895 858 907.5 866 c 0,23,24
 927 878 927 878 943.317382812 877.623046875 c 0,25,26
 960 877 960 877 965.736328125 866.708984375 c 0,27,28
 980 840 980 840 1015.31640625 782.611328125 c 0,29,30
 1023 770 1023 770 1012.82421875 754.739257812 c 0,31,32
 1004 740 1004 740 989.5 731.5 c 128,-1,33
 975 723 975 723 961 723 c 0,34,35
 949 723 949 723 939.874023438 736.639648438 c 0,36,37
 920 769 920 769 890.413085938 821.46484375 c 0,20,21
236 698 m 2,38,-1
 736 698 l 2,39,40
 751 698 751 698 764 699 c 0,41,42
 770 700 770 700 777 700 c 0,43,44
 807 700 807 700 829 686 c 2,45,-1
 834 683 l 2,46,47
 854 670 854 670 854 645 c 0,48,49
 854 638 854 638 853 630 c 0,50,51
 852 628 852 628 852 627 c 0,52,53
 801 351 801 351 732 243 c 0,54,55
 662 137 662 137 567.5 63 c 128,-1,56
 473 -11 473 -11 339 -61 c 0,57,58
 328 -65 328 -65 318 -65 c 0,59,60
 298 -65 298 -65 281 -47 c 2,61,-1
 263 -27 l 2,62,63
 255 -18 255 -18 258 -6.5 c 128,-1,64
 261 5 261 5 273 8 c 0,65,66
 520 78 520 78 652 271 c 0,67,68
 675 305 675 305 694 354 c 0,69,70
 695 358 695 358 691 358 c 2,71,-1
 250 358 l 2,72,73
 223 358 223 358 192 357 c 0,74,75
 178 356 178 356 167.5 365.5 c 128,-1,76
 157 375 157 375 157 390 c 2,77,-1
 157 403 l 2,78,79
 157 417 157 417 167.5 426.5 c 128,-1,80
 178 436 178 436 192 435 c 0,81,82
 220 433 220 433 248 433 c 2,83,-1
 716 433 l 2,84,85
 721 433 721 433 722 438 c 0,86,87
 746 525 746 525 759 616 c 0,88,89
 760 621 760 621 755 621 c 2,90,-1
 236 621 l 2,91,92
 201 621 201 621 165 619 c 0,93,94
 151 618 151 618 140.5 628 c 128,-1,95
 130 638 130 638 130 652 c 2,96,-1
 130 671 l 2,97,98
 130 685 130 685 140.5 694.5 c 128,-1,99
 151 704 151 704 165 702 c 0,100,101
 203 698 203 698 236 698 c 2,38,-1
EndSplineSet
Ligature2: "'ccmp' Glyph Composition/Decomposition lookup 5 subtable" cid01628 cid01539
EndChar

StartChar: cid01638
Encoding: 12540 12540 57
Width: 1024
GlyphClass: 2
Flags: W
LayerCount: 2
Fore
SplineSet
104 471 m 0,0,1
 94 477 94 477 93.6982421875 481.853515625 c 0,2,3
 92.9868844892 495.24693847 92.9868844892 495.24693847 110.2265625 513.2421875 c 2,4,-1
 131.505859375 535.454101562 l 2,5,6
 148 552 148 552 156.5 545.5 c 0,7,8
 163 540 163 540 292 434 c 1,9,-1
 808 438 l 2,10,11
 853 438 853 438 883 441 c 0,12,13
 897 442 897 442 908 432 c 128,-1,14
 919 422 919 422 919 408 c 2,15,-1
 919 379 l 2,16,17
 919 364 919 364 908 354 c 0,18,19
 898 345 898 345 886 345 c 0,20,21
 884 345 884 345 883 345 c 0,22,23
 880.407265774 347.592734226 880.407265774 347.592734226 809 348 c 2,24,-1
 283 351 l 0,25,26
 252 355 252 355 236 371 c 0,27,-1
 220 383 l 2,28,-1
 104 471 l 0,0,1
EndSplineSet
Substitution2: "'vert' Vertical Alternates (obs) lookup 0 subtable" cid65350
EndChar

StartChar: uni4E00
Encoding: 19968 19968 58
Width: 1024
GlyphClass: 2
Flags: W
LayerCount: 2
Fore
SplineSet
49 423 m 2,0,1
 49 437 49 437 59.5 447.5 c 128,-1,2
 70 458 70 458 84 458 c 2,3,-1
 738 458 l 2,4,-1
 859 570 l 28,5,6
 876 583 876 583 888 570 c 28,7,-1
 966.5 450 l 0,8,9
 979 437 979 437 979 423 c 2,10,-1
 979 421 l 2,11,12
 979 406 979 406 968.5 395.5 c 128,-1,13
 958 385 958 385 944 385 c 2,14,-1
 760 385 l 0,15,-1
 84 385 l 2,16,17
 70 385 70 385 59.5 395.5 c 128,-1,18
 49 406 49 406 49 421 c 2,19,-1
 49 423 l 2,0,1
EndSplineSet
EndChar
